<?xml version="1.0" encoding="iso-8859-1"?>
<!-- Generator: Adobe Illustrator 11 Build 196, SVG Export Plug-In . SVG Version: 6.0.0 Build 78)  -->
<!DOCTYPE svg PUBLIC "-//W3C//DTD SVG 1.0//EN"    "http://www.w3.org/TR/2001/REC-SVG-20010904/DTD/svg10.dtd" [
	<!ENTITY ns_flows "http://ns.adobe.com/Flows/1.0/">
	<!ENTITY ns_svg "http://www.w3.org/2000/svg">
	<!ENTITY ns_xlink "http://www.w3.org/1999/xlink">
]>
<svg  
	 width="108.532" height="40.993" viewBox="0 0 108.532 40.993" style="overflow:visible;enable-background:new 0 0 108.532 40.993"
	 xml:space="preserve">
	<g id="Layer_1">
		<path style="fill:#B4B4B4;stroke:#000000;" d="M104.195,0.5v4.829c0,11.604-18.708,21.226-43.216,23.036v-0.011h-7.854v0.104
			h-5.572v0.01C23.045,26.658,4.337,17.036,4.337,5.433V0.604H0.5v5.521c0,13.125,19.888,24.005,45.908,26.01l0.028,0.191
			c5.513,0,5.972,2.723,5.972,5.833c0,1.556,0,2.139,0,2.333h2.999v-0.104h0.716c0-0.194,0-0.777,0-2.333
			c0-3.111,0.459-5.833,5.972-5.833l0.028-0.191c26.021-2.005,45.909-12.885,45.909-26.011V0.5H104.195z"/>
	</g>
</svg>
