<?xml version="1.0" encoding="iso-8859-1"?>
<!-- Generator: Adobe Illustrator 11 Build 196, SVG Export Plug-In . SVG Version: 6.0.0 Build 78)  -->
<!DOCTYPE svg PUBLIC "-//W3C//DTD SVG 1.0//EN"    "http://www.w3.org/TR/2001/REC-SVG-20010904/DTD/svg10.dtd" [
	<!ENTITY ns_flows "http://ns.adobe.com/Flows/1.0/">
	<!ENTITY ns_svg "http://www.w3.org/2000/svg">
	<!ENTITY ns_xlink "http://www.w3.org/1999/xlink">
]>
<svg  
	 width="84.877" height="45.947" viewBox="0 0 84.877 45.947" style="overflow:visible;enable-background:new 0 0 84.877 45.947"
	 xml:space="preserve">
	<g id="Layer_1">
		<g>
			<path style="fill:#FFFFFF;" d="M71.461,8c2.25,0,4.5,4,4.5,8s-2.25,8-4.5,8s-4.5-4-4.5-8S69.211,8,71.461,8z"/>
			<path style="fill:none;stroke:#000000;stroke-miterlimit:1;" d="M71.461,7.5c2,0,4,4.25,4,8.5s-2,8.5-4,8.5s-4-4.25-4-8.5
				S69.461,7.5,71.461,7.5z"/>
			<path style="fill:#FFFFFF;" d="M67.961,20c2,0,4,2.5,4,5s-2,5-4,5s-4-2.5-4-5S65.961,20,67.961,20z"/>
			<path style="fill:none;stroke:#000000;stroke-miterlimit:1;" d="M67.961,19.5c1.75,0,3.5,2.75,3.5,5.5s-1.75,5.5-3.5,5.5
				s-3.5-2.75-3.5-5.5S66.211,19.5,67.961,19.5z"/>
			<polyline style="fill:none;stroke:#000000;stroke-miterlimit:1;" points="68.461,20.5 66.461,23.5 65.461,24.5 66.461,26.5 
				66.461,28.5 "/>
			<polyline style="fill:none;stroke:#000000;stroke-miterlimit:1;" points="69.461,21.5 69.461,24.5 69.461,26.5 68.461,29.5 "/>
			<path style="fill:#FFFFFF;" d="M73.961,20c2,0,4,2.75,4,5.5s-2,5.5-4,5.5s-4-2.75-4-5.5S71.961,20,73.961,20z"/>
			<path style="fill:none;stroke:#000000;stroke-miterlimit:1;" d="M73.961,19.5c1.75,0,3.5,3,3.5,6s-1.75,6-3.5,6s-3.5-3-3.5-6
				S72.211,19.5,73.961,19.5z"/>
			<polyline style="fill:none;stroke:#000000;stroke-miterlimit:1;" points="74.461,20.5 72.461,23.5 72.461,25.5 72.461,26.5 
				73.461,29.5 "/>
			<polyline style="fill:none;stroke:#000000;stroke-miterlimit:1;" points="75.461,21.5 76.461,24.5 76.461,27.5 75.461,29.5 "/>
			<polygon style="fill:#DCDCDC;" points="66.961,21 69.961,22 72.961,22 74.961,21 74.961,20 73.961,20 70.961,20 68.961,19 "/>
			<path style="fill:#FFFFFF;" d="M71.461,8c1.75,0,3.5,1,3.5,2s-1.75,2-3.5,2s-3.5-1-3.5-2S69.711,8,71.461,8z"/>
			<path style="fill:none;stroke:#000000;stroke-miterlimit:1;" d="M71.461,7.5c1.5,0,3,1.25,3,2.5s-1.5,2.5-3,2.5s-3-1.25-3-2.5
				S69.961,7.5,71.461,7.5z"/>
			<path style="fill:#FFFFFF;" d="M71.461,7c1.75,0,3.5,0.75,3.5,1.5s-1.75,1.5-3.5,1.5s-3.5-0.75-3.5-1.5S69.711,7,71.461,7z"/>
			<path style="fill:none;stroke:#000000;stroke-miterlimit:1;" d="M71.461,6.5c1.5,0,3,1,3,2s-1.5,2-3,2s-3-1-3-2
				S69.961,6.5,71.461,6.5z"/>
			<path style="fill:#FFFFFF;" d="M70.961,1c1.5,0,3,2,3,4s-1.5,4-3,4s-3-2-3-4S69.461,1,70.961,1z"/>
			<path style="fill:none;stroke:#000000;stroke-miterlimit:1;" d="M70.961,0.5c1.25,0,2.5,2.25,2.5,4.5s-1.25,4.5-2.5,4.5
				s-2.5-2.25-2.5-4.5S69.711,0.5,70.961,0.5z"/>
			<path style="fill:#FFFFFF;" d="M70.961,4l-1,2L70.961,4z"/>
			<line style="fill:none;stroke:#000000;stroke-miterlimit:1;" x1="71.461" y1="4.5" x2="70.461" y2="6.5"/>
			<path style="fill:#FFFFFF;" d="M69.961,6h1H69.961z"/>
			<line style="fill:none;stroke:#000000;stroke-miterlimit:1;" x1="70.461" y1="6.5" x2="71.461" y2="6.5"/>
			<path style="fill:#FFFFFF;" d="M70.461,3c0.25,0,0.5,0.25,0.5,0.5s-0.25,0.5-0.5,0.5s-0.5-0.25-0.5-0.5S70.211,3,70.461,3z"/>
			<path style="fill:none;stroke:#000000;stroke-miterlimit:1;" d="M70.461,2.5c0,0,0,0.5,0,1s0,1,0,1s0-0.5,0-1
				S70.461,2.5,70.461,2.5z"/>
			<path style="fill:#FFFFFF;" d="M71.461,3c0.25,0,0.5,0.25,0.5,0.5s-0.25,0.5-0.5,0.5s-0.5-0.25-0.5-0.5S71.211,3,71.461,3z"/>
			<path style="fill:none;stroke:#000000;stroke-miterlimit:1;" d="M71.461,2.5c0,0,0,0.5,0,1s0,1,0,1s0-0.5,0-1
				S71.461,2.5,71.461,2.5z"/>
			<polyline style="fill:none;stroke:#000000;stroke-miterlimit:1;" points="66.461,30.5 66.461,41.5 68.461,41.5 69.461,30.5 "/>
			<polygon style="fill:#FFFFFF;" points="66.961,33 64.961,34 64.961,35 66.961,36 "/>
			<polyline style="fill:none;stroke:#000000;stroke-miterlimit:1;" points="67.461,33.5 65.461,34.5 65.461,35.5 67.461,36.5 "/>
			<polyline style="fill:none;stroke:#000000;stroke-miterlimit:1;" points="76.461,30.5 75.461,41.5 73.461,41.5 72.461,31.5 "/>
			<polygon style="fill:#FFFFFF;" points="74.961,34 75.961,35 75.961,36 74.961,37 "/>
			<polyline style="fill:none;stroke:#000000;stroke-miterlimit:1;" points="75.461,34.5 76.461,35.5 76.461,36.5 75.461,37.5 "/>
			<polyline style="fill:none;stroke:#000000;stroke-miterlimit:1;" points="66.461,41.5 64.461,42.5 62.461,43.5 61.461,42.5 
				62.461,43.5 63.461,44.5 65.461,44.5 67.461,43.5 68.461,41.5 "/>
			<polyline style="fill:none;stroke:#000000;stroke-miterlimit:1;" points="75.461,41.5 77.461,43.5 79.461,43.5 80.461,42.5 
				79.461,44.5 78.461,45.5 76.461,44.5 74.461,43.5 73.461,42.5 "/>
			<polyline style="fill:none;stroke:#000000;stroke-miterlimit:1;" points="76.461,12.5 84.461,15.5 80.461,21.5 80.461,23.5 
				78.461,23.5 77.461,21.5 78.461,18.5 80.461,16.5 76.461,15.5 "/>
			<polygon style="fill:#7F7F7F;" points="68.961,2 68.961,1 70.961,0 72.961,1 73.961,1 74.961,3 74.961,4 74.961,5 73.961,5 
				72.961,5 72.961,3 71.961,2 "/>
			<polyline style="fill:none;stroke:#000000;stroke-miterlimit:1;" points="67.461,12.5 64.461,12.5 63.461,14.5 62.461,17.5 
				61.461,22.5 61.461,27.5 63.461,27.5 64.461,20.5 67.461,15.5 "/>
		</g>
		<path style="fill:#B4B4B4;stroke:#000000;" d="M52.348,24.832v2.414c0,5.802-9.354,10.613-21.608,11.518v-0.005h-3.927v0.052
			h-2.786v0.005C11.772,37.911,2.418,33.1,2.418,27.298v-2.414H0.5v2.76c0,6.563,9.944,12.003,22.954,13.005l0.014,0.095
			c2.756,0,2.986,1.361,2.986,2.917c0,0.778,0,1.069,0,1.167h1.5v-0.052h0.358c0-0.097,0-0.389,0-1.167
			c0-1.556,0.23-2.917,2.986-2.917l0.014-0.096c13.01-1.002,22.954-6.442,22.954-13.005v-2.76H52.348z"/>
	</g>
</svg>
