<?xml version="1.0" encoding="iso-8859-1"?>
<!-- Generator: Adobe Illustrator 11 Build 196, SVG Export Plug-In . SVG Version: 6.0.0 Build 78)  -->
<!DOCTYPE svg PUBLIC "-//W3C//DTD SVG 1.0//EN"    "http://www.w3.org/TR/2001/REC-SVG-20010904/DTD/svg10.dtd" [
	<!ENTITY ns_flows "http://ns.adobe.com/Flows/1.0/">
	<!ENTITY ns_svg "http://www.w3.org/2000/svg">
	<!ENTITY ns_xlink "http://www.w3.org/1999/xlink">
]>
<svg  
	 width="110.532" height="40.889" viewBox="0 0 110.532 40.889" style="overflow:visible;enable-background:new 0 0 110.532 40.889"
	 xml:space="preserve">
	<g id="Layer_1">
		<path style="fill:#B4B4B4;stroke:#000000;" d="M99.769,0.5v4.093c0,10.146-16.869,18.559-38.966,20.142v-0.009h-5.395h-0.282
			H49.73v0.009c-22.098-1.583-38.966-9.996-38.966-20.142V0.5H0.5v5.521c0,13.125,19.888,24.006,45.908,26.01l0.028,0.191
			c5.513,0,5.972,2.722,5.972,5.833c0,1.555,0,2.139,0,2.333h2.716h0.282h2.716c0-0.194,0-0.778,0-2.333
			c0-3.111,0.459-5.833,5.972-5.833l0.028-0.191c26.021-2.004,45.908-12.885,45.908-26.01V0.5H99.769z"/>
	</g>
</svg>
