<?xml version="1.0" encoding="UTF-8" standalone="no"?>
<!DOCTYPE svg PUBLIC "-//W3C//DTD SVG 20010904//EN"
"http://www.w3.org/TR/2001/REC-SVG-20010904/DTD/svg10.dtd">
<!-- Created with Inkscape (http://www.inkscape.org/) -->
<svg
   width="52.000000mm"
   height="59.000000mm"
   id="svg1196"
   sodipodi:version="0.32"
   inkscape:version="0.38.1"
   sodipodi:docname="metric-mnemonic.svg"
   xmlns="http://www.w3.org/2000/svg"
   xmlns:cc="http://web.resource.org/cc/"
   xmlns:inkscape="http://www.inkscape.org/namespaces/inkscape"
   xmlns:sodipodi="http://sodipodi.sourceforge.net/DTD/sodipodi-0.dtd"
   xmlns:rdf="http://www.w3.org/1999/02/22-rdf-syntax-ns#"
   xmlns:dc="http://purl.org/dc/elements/1.1/"
   xmlns:xlink="http://www.w3.org/1999/xlink"
   sodipodi:docbase="/usr/home/bcrowell/Documents/writing/lm/1np/ch00/figs">
  <defs
     id="defs3" />
  <sodipodi:namedview
     id="base"
     pagecolor="#ffffff"
     bordercolor="#666666"
     borderopacity="1.0"
     inkscape:pageopacity="0.0"
     inkscape:pageshadow="2"
     inkscape:zoom="2.0555556"
     inkscape:cx="72.000000"
     inkscape:cy="60.402030"
     inkscape:current-layer="layer1"
     inkscape:window-width="753"
     inkscape:window-height="805"
     inkscape:window-x="9"
     inkscape:window-y="21" />
  <metadata
     id="metadata4">
    <rdf:RDF
       id="RDF5">
      <cc:Work
         rdf:about=""
         id="Work6">
        <dc:format
           id="format7">image/svg+xml</dc:format>
        <dc:type
           id="type9"
           rdf:resource="http://purl.org/dc/dcmitype/StillImage" />
      </cc:Work>
    </rdf:RDF>
  </metadata>
  <g
     inkscape:label="Layer 1"
     inkscape:groupmode="layer"
     id="layer1">
    <rect
       style="fill:#dcf2f7"
       width="182.90544"
       height="208.49915"
       id="rect8"
       x="1.1014187"
       y="1.3101409" />
    <text
       id="text12"
       x="5.5800711"
       y="49.913624"
       transform="scale(1.131689,1.131689)"><tspan
         x="5.5800711"
         y="49.913624"
         style="font-size:11.050000;font-family:Bitstream Vera Sans"
         id="tspan13">10</tspan></text>
    <text
       id="text16"
       x="20.796373"
       y="46.913624"
       transform="scale(1.131689,1.131689)"><tspan
         x="20.796373"
         y="46.913624"
         style="font-size:8.5000000;font-family:Bitstream Vera Sans"
         id="tspan17">-9</tspan></text>
    <text
       id="text23"
       x="5.5800711"
       y="81.705623"
       transform="scale(1.131689,1.131689)"><tspan
         x="5.5800711"
         y="81.705623"
         style="font-size:11.050000;font-family:Bitstream Vera Sans"
         id="tspan24">10</tspan></text>
    <text
       id="text27"
       x="20.796373"
       y="78.705623"
       transform="scale(1.131689,1.131689)"><tspan
         x="20.796373"
         y="78.705623"
         style="font-size:8.5000000;font-family:Bitstream Vera Sans"
         id="tspan28">-6</tspan></text>
    <text
       id="text34"
       x="5.5800711"
       y="113.66652"
       transform="scale(1.131689,1.131689)"><tspan
         x="5.5800711"
         y="113.66652"
         style="font-size:11.050000;font-family:Bitstream Vera Sans"
         id="tspan35">10</tspan></text>
    <text
       id="text38"
       x="20.796373"
       y="110.66652"
       transform="scale(1.131689,1.131689)"><tspan
         x="20.796373"
         y="110.66652"
         style="font-size:8.5000000;font-family:Bitstream Vera Sans"
         id="tspan39">-3</tspan></text>
    <text
       id="text45"
       x="5.5800711"
       y="145.48391"
       transform="scale(1.131689,1.131689)"><tspan
         x="5.5800711"
         y="145.48391"
         style="font-size:11.050000;font-family:Bitstream Vera Sans"
         id="tspan46">10</tspan></text>
    <text
       id="text49"
       x="20.796373"
       y="142.48391"
       transform="scale(1.131689,1.131689)"><tspan
         x="20.796373"
         y="142.48391"
         style="font-size:8.5000000;font-family:Bitstream Vera Sans"
         id="tspan50">3</tspan></text>
    <text
       id="text56"
       x="5.5800711"
       y="177.33491"
       transform="scale(1.131689,1.131689)"><tspan
         x="5.5800711"
         y="177.33491"
         style="font-size:11.050000;font-family:Bitstream Vera Sans"
         id="tspan57">10</tspan></text>
    <text
       id="text60"
       x="20.796373"
       y="174.33491"
       transform="scale(1.131689,1.131689)"><tspan
         x="20.796373"
         y="174.33491"
         style="font-size:8.5000000;font-family:Bitstream Vera Sans"
         id="tspan61">6</tspan></text>
    <text
       id="text67"
       x="92.081970"
       y="18.356424"
       transform="scale(1.131689,1.131689)"><tspan
         x="92.081970"
         y="18.356424"
         style="font-size:14.000000;font-family:'AGaramond-Italic'"
         id="tspan68">N</tspan></text>
    <text
       id="text71"
       x="102.09178"
       y="18.356424"
       transform="scale(1.131689,1.131689)"><tspan
         x="102.09178"
         y="18.356424"
         style="font-size:14.000000;font-family:'AGaramond-Italic'"
         id="tspan72">ine little</tspan></text>
    <text
       id="text78"
       x="53.171867"
       y="48.728027"
       transform="scale(1.131689,1.131689)"><tspan
         x="53.171867"
         y="48.728027"
         style="font-size:8.5000000;font-family:Bitstream Vera Sans"
         id="tspan79">nano</tspan></text>
    <text
       id="text85"
       x="53.171867"
       y="80.520023"
       transform="scale(1.131689,1.131689)"><tspan
         x="53.171867"
         y="80.520023"
         style="font-size:8.5000000;font-family:Bitstream Vera Sans"
         id="tspan86">micro</tspan></text>
    <text
       id="text92"
       x="53.171867"
       y="112.48092"
       transform="scale(1.131689,1.131689)"><tspan
         x="53.171867"
         y="112.48092"
         style="font-size:8.5000000;font-family:Bitstream Vera Sans"
         id="tspan93">milli</tspan></text>
    <text
       id="text99"
       x="53.171867"
       y="144.29783"
       transform="scale(1.131689,1.131689)"><tspan
         x="53.171867"
         y="144.29783"
         style="font-size:8.5000000;font-family:Bitstream Vera Sans"
         id="tspan100">kilo</tspan></text>
    <text
       id="text106"
       x="53.171867"
       y="176.14941"
       transform="scale(1.131689,1.131689)"><tspan
         x="53.171867"
         y="176.14941"
         style="font-size:8.5000000;font-family:Bitstream Vera Sans"
         id="tspan107">mega</tspan></text>
    <text
       id="text113"
       x="105.58196"
       y="48.768524"
       transform="scale(1.131689,1.131689)"><tspan
         x="105.58196"
         y="48.768524"
         style="font-size:14.000000;font-family:'AGaramond-Italic'"
         id="tspan114">nuns</tspan></text>
    <text
       id="text120"
       x="105.58196"
       y="80.560528"
       transform="scale(1.131689,1.131689)"><tspan
         x="105.58196"
         y="80.560528"
         style="font-size:14.000000;font-family:'AGaramond-Italic'"
         id="tspan121">mix</tspan></text>
    <text
       id="text127"
       x="105.58196"
       y="112.52153"
       transform="scale(1.131689,1.131689)"><tspan
         x="105.58196"
         y="112.52153"
         style="font-size:14.000000;font-family:'AGaramond-Italic'"
         id="tspan128">milky</tspan></text>
    <text
       id="text134"
       x="105.58196"
       y="176.18992"
       transform="scale(1.131689,1.131689)"><tspan
         x="105.58196"
         y="176.18992"
         style="font-size:14.000000;font-family:'AGaramond-Italic'"
         id="tspan135">mugs.</tspan></text>
    <polyline
       style="fill:none;stroke:#000000;stroke-width:0.50000000"
       points="87.039,18.165 82.004,18.165 82.004,6.1 86.944,6.1 "
       id="polyline139"
       transform="matrix(1.131689,0.000000,0.000000,1.131689,5.111352,1.310183)" />
    <path
       style="fill:none;stroke:#000000;stroke-width:0.56584448;"
       d="M 97.883810,14.656156 C 69.501048,14.656156 44.945661,35.681805 40.645243,39.982223"
       id="path143" />
    <path
       d="M 38.810775,41.822349 C 39.353986,40.638602 39.879090,39.020287 39.963967,37.777693 L 40.887425,39.746831 L 42.855432,40.669158 C 41.613969,40.754035 39.995654,41.279138 38.810775,41.822349 z "
       id="path145" />
    <polyline
       style="fill:none;stroke:#000000;stroke-width:0.50000000"
       points="99.039,50.892 94.004,50.892 94.004,38.827 98.944,38.827     "
       id="polyline148"
       transform="matrix(1.131689,0.000000,0.000000,1.131689,5.111352,1.310183)" />
    <polyline
       style="fill:none;stroke:#000000;stroke-width:0.50000000"
       points="99.039,82.052 94.004,82.052 94.004,69.987 98.944,69.987     "
       id="polyline150"
       transform="matrix(1.131689,0.000000,0.000000,1.131689,5.111352,1.310183)" />
    <polyline
       style="fill:none;stroke:#000000;stroke-width:0.50000000"
       points="116.139,118.817 116.139,123.852 104.074,123.852     104.074,118.912 "
       id="polyline152"
       transform="matrix(1.131689,0.000000,0.000000,1.131689,5.111352,1.310183)" />
    <polyline
       style="fill:none;stroke:#000000;stroke-width:0.50000000"
       points="133.571,118.817 133.571,123.852 121.506,123.852     121.506,118.912 "
       id="polyline154"
       transform="matrix(1.131689,0.000000,0.000000,1.131689,5.111352,1.310183)" />
    <polyline
       style="fill:none;stroke:#000000;stroke-width:0.50000000"
       points="99.039,177.812 94.004,177.812 94.004,165.747     98.944,165.747 "
       id="polyline156"
       transform="matrix(1.131689,0.000000,0.000000,1.131689,5.111352,1.310183)" />
    <line
       style="fill:none;stroke:#000000;stroke-width:0.56584448;"
       x1="111.54781"
       y1="52.023400"
       x2="93.486060"
       y2="52.023400"
       id="line160" />
    <path
       d="M 90.891100,52.023393 C 92.112192,51.570717 93.627524,50.797774 94.566826,49.978431 L 93.826701,52.023393 L 94.566826,54.068355 C 93.627524,53.250144 92.112192,52.476069 90.891100,52.023393 z "
       id="path162" />
    <line
       style="fill:none;stroke:#000000;stroke-width:0.56584448;"
       x1="111.35090"
       y1="87.268700"
       x2="99.309718"
       y2="87.268700"
       id="line167" />
    <path
       d="M 96.714771,87.268713 C 97.935868,86.816037 99.451200,86.043094 100.39050,85.223751 L 99.651508,87.268713 L 100.39050,89.313675 C 99.451200,88.495464 97.935868,87.721389 96.714771,87.268713 z "
       id="path169" />
    <path
       style="fill:none;stroke:#000000;stroke-width:0.56584448;"
       d="M 129.23385,141.61581 C 129.23385,166.55824 107.73176,124.27042 90.530091,124.27042"
       id="path174" />
    <path
       d="M 87.935128,124.27042 C 89.156221,123.81774 90.671552,123.04367 91.610854,122.22545 L 90.871861,124.27042 L 91.610854,126.31538 C 90.671552,125.49717 89.156221,124.72422 87.935128,124.27042 z "
       id="path176" />
    <path
       style="fill:none;stroke:#000000;stroke-width:0.56584448;"
       d="M 149.08707,141.54452 C 149.08707,154.44577 121.49310,158.67489 90.530091,158.67489"
       id="path181" />
    <path
       d="M 87.935128,158.67376 C 89.156221,158.22108 90.671552,157.44701 91.610854,156.62880 L 90.871861,158.67376 L 91.610854,160.71872 C 90.671552,159.90051 89.156221,159.12757 87.935128,158.67376 z "
       id="path183" />
    <line
       style="fill:none;stroke:#000000;stroke-width:0.56584448;"
       x1="111.38711"
       y1="195.65735"
       x2="96.550682"
       y2="195.65735"
       id="line188" />
    <path
       d="M 93.954582,195.65735 C 95.175674,195.20468 96.691006,194.43060 97.630312,193.61239 L 96.890183,195.65735 L 97.630312,197.70232 C 96.691006,196.88410 95.175674,196.11003 93.954582,195.65735 z "
       id="path190" />
  </g>
</svg>
