<?xml version="1.0" encoding="iso-8859-1"?>
<!-- Generator: Adobe Illustrator 11 Build 196, SVG Export Plug-In . SVG Version: 6.0.0 Build 78)  -->
<!DOCTYPE svg PUBLIC "-//W3C//DTD SVG 1.0//EN"    "http://www.w3.org/TR/2001/REC-SVG-20010904/DTD/svg10.dtd" [
	<!ENTITY ns_flows "http://ns.adobe.com/Flows/1.0/">
	<!ENTITY ns_svg "http://www.w3.org/2000/svg">
	<!ENTITY ns_xlink "http://www.w3.org/1999/xlink">
]>
<svg  
	 width="90.192" height="111.37" viewBox="0 0 90.192 111.37" style="overflow:visible;enable-background:new 0 0 90.192 111.37"
	 xml:space="preserve">
	<style type="text/css">
	
	</style>
	<g id="Layer_1">
		<g>
			<path style="fill:#DCDCDC;stroke:#000000;" d="M33.153,88.646v3.917c-1.083,0.417-1.75,0.5-1.667,1.583
				c0.083,1.083,0.917,2,1.667,2s0,3.5,0,3.5l-1.417,0.5l2.667,1.25l1.833-0.583l-0.5-1.417V88.729"/>
			<line style="fill:#DCDCDC;stroke:#000000;stroke-width:0.5;" x1="33.986" y1="98.479" x2="35.069" y2="98.479"/>
		</g>
		<g>
			<path style="fill:#DCDCDC;stroke:#000000;" d="M24.486,94.312v3.917c-1.083,0.417-1.75,0.5-1.667,1.583s0.917,2,1.667,2
				s0,3.5,0,3.5l-1.417,0.5l2.667,1.25l1.833-0.583l-0.5-1.417V94.396"/>
			<line style="fill:#DCDCDC;stroke:#000000;stroke-width:0.5;" x1="25.319" y1="104.146" x2="26.403" y2="104.146"/>
		</g>
		<polyline style="fill:none;stroke:#000000;" points="14.382,31 12.882,22 17.882,28 "/>
		<polyline style="fill:none;stroke:#000000;" points="22.882,25 22.382,19 27.882,24 "/>
		<g>
			<g>
				<defs>
					<path id="XMLID_5_" d="M21.61,95.434C2.788,84.74-0.279,65.464,0.729,56.766c0.427-3.687,1.562-13.479,8.545-21.996
						c2.142-2.613,8.662-10.565,20.991-14.028c10.203-2.866,20.422-1.714,30.374,3.423c-3.657-2.021-8.341-2.828-13.582-1.969
						c5.241-0.859,9.925-0.052,13.8,2.089c15.18,8.925,22.686,23.974,20.592,41.288C79.913,78.27,69.983,94.173,51.811,99.083
						C36.859,103.124,24.915,97.312,21.61,95.434z"/>
				</defs>
				<use xlink:href="#XMLID_5_"  style="fill:#DCDCDC;"/>
				<clipPath id="XMLID_7_">
					<use xlink:href="#XMLID_5_" />
				</clipPath>
				<g style="clip-path:url(#XMLID_7_);">
					<path style="fill:#D8D8D8;" d="M21.61,95.434C2.788,84.74-0.279,65.464,0.729,56.766c0.427-3.687,1.562-13.479,8.545-21.996
						c2.142-2.613,8.662-10.565,20.991-14.028c10.203-2.866,20.422-1.714,30.374,3.423c-3.657-2.021-8.341-2.828-13.582-1.969
						c5.241-0.859,9.925-0.052,13.8,2.089c15.18,8.925,22.686,23.974,20.592,41.288C79.913,78.27,69.983,94.173,51.811,99.083
						C36.859,103.124,24.915,97.312,21.61,95.434"/>
					<path style="fill:#D8D8D8;" d="M79.576,73.288c-0.365,1.036-1.124,3.193-2.818,6.292l-1.624,2.678
						c-0.649,0.904-1.496,2.125-2.186,2.999l-1.995,2.306c-0.813,0.809-1.887,1.899-2.737,2.669l-2.256,1.862
						c-1,0.712-2.334,1.663-3.369,2.324l-2.333,1.338c-1.267,0.62-2.973,1.414-4.273,1.959l-2.085,0.748
						c-2.437,0.727-3.092,0.923-6.12,1.497l-1.682,0.24c-0.535,0.054-1.248,0.134-1.783,0.177l-1.416,0.083
						c-0.427,0.01-0.996,0.031-1.422,0.034l-1.238-0.011c-0.366-0.015-0.855-0.029-1.222-0.049l-1.131-0.078
						c-0.334-0.032-0.78-0.071-1.114-0.107l-1.078-0.134l-1.069-0.162l-1.07-0.191c-0.322-0.066-0.754-0.147-1.074-0.222
						l-1.107-0.26c-0.339-0.09-0.792-0.205-1.13-0.3l-1.195-0.355c-0.375-0.124-0.875-0.284-1.248-0.415l-1.346-0.499
						c-0.438-0.181-1.024-0.415-1.458-0.604l-1.567-0.725c-0.546-0.282-1.279-0.65-1.818-0.946l-1.883-1.107
						c-2.225-1.477-2.753-1.827-4.888-3.583l-1.972-1.802c-0.963-1.004-2.226-2.365-3.13-3.422l-1.755-2.317
						c-0.667-1.025-1.559-2.391-2.173-3.448l-1.386-2.694c-0.447-1.058-1.061-2.463-1.458-3.541l-0.933-2.966
						c-0.253-1.091-0.614-2.542-0.816-3.645L0.79,63.758c-0.062-1.119-0.172-2.609-0.183-3.73l0.122-3.262l0.361-3.112l0.636-3.245
						c0.304-1.082,0.681-2.534,1.034-3.601l1.149-3.001c0.477-1,1.087-2.346,1.609-3.323l1.6-2.696
						c0.64-0.91,1.475-2.138,2.156-3.017l1.976-2.328c0.804-0.815,1.864-1.913,2.705-2.689l2.245-1.889
						c0.988-0.718,2.305-1.677,3.328-2.345l2.335-1.369c1.248-0.625,2.927-1.429,4.208-1.981l2.094-0.776
						c1.864-0.577,3.791-1.173,6.521-1.631l1.681-0.239c0.535-0.055,1.248-0.135,1.784-0.177l1.416-0.083
						c0.427-0.011,0.996-0.031,1.423-0.034l1.238,0.012c0.367,0.015,0.855,0.028,1.222,0.049l1.131,0.078
						c0.334,0.032,0.78,0.071,1.114,0.108l1.078,0.134l1.069,0.162l1.071,0.191c0.322,0.066,0.752,0.153,1.074,0.222l1.107,0.26
						c0.339,0.09,0.792,0.205,1.13,0.3l1.196,0.355l0.243,0.077l-1.486-0.376c-4.168-0.606-6.538,0.448-6.544,0.461
						c-0.053,0.112,0.224,0.272,0.163,0.38c-0.125,0.217-0.738,0.096-0.758,0.345c-0.01,0.128,0.272,0.22,0.253,0.348
						c-0.159,1.076-1.375,0.779-1.86,1.433c-0.509,0.687-0.602,1.537-0.908,2.303c-0.978,2.448-1.468,3.676-0.7,12.088
						c0.5,5.481,4.612,15.18,6.596,18.424C61.754,78.393,73.29,79.835,77.789,75.482c0.594-0.574,1.722-1.966,2.608-4.833
						C80.15,71.44,79.851,72.505,79.576,73.288"/>
					<path style="fill:#D6D6D6;" d="M72.948,85.255c-2.552,2.949-2.76,3.189-4.732,4.975l-2.256,1.862
						c-1,0.712-2.334,1.663-3.369,2.324l-2.333,1.338c-1.267,0.62-2.973,1.414-4.273,1.959l-2.085,0.748
						c-2.437,0.727-3.092,0.923-6.12,1.497l-1.682,0.24c-0.535,0.054-1.248,0.134-1.783,0.177l-1.416,0.083
						c-0.427,0.01-0.996,0.031-1.422,0.034l-1.238-0.011c-0.366-0.015-0.855-0.029-1.222-0.049l-1.131-0.078
						c-0.334-0.032-0.78-0.071-1.114-0.107l-1.078-0.134l-1.069-0.162l-1.07-0.191c-0.322-0.066-0.754-0.147-1.074-0.222
						l-1.107-0.26c-0.339-0.09-0.792-0.205-1.13-0.3l-1.195-0.355c-0.375-0.124-0.875-0.284-1.248-0.415l-1.346-0.499
						c-0.438-0.181-1.024-0.415-1.458-0.604l-1.567-0.725c-0.546-0.282-1.279-0.65-1.818-0.946l-1.883-1.107
						c-2.225-1.477-2.753-1.827-4.888-3.583l-1.972-1.802c-0.963-1.004-2.226-2.365-3.13-3.422l-1.755-2.317
						c-0.667-1.025-1.559-2.391-2.173-3.448l-1.386-2.694c-0.447-1.058-1.061-2.463-1.458-3.541l-0.933-2.966
						c-0.253-1.091-0.614-2.542-0.816-3.645L0.79,63.758c-0.062-1.119-0.172-2.609-0.183-3.73l0.122-3.262l0.361-3.112l0.636-3.245
						c0.304-1.082,0.681-2.534,1.034-3.601l1.149-3.001c0.477-1,1.087-2.346,1.609-3.323l1.6-2.696
						c0.64-0.91,1.475-2.138,2.156-3.017l1.976-2.328c0.804-0.815,1.864-1.913,2.705-2.689l2.245-1.889
						c0.988-0.718,2.305-1.677,3.328-2.345l2.335-1.369c1.248-0.625,2.927-1.429,4.208-1.981l2.094-0.776
						c1.864-0.577,3.791-1.173,6.521-1.631l1.681-0.239c0.535-0.055,1.248-0.135,1.784-0.177l1.416-0.083
						c0.427-0.011,0.996-0.031,1.423-0.034c0.238,0.001,0.555,0.002,0.792,0.003c-0.142,0-0.331,0.002-0.473,0.003
						c-21.066,1.002-4.013,46.793,13.962,60.876c5.125,4.016,14.595,9.52,20.429,1.265l-1.749,2.575L72.948,85.255"/>
					<path style="fill:#D9D9D9;" d="M64.412,26.494c0.807,0.595,1.882,1.39,2.664,2.018l1.98,1.745
						c0.999,1.003,2.306,2.367,3.245,3.426l1.784,2.277c0.689,1.022,1.611,2.385,2.249,3.44l1.425,2.664
						c0.466,1.054,1.104,2.454,1.52,3.53l0.979,2.944c0.271,1.089,0.655,2.535,0.875,3.635l0.476,3.139l0.228,3.147l-0.045,2.23
						c-1.896,14.792-15.384,7.547-23.473-3.737c-2.413-3.367-8.633-14.301-8.439-24.336c0.009-0.486,0.469-1.034,0.635-1.49
						c0.752-2.064,0.401-4.513,2.175-6.22c1.965-1.891,4.252-1.43,6.269-1.023C59.866,24.065,61.384,24.371,64.412,26.494"/>
					<path style="fill:#DBDBDB;" d="M75.834,38.709c0.787,1.267,4.712,7.915,4.664,14.337c-0.005,0.659-0.183,6.432-4.82,6.285
						c-0.031-0.001-3.971-0.817-6.991-3.413l-6.332-8.04l-3.04-8.085c-0.089-0.446-0.06-1.06-0.066-1.514
						c-0.015-1.107,0.372-2.566,0.364-3.674c-0.005-0.767-0.566-1.773-0.405-2.522c0.011-0.05,1.144-4.963,7.284-2.516
						C71.126,31.413,75.087,37.506,75.834,38.709"/>
				</g>
				<path style="clip-path:url(#XMLID_7_);" d="M40.521,57.703c-0.506,2.294-1.827,4.885-3.636,5.503
					c-0.993,0.339-2.188-0.858-2.698-1.37c-1.822-1.826-2.013-2.017-3.408-0.133c-0.892,1.204-1.734,2.34-2.908,2.636
					c-1.093,0.275-4.135-0.293-4.583-0.749c-1.119-1.14,0.832-8.02,2.693-10.603c2.846-3.95,7.865-4.118,7.914-4.117
					C33.98,48.872,42.386,49.246,40.521,57.703"/>
				<path style="clip-path:url(#XMLID_7_);" d="M51.659,77.241c-1.491,4.396-7.279,4.823-8.72,2.276
					c-0.779-1.377-0.158-3.387,1.848-5.972c0.458-0.59,1.85-2.383,4.111-1.708C50.647,72.358,52.58,74.526,51.659,77.241"/>
				<path style="clip-path:url(#XMLID_7_);" d="M14.486,70.046c-0.018,0.074-1.959,7.153-5.995,0.938
					c-1.601-2.464-1.601-2.464-1.958-2.426c-0.309,0.032-1.237,1.398-1.504,2.119c-0.231,0.625-0.231,0.625-0.483,0.723
					c-0.729-0.467-2.709-3.132-2.258-9.046c0.254-3.324,1.811-6.376,2.029-9.708c0.057-0.878-0.959-1.339-0.867-2.23
					c0.028-0.265,0.108-0.614,0.176-0.872c0.067-0.255,0.715-2.502,2.817-2.977c2.391-0.54,4.23,1.448,4.427,2.023
					c1.279,3.734-1.991,6.987-1.127,10.678c0.597,2.549,2.245,4.746,3.447,6.351c0.997,1.329,1.284,2.348,1.367,2.836
					C14.636,68.925,14.598,69.581,14.486,70.046"/>
				<path style="clip-path:url(#XMLID_7_);" d="M26.573,83.925c-0.352,3.811-4.678,1.647-6.336-0.253
					c-2.366-2.71-1.784-6.451,0.973-6.254C22.896,77.539,26.967,79.652,26.573,83.925"/>
				<path style="clip-path:url(#XMLID_7_);" d="M69.575,74.016c-0.068,0.271-1.697,6.645-5.198,7.065
					c-0.632-0.837-0.699-1.103-0.358-5.223c0.425-5.139,0.462-7.506,0.139-8.735c-0.386-1.465-1.023-2.105-2.286-3.124
					c-1.391-1.122-2.968-2.394-3.69-5.081c-0.292-1.085-0.615-2.556-0.749-3.671c-0.338-2.814,2.04-6.672,3.042-6.672
					c0.045,0,5.187,1.755,7.457,8.101C67.966,56.773,71.427,66.593,69.575,74.016"/>
			</g>
		</g>
		<g>
			<path style="fill:none;stroke:#000000;stroke-width:3;" d="M71.798,46.875c3,0.5,7.5-2.5,9.5,1c4,7.5-0.5,15.5,3,22.5"/>
			<polyline style="fill:none;stroke:#000000;" points="82.548,73.875 83.048,69.875 86.048,73.375 "/>
			<polyline style="fill:none;stroke:#000000;" points="90.048,70.375 85.048,68.875 88.048,71.875 "/>
		</g>
		<line style="fill:#DCDCDC;stroke:#000000;stroke-width:0.5;" x1="40.715" y1="8.444" x2="40.715" y2="14.778"/>
		<line style="fill:#DCDCDC;stroke:#000000;stroke-width:0.5;" x1="82.382" y1="8.611" x2="82.382" y2="14.611"/>
		<g>
			<line style="fill:#DCDCDC;stroke:#000000;stroke-width:0.5;" x1="43.272" y1="11.611" x2="79.825" y2="11.611"/>
			<path d="M82.605,11.611c-1.308,0.485-2.932,1.314-3.938,2.19l0.792-2.19L78.667,9.42C79.674,10.297,81.297,11.126,82.605,11.611z
				"/>
			<path d="M40.491,11.611c1.309-0.485,2.932-1.314,3.938-2.191l-0.792,2.191l0.792,2.19C43.423,12.925,41.8,12.097,40.491,11.611z"
				/>
		</g>
		<g>
			<text transform="matrix(1 0 0 1 50.3818 9)"><tspan x="0" y="0" style="font-family:Bitstream Vera Sans; font-size:7.650000;">1 m</tspan></text>
		</g>
		<circle style="fill:none;stroke:#000000;" cx="41.374" cy="59.516" r="40.873"/> 
		<g>
			<path style="fill:#DCDCDC;stroke:#000000;" d="M43.882,98.083V102c-1.083,0.417-1.75,0.5-1.667,1.583
				c0.083,1.083,0.917,2,1.667,2s0,3.5,0,3.5l-1.417,0.5l2.667,1.25l1.833-0.583l-0.5-1.417V98.167"/>
			<line style="fill:#DCDCDC;stroke:#000000;stroke-width:0.5;" x1="44.715" y1="107.917" x2="45.798" y2="107.917"/>
		</g>
		<g>
			<path style="fill:#DCDCDC;stroke:#000000;" d="M53.84,95.646v3.917c-1.083,0.417-1.75,0.5-1.667,1.583
				c0.083,1.083,0.917,2,1.667,2s0,3.5,0,3.5l-1.417,0.5l2.667,1.25l1.833-0.583l-0.5-1.417V95.729"/>
			<line style="fill:#DCDCDC;stroke:#000000;stroke-width:0.5;" x1="54.673" y1="105.479" x2="55.757" y2="105.479"/>
		</g>
	</g>
</svg>
