<?xml version="1.0" encoding="iso-8859-1"?>
<!-- Generator: Adobe Illustrator 11 Build 196, SVG Export Plug-In . SVG Version: 6.0.0 Build 78)  -->
<!DOCTYPE svg PUBLIC "-//W3C//DTD SVG 1.0//EN"    "http://www.w3.org/TR/2001/REC-SVG-20010904/DTD/svg10.dtd" [
	<!ENTITY ns_flows "http://ns.adobe.com/Flows/1.0/">
	<!ENTITY ns_svg "http://www.w3.org/2000/svg">
	<!ENTITY ns_xlink "http://www.w3.org/1999/xlink">
]>
<svg  
	 width="143.808" height="456.61" viewBox="0 0 143.808 456.61" style="overflow:visible;enable-background:new 0 0 143.808 456.61"
	 xml:space="preserve">
	<style type="text/css">
	
	</style>
	<g id="Layer_1">
		<g>
			<g>
				<path style="fill:#B4B4B4;stroke:#000000;" d="M78.488,1.959c-45.576,0-52.733,35.252-46.93,58.9
					c1.749,7.125-0.113,6.234-1.354,7.125l0.395,2.138c2.369-0.356,9.814,0.534,10.153,9.084c0.338,8.55,0.61,15.707-6.261,17.99
					c-1.072,0.356-0.979,1.154,0.338,1.959c1.749,1.069,3.088,4.342,1.523,5.106c-10.097,4.928-39.089,72.021,42.135,72.021
					s52.232-67.094,42.135-72.021c-1.566-0.764-0.226-4.038,1.523-5.106c1.317-0.805,1.41-1.603,0.338-1.959
					c-6.871-2.284-6.6-9.44-6.261-17.99c0.338-8.55,7.784-9.441,10.153-9.084l0.395-2.138c-1.241-0.891-3.102,0-1.354-7.125
					C131.221,37.211,124.063,1.959,78.488,1.959z"/>
				
					<radialGradient id="XMLID_7_" cx="154.0601" cy="-58.4414" r="29.4109" fx="154.0601" fy="-58.4414" gradientTransform="matrix(0.7125 0 0 0.7125 -38.2175 68.2633)" gradientUnits="userSpaceOnUse">
					<stop  offset="0" style="stop-color:#EDEDED"/>
					<stop  offset="0.0716" style="stop-color:#EAEAEA"/>
					<stop  offset="0.2704" style="stop-color:#E2E2E2"/>
					<stop  offset="0.5225" style="stop-color:#DEDEDE"/>
					<stop  offset="1" style="stop-color:#DCDCDC"/>
					<a:midPointStop  offset="0" style="stop-color:#EDEDED"/>
					<a:midPointStop  offset="0.18" style="stop-color:#EDEDED"/>
					<a:midPointStop  offset="1" style="stop-color:#DCDCDC"/>
				</radialGradient>
				<path style="fill:url(#XMLID_7_);" d="M65.484,0c-45.576,0-52.733,35.252-46.93,58.9c1.749,7.125-0.113,6.234-1.354,7.125
					l0.395,2.137c2.369-0.356,9.814,0.534,10.153,9.084c0.338,8.55,0.61,15.707-6.261,17.991c-1.071,0.356-0.979,1.154,0.339,1.959
					c1.748,1.069,3.088,4.342,1.522,5.106c-10.096,4.928-39.089,72.021,42.135,72.021c81.225,0,52.232-67.093,42.135-72.021
					c-1.565-0.764-0.226-4.038,1.523-5.106c1.317-0.805,1.41-1.603,0.338-1.959c-6.871-2.284-6.599-9.441-6.261-17.991
					c0.338-8.55,7.784-9.441,10.153-9.084l0.395-2.137c-1.241-0.891-3.103,0-1.354-7.125C118.218,35.252,111.061,0,65.484,0z"/>
				<path d="M86.571,80.52c5.832-3.024,7.56,0.432,6.696,8.856c-0.864,8.424,1.896,11.441,3.625,10.793s1.551-1.059,1.188-2.376
					c-0.864-3.132-2.916,0.432-3.193-0.425c-0.5-1.549,0.324,1.522,0.324-7.56c0-2.478-0.512-9.436-2.808-10.584
					c-2.376-1.188-7.245,0.011-7.56,2.376c-0.216,1.62,0.501,2.479,1.62,2.16c0.756-0.216,1.512-0.756,1.512-1.404
					C87.975,79.98,86.571,80.52,86.571,80.52z"/>
				<path d="M44.463,80.52c-5.832-3.024-7.56,0.432-6.696,8.856c0.864,8.424-1.897,11.441-3.625,10.793s-1.551-1.059-1.188-2.376
					c0.864-3.132,2.916,0.432,3.193-0.425c0.5-1.549-0.324,1.522-0.324-7.56c0-2.479,0.512-9.437,2.808-10.584
					c2.376-1.188,7.245,0.011,7.56,2.376c0.216,1.62-0.501,2.479-1.62,2.16c-0.756-0.216-1.512-0.756-1.512-1.404
					C43.06,79.979,44.463,80.52,44.463,80.52z"/>
				
					<linearGradient id="XMLID_8_" gradientUnits="userSpaceOnUse" x1="174.0283" y1="111.7476" x2="191.0284" y2="135.7475" gradientTransform="matrix(0.75 0 0 0.75 -44.0277 67.207)">
					<stop  offset="0" style="stop-color:#DCDCDC"/>
					<stop  offset="1" style="stop-color:#C5C5C5"/>
					<a:midPointStop  offset="0" style="stop-color:#DCDCDC"/>
					<a:midPointStop  offset="0.5" style="stop-color:#DCDCDC"/>
					<a:midPointStop  offset="1" style="stop-color:#C5C5C5"/>
				</linearGradient>
				<polygon style="fill:url(#XMLID_8_);" points="114.518,111.126 118.518,120.376 120.518,131.626 119.268,146.126 
					115.018,155.376 107.518,162.876 99.768,167.626 88.018,171.876 79.018,173.376 67.518,174.126 54.768,173.626 45.518,172.626 
					63.768,163.626 89.518,142.876 107.518,126.876 "/>
				<path style="fill:none;stroke:#000000;" d="M66.234,0.979c-45.576,0-52.733,35.252-46.93,58.9
					c1.749,7.125-0.113,6.234-1.354,7.125l0.395,2.137c2.369-0.356,9.814,0.535,10.153,9.084s0.61,15.707-6.261,17.991
					c-1.071,0.356-0.979,1.154,0.339,1.959c1.748,1.069,3.088,4.342,1.522,5.106c-10.096,4.928-39.089,72.022,42.135,72.022
					c81.225,0,52.232-67.094,42.135-72.022c-1.565-0.764-0.226-4.037,1.523-5.106c1.317-0.805,1.41-1.603,0.338-1.959
					c-6.871-2.284-6.599-9.441-6.261-17.991s7.784-9.44,10.153-9.084l0.395-2.137c-1.241-0.891-3.103,0-1.354-7.125
					C118.968,36.231,111.811,0.979,66.234,0.979z"/>
			</g>
			<rect x="37.486" y="121.935" style="fill:none;stroke:#000000;" width="15" height="15"/> 
			<rect x="6.736" y="141.481" style="fill:none;stroke:#000000;" width="15" height="15"/> 
		</g>
		<g>
			<g>
				<path style="fill:#B4B4B4;stroke:#000000;" d="M77.156,190.099c-34.182,0-39.55,26.439-35.197,44.175
					c1.311,5.344-0.085,4.676-1.016,5.344l0.296,1.603c1.777-0.267,7.361,0.401,7.615,6.813s0.457,11.78-4.696,13.493
					c-0.804,0.268-0.734,0.866,0.254,1.47c1.312,0.801,2.316,3.256,1.142,3.83c-7.572,3.696-29.317,54.016,31.602,54.016
					c60.918,0,39.174-50.32,31.601-54.016c-1.174-0.573-0.169-3.028,1.143-3.83c0.987-0.604,1.058-1.202,0.253-1.47
					c-5.153-1.713-4.949-7.08-4.696-13.493c0.254-6.413,5.838-7.081,7.615-6.813l0.296-1.603c-0.931-0.668-2.327,0-1.015-5.344
					C116.706,216.538,111.337,190.099,77.156,190.099z"/>
				
					<radialGradient id="XMLID_9_" cx="154.0601" cy="-58.4414" r="29.4109" fx="154.0601" fy="-58.4414" gradientTransform="matrix(0.5344 0 0 0.5344 -10.2697 239.931)" gradientUnits="userSpaceOnUse">
					<stop  offset="0" style="stop-color:#EDEDED"/>
					<stop  offset="0.0716" style="stop-color:#EAEAEA"/>
					<stop  offset="0.2704" style="stop-color:#E2E2E2"/>
					<stop  offset="0.5225" style="stop-color:#DEDEDE"/>
					<stop  offset="1" style="stop-color:#DCDCDC"/>
					<a:midPointStop  offset="0" style="stop-color:#EDEDED"/>
					<a:midPointStop  offset="0.18" style="stop-color:#EDEDED"/>
					<a:midPointStop  offset="1" style="stop-color:#DCDCDC"/>
				</radialGradient>
				<path style="fill:url(#XMLID_9_);" d="M67.403,188.629c-34.182,0-39.55,26.439-35.197,44.175
					c1.312,5.343-0.084,4.675-1.015,5.343l0.296,1.604c1.777-0.268,7.361,0.4,7.615,6.813s0.458,11.78-4.696,13.493
					c-0.804,0.267-0.734,0.866,0.254,1.469c1.312,0.802,2.316,3.257,1.142,3.83c-7.572,3.696-29.317,54.016,31.602,54.016
					s39.174-50.32,31.602-54.016c-1.174-0.573-0.169-3.028,1.142-3.83c0.988-0.604,1.058-1.202,0.254-1.469
					c-5.153-1.713-4.95-7.081-4.696-13.493s5.838-7.081,7.615-6.813l0.296-1.604c-0.931-0.668-2.327,0-1.015-5.343
					C106.953,215.068,101.585,188.629,67.403,188.629z"/>
				<path d="M83.218,249.019c4.374-2.268,5.67,0.324,5.022,6.642c-0.648,6.318,1.423,8.581,2.719,8.095s1.164-0.794,0.891-1.782
					c-0.648-2.349-2.187,0.324-2.395-0.319c-0.375-1.162,0.243,1.142,0.243-5.67c0-1.858-0.384-7.077-2.106-7.938
					c-1.782-0.891-5.434,0.008-5.67,1.782c-0.162,1.215,0.376,1.86,1.215,1.62c0.567-0.162,1.134-0.567,1.134-1.053
					C84.271,248.614,83.218,249.019,83.218,249.019z"/>
				<path d="M51.637,249.019c-4.374-2.268-5.67,0.324-5.022,6.642c0.648,6.318-1.422,8.581-2.718,8.095
					c-1.296-0.486-1.164-0.794-0.891-1.782c0.648-2.349,2.187,0.324,2.395-0.319c0.375-1.162-0.243,1.142-0.243-5.67
					c0-1.859,0.384-7.077,2.106-7.938c1.782-0.891,5.434,0.008,5.67,1.782c0.162,1.215-0.376,1.859-1.215,1.62
					c-0.567-0.162-1.134-0.567-1.134-1.053C50.584,248.614,51.637,249.019,51.637,249.019z"/>
				
					<linearGradient id="XMLID_10_" gradientUnits="userSpaceOnUse" x1="174.0273" y1="111.748" x2="191.0274" y2="135.748" gradientTransform="matrix(0.5625 0 0 0.5625 -14.731 239.0344)">
					<stop  offset="0" style="stop-color:#DCDCDC"/>
					<stop  offset="1" style="stop-color:#C5C5C5"/>
					<a:midPointStop  offset="0" style="stop-color:#DCDCDC"/>
					<a:midPointStop  offset="0.5" style="stop-color:#DCDCDC"/>
					<a:midPointStop  offset="1" style="stop-color:#C5C5C5"/>
				</linearGradient>
				<polygon style="fill:url(#XMLID_10_);" points="104.178,271.974 107.178,278.911 108.678,287.349 107.74,298.224 
					104.553,305.161 98.928,310.786 93.115,314.349 84.303,317.536 77.553,318.661 68.928,319.224 59.365,318.849 52.428,318.099 
					66.115,311.349 85.428,295.786 98.928,283.786 "/>
				<path style="fill:none;stroke:#000000;" d="M67.966,189.364c-34.182,0-39.55,26.439-35.197,44.175
					c1.312,5.344-0.084,4.676-1.016,5.344l0.296,1.603c1.777-0.267,7.361,0.401,7.615,6.813s0.458,11.78-4.696,13.493
					c-0.804,0.267-0.734,0.866,0.254,1.469c1.312,0.802,2.316,3.257,1.142,3.83c-7.572,3.696-29.317,54.017,31.602,54.017
					s39.174-50.32,31.602-54.017c-1.174-0.573-0.169-3.028,1.142-3.83c0.988-0.604,1.058-1.202,0.254-1.469
					c-5.153-1.713-4.95-7.081-4.696-13.493s5.838-7.081,7.615-6.813l0.296-1.603c-0.931-0.668-2.327,0-1.015-5.344
					C107.516,215.803,102.148,189.364,67.966,189.364z"/>
			</g>
			<rect x="46.442" y="277.935" style="fill:none;stroke:#000000;" width="11.25" height="11.25"/> 
			<rect x="23.942" y="296.685" style="fill:none;stroke:#000000;" width="11.25" height="11.25"/> 
		</g>
		<g>
			<g>
				<path style="fill:#B4B4B4;stroke:#000000;" d="M75.042,366.254c-22.788,0-26.366,17.625-23.465,29.449
					c0.875,3.562-0.056,3.117-0.677,3.562l0.198,1.069c1.184-0.178,4.907,0.267,5.076,4.542c0.169,4.275,0.305,7.853-3.13,8.995
					c-0.536,0.178-0.489,0.577,0.169,0.979c0.874,0.535,1.544,2.171,0.761,2.553c-5.048,2.464-19.544,36.01,21.067,36.01
					c40.611,0,26.115-33.546,21.067-36.01c-0.783-0.382-0.113-2.019,0.761-2.553c0.659-0.402,0.705-0.801,0.169-0.979
					c-3.436-1.142-3.3-4.72-3.131-8.995c0.169-4.275,3.892-4.72,5.077-4.542l0.197-1.069c-0.62-0.445-1.551,0-0.677-3.562
					C101.409,383.88,97.83,366.254,75.042,366.254z"/>
				
					<radialGradient id="XMLID_11_" cx="154.0601" cy="-58.4414" r="29.4109" fx="154.0601" fy="-58.4414" gradientTransform="matrix(0.3562 0 0 0.3562 16.5067 399.2199)" gradientUnits="userSpaceOnUse">
					<stop  offset="0" style="stop-color:#EDEDED"/>
					<stop  offset="0.0716" style="stop-color:#EAEAEA"/>
					<stop  offset="0.2704" style="stop-color:#E2E2E2"/>
					<stop  offset="0.5225" style="stop-color:#DEDEDE"/>
					<stop  offset="1" style="stop-color:#DCDCDC"/>
					<a:midPointStop  offset="0" style="stop-color:#EDEDED"/>
					<a:midPointStop  offset="0.18" style="stop-color:#EDEDED"/>
					<a:midPointStop  offset="1" style="stop-color:#DCDCDC"/>
				</radialGradient>
				<path style="fill:url(#XMLID_11_);" d="M68.541,365.274c-22.788,0-26.366,17.626-23.464,29.45
					c0.874,3.562-0.057,3.117-0.677,3.562l0.198,1.068c1.185-0.178,4.907,0.268,5.076,4.542c0.169,4.275,0.305,7.853-3.13,8.995
					c-0.536,0.178-0.489,0.577,0.169,0.979c0.874,0.534,1.544,2.171,0.761,2.553c-5.048,2.464-19.544,36.01,21.067,36.01
					c40.611,0,26.115-33.546,21.067-36.01c-0.783-0.382-0.113-2.019,0.761-2.553c0.659-0.402,0.705-0.801,0.169-0.979
					c-3.436-1.142-3.3-4.72-3.13-8.995c0.169-4.275,3.892-4.72,5.076-4.542l0.197-1.068c-0.62-0.445-1.551,0-0.677-3.562
					C94.907,382.9,91.329,365.274,68.541,365.274z"/>
				<path d="M79.084,405.534c2.916-1.512,3.78,0.216,3.348,4.428c-0.432,4.212,0.948,5.721,1.812,5.397
					c0.864-0.324,0.775-0.53,0.594-1.188c-0.432-1.566-1.458,0.216-1.596-0.213c-0.25-0.774,0.162,0.761,0.162-3.78
					c0-1.239-0.256-4.718-1.404-5.292c-1.188-0.594-3.622,0.005-3.78,1.188c-0.108,0.81,0.25,1.24,0.81,1.08
					c0.378-0.108,0.756-0.378,0.756-0.702C79.786,405.264,79.084,405.534,79.084,405.534z"/>
				<path d="M58.031,405.534c-2.916-1.512-3.78,0.216-3.348,4.428s-0.948,5.721-1.812,5.396c-0.864-0.324-0.775-0.529-0.594-1.188
					c0.432-1.566,1.458,0.216,1.596-0.212c0.25-0.774-0.162,0.761-0.162-3.78c0-1.239,0.256-4.718,1.404-5.292
					c1.188-0.594,3.622,0.006,3.78,1.188c0.108,0.81-0.251,1.24-0.81,1.08c-0.378-0.108-0.756-0.378-0.756-0.702
					C57.329,405.264,58.031,405.534,58.031,405.534z"/>
				
					<linearGradient id="XMLID_12_" gradientUnits="userSpaceOnUse" x1="174.0156" y1="111.7568" x2="191.0157" y2="135.7568" gradientTransform="matrix(0.375 0 0 0.375 13.8091 398.9017)">
					<stop  offset="0" style="stop-color:#DCDCDC"/>
					<stop  offset="1" style="stop-color:#C5C5C5"/>
					<a:midPointStop  offset="0" style="stop-color:#DCDCDC"/>
					<a:midPointStop  offset="0.5" style="stop-color:#DCDCDC"/>
					<a:midPointStop  offset="1" style="stop-color:#C5C5C5"/>
				</linearGradient>
				<polygon style="fill:url(#XMLID_12_);" points="93.057,420.837 95.057,425.462 96.057,431.087 95.432,438.336 93.307,442.961 
					89.557,446.711 85.682,449.086 79.807,451.211 75.307,451.961 69.557,452.336 63.183,452.086 58.558,451.586 67.682,447.086 
					80.557,436.712 89.557,428.712 "/>
				<path style="fill:none;stroke:#000000;" d="M68.916,365.765c-22.788,0-26.366,17.625-23.464,29.449
					c0.874,3.562-0.057,3.117-0.677,3.562l0.198,1.069c1.184-0.178,4.907,0.267,5.076,4.542c0.169,4.275,0.305,7.853-3.13,8.995
					c-0.536,0.178-0.489,0.577,0.169,0.979c0.874,0.535,1.544,2.171,0.761,2.553c-5.048,2.464-19.544,36.01,21.067,36.01
					c40.611,0,26.115-33.546,21.067-36.01c-0.782-0.382-0.113-2.019,0.762-2.553c0.659-0.402,0.705-0.801,0.169-0.979
					c-3.436-1.142-3.3-4.72-3.13-8.995c0.169-4.275,3.892-4.72,5.076-4.542l0.197-1.069c-0.62-0.445-1.551,0-0.677-3.562
					C95.282,383.39,91.704,365.765,68.916,365.765z"/>
			</g>
			<rect x="54.93" y="426.497" style="fill:none;stroke:#000000;" width="7.5" height="7.5"/> 
			<rect x="39.93" y="439.997" style="fill:none;stroke:#000000;" width="7.5" height="7.5"/> 
		</g>
		<g>
			<text transform="matrix(1 0 0 1 47.2031 53.0596)"><tspan x="0" y="0" style="font-family:Bitstream Vera Sans; font-size:9.350000;">full size</tspan></text>
		</g>
		<g>
			<text transform="matrix(1 0 0 1 45.5781 237.9346)"><tspan x="0" y="0" style="font-family:Bitstream Vera Sans; font-size:9.350000;">3/4 size</tspan></text>
		</g>
		<g>
			<text transform="matrix(1 0 0 1 48.0781 393.4346)"><tspan x="0" y="0" style="font-family:Bitstream Vera Sans; font-size:9.350000;">half size</tspan></text>
		</g>
		<line style="fill:none;stroke:#000000;" x1="0.498" y1="47.559" x2="42.498" y2="456.559"/>
		<line style="fill:none;stroke:#000000;" x1="143.31" y1="45.309" x2="101.31" y2="454.309"/>
	</g>
</svg>
