<?xml version="1.0" encoding="iso-8859-1"?>
<!-- Generator: Adobe Illustrator 11 Build 196, SVG Export Plug-In . SVG Version: 6.0.0 Build 78)  -->
<!DOCTYPE svg PUBLIC "-//W3C//DTD SVG 1.0//EN"    "http://www.w3.org/TR/2001/REC-SVG-20010904/DTD/svg10.dtd" [
	<!ENTITY ns_flows "http://ns.adobe.com/Flows/1.0/">
	<!ENTITY ns_svg "http://www.w3.org/2000/svg">
	<!ENTITY ns_xlink "http://www.w3.org/1999/xlink">
]>
<svg  
	 width="367.936" height="118.908" viewBox="0 0 367.936 118.908"
	 style="overflow:visible;enable-background:new 0 0 367.936 118.908" xml:space="preserve">
	<style type="text/css">
	
	</style>
	<g id="Layer_1">
		<g>
			<line style="fill:none;stroke:#000000;" x1="0" y1="71.47" x2="14.28" y2="71.47"/>
			<g>
				<text transform="matrix(1 0 0 1 0.9985 66.519)"><tspan x="0" y="0" style="font-family:Bitstream Vera Sans; font-size:8.500000;">1 ft</tspan></text>
			</g>
			<line style="stroke:#000000;" x1="27.566" y1="71.789" x2="72.787" y2="71.789"/>
			<g>
				<text transform="matrix(1 0 0 1 28.7563 67.1992)"><tspan x="0" y="0" style="font-family:Bitstream Vera Sans; font-size:8.500000;">1 yd = 3 ft</tspan></text>
			</g>
		</g>
		<g>
			<rect x="99.217" y="68.785" style="fill:none;stroke:#000000;" width="15.3" height="15.3"/> 
			<g>
				<text transform="matrix(1 0 0 1 97.772 95.4751)"><tspan x="0" y="0" style="font-family:Bitstream Vera Sans; font-size:8.500000;">1 ft</tspan></text>
				<text transform="matrix(1 0 0 1 111.6685 94.4751)"><tspan x="0" y="0" style="font-family:Bitstream Vera Sans; font-size:8.500000;">2</tspan></text>
			</g>
			<g>
				<text transform="matrix(1 0 0 1 151.79 95.4751)"><tspan x="0" y="0" style="font-family:Bitstream Vera Sans; font-size:8.500000;">1 yd</tspan></text>
				<text transform="matrix(1 0 0 1 170.6914 94.4751)"><tspan x="0" y="0" style="font-family:Bitstream Vera Sans; font-size:8.500000;">2</tspan></text>
				<text transform="matrix(1 0 0 1 176.2529 95.4751)"><tspan x="0" y="0" style="font-family:Bitstream Vera Sans; font-size:8.500000;"> = 9 ft</tspan></text>
				<text transform="matrix(1 0 0 1 201.5459 94.4751)"><tspan x="0" y="0" style="font-family:Bitstream Vera Sans; font-size:8.500000;">2</tspan></text>
			</g>
			<g>
				<rect x="152.98" y="38.184" style="fill:none;stroke:#000000;" width="15.3" height="15.3"/> 
				<rect x="168.28" y="38.184" style="fill:none;stroke:#000000;" width="15.3" height="15.3"/> 
				<rect x="183.581" y="38.184" style="fill:none;stroke:#000000;" width="15.3" height="15.3"/> 
				<rect x="152.98" y="53.484" style="fill:none;stroke:#000000;" width="15.3" height="15.3"/> 
				<rect x="168.28" y="53.484" style="fill:none;stroke:#000000;" width="15.3" height="15.3"/> 
				<rect x="183.581" y="53.484" style="fill:none;stroke:#000000;" width="15.3" height="15.3"/> 
				<rect x="152.98" y="68.785" style="fill:none;stroke:#000000;" width="15.3" height="15.3"/> 
				<rect x="168.28" y="68.785" style="fill:none;stroke:#000000;" width="15.3" height="15.3"/> 
				<rect x="183.581" y="68.785" style="fill:none;stroke:#000000;" width="15.3" height="15.3"/> 
			</g>
		</g>
		<g>
			
				<linearGradient id="XMLID_5_" gradientUnits="userSpaceOnUse" x1="161.6567" y1="248.0796" x2="239.4066" y2="113.4096" gradientTransform="matrix(1 0 0 1 136.655 -110.2988)">
				<stop  offset="0.01" style="stop-color:#D5D5D5"/>
				<stop  offset="1" style="stop-color:#FFFFFF"/>
				<a:midPointStop  offset="0.01" style="stop-color:#D5D5D5"/>
				<a:midPointStop  offset="0.5" style="stop-color:#D5D5D5"/>
				<a:midPointStop  offset="1" style="stop-color:#FFFFFF"/>
			</linearGradient>
			<polygon style="fill:url(#XMLID_5_);" points="367.436,62.97 344.17,49.611 315.355,49.906 361.256,76.407 367.436,76.407 "/>
			<g>
				<polygon style="fill:#F0F0F0;stroke:#000000;stroke-linejoin:round;" points="319.455,16.984 334.755,8.15 321.505,0.5 
					306.205,9.334 "/>
				<polygon style="fill:#F0F0F0;stroke:#000000;stroke-linejoin:round;" points="332.706,24.634 348.006,15.8 334.755,8.15 
					319.455,16.984 "/>
				<polygon style="fill:#F0F0F0;stroke:#000000;stroke-linejoin:round;" points="345.956,32.284 361.256,23.451 348.006,15.8 
					332.706,24.634 "/>
				<polygon style="fill:#F0F0F0;stroke:#000000;stroke-linejoin:round;" points="304.154,25.817 319.455,16.984 306.205,9.334 
					290.904,18.167 "/>
				<polygon style="fill:#F0F0F0;stroke:#000000;stroke-linejoin:round;" points="317.405,33.468 332.706,24.634 319.455,16.984 
					304.154,25.817 "/>
				<polygon style="fill:#F0F0F0;stroke:#000000;stroke-linejoin:round;" points="330.655,41.118 345.956,32.284 332.706,24.634 
					317.405,33.468 "/>
				<polygon style="fill:#F0F0F0;stroke:#000000;stroke-linejoin:round;" points="288.854,34.651 304.154,25.817 290.904,18.167 
					275.604,27.001 "/>
				<polygon style="fill:#F0F0F0;stroke:#000000;stroke-linejoin:round;" points="302.104,42.301 317.405,33.468 304.154,25.817 
					288.854,34.651 "/>
				<polygon style="fill:#F0F0F0;stroke:#000000;stroke-linejoin:round;" points="315.355,49.951 330.655,41.118 317.405,33.468 
					302.104,42.301 "/>
			</g>
			<g>
				<polygon style="fill:#DCDCDC;stroke:#000000;stroke-linejoin:round;" points="288.854,69.986 275.604,62.335 275.604,80.003 
					288.854,87.653 "/>
				<polygon style="fill:#DCDCDC;stroke:#000000;stroke-linejoin:round;" points="288.854,52.318 275.604,44.668 275.604,62.335 
					288.854,69.986 "/>
				<polygon style="fill:#DCDCDC;stroke:#000000;stroke-linejoin:round;" points="288.854,34.651 275.604,27.001 275.604,44.668 
					288.854,52.318 "/>
				<polygon style="fill:#DCDCDC;stroke:#000000;stroke-linejoin:round;" points="302.105,77.636 288.854,69.986 288.854,87.653 
					302.105,95.303 "/>
				<polygon style="fill:#DCDCDC;stroke:#000000;stroke-linejoin:round;" points="302.105,59.968 288.854,52.318 288.854,69.986 
					302.105,77.636 "/>
				<polygon style="fill:#DCDCDC;stroke:#000000;stroke-linejoin:round;" points="302.104,42.301 288.854,34.651 288.854,52.318 
					302.105,59.968 "/>
				<polygon style="fill:#DCDCDC;stroke:#000000;stroke-linejoin:round;" points="315.355,85.286 302.105,77.636 302.105,95.303 
					315.355,102.953 "/>
				<polygon style="fill:#DCDCDC;stroke:#000000;stroke-linejoin:round;" points="315.355,67.619 302.105,59.968 302.105,77.636 
					315.355,85.286 "/>
				<polygon style="fill:#DCDCDC;stroke:#000000;stroke-linejoin:round;" points="315.355,49.951 302.104,42.301 302.105,59.968 
					315.355,67.619 "/>
			</g>
			<g>
				<polygon style="fill:#B4B4B4;stroke:#000000;stroke-linejoin:round;" points="345.956,67.618 345.956,85.285 361.256,76.451 
					361.256,58.784 "/>
				<polygon style="fill:#B4B4B4;stroke:#000000;stroke-linejoin:round;" points="330.655,76.452 330.655,94.119 345.956,85.285 
					345.956,67.618 "/>
				<polygon style="fill:#B4B4B4;stroke:#000000;stroke-linejoin:round;" points="315.355,85.286 315.355,102.953 330.655,94.119 
					330.655,76.452 "/>
				<polygon style="fill:#B4B4B4;stroke:#000000;stroke-linejoin:round;" points="345.956,49.951 345.956,67.618 361.256,58.784 
					361.256,41.117 "/>
				<polygon style="fill:#B4B4B4;stroke:#000000;stroke-linejoin:round;" points="330.655,58.785 330.655,76.452 345.956,67.618 
					345.956,49.951 "/>
				<polygon style="fill:#B4B4B4;stroke:#000000;stroke-linejoin:round;" points="315.355,67.618 315.355,85.286 330.655,76.452 
					330.655,58.785 "/>
				<polygon style="fill:#B4B4B4;stroke:#000000;stroke-linejoin:round;" points="345.956,32.284 345.956,49.951 361.256,41.117 
					361.256,23.45 "/>
				<polygon style="fill:#B4B4B4;stroke:#000000;stroke-linejoin:round;" points="330.655,41.118 330.655,58.785 345.956,49.951 
					345.956,32.284 "/>
				<polygon style="fill:#B4B4B4;stroke:#000000;stroke-linejoin:round;" points="315.355,49.951 315.355,67.618 330.655,58.785 
					330.655,41.118 "/>
			</g>
			<g>
				
					<linearGradient id="XMLID_6_" gradientUnits="userSpaceOnUse" x1="167.5464" y1="305.4565" x2="184.0461" y2="334.0356" gradientTransform="matrix(0.17 0 0 0.17 221.9912 30.9157)">
					<stop  offset="0.01" style="stop-color:#D5D5D5"/>
					<stop  offset="1" style="stop-color:#FFFFFF"/>
					<a:midPointStop  offset="0.01" style="stop-color:#D5D5D5"/>
					<a:midPointStop  offset="0.5" style="stop-color:#D5D5D5"/>
					<a:midPointStop  offset="1" style="stop-color:#FFFFFF"/>
				</linearGradient>
				<polygon style="fill:url(#XMLID_6_);" points="239.295,89.688 254.596,80.854 264.456,80.854 248.9,89.786 "/>
				
					<linearGradient id="XMLID_7_" gradientUnits="userSpaceOnUse" x1="167.5469" y1="305.4561" x2="184.0466" y2="334.0351" gradientTransform="matrix(0.17 0 0 -0.17 221.9912 130.7772)">
					<stop  offset="0.01" style="stop-color:#D5D5D5"/>
					<stop  offset="1" style="stop-color:#FFFFFF"/>
					<a:midPointStop  offset="0.01" style="stop-color:#D5D5D5"/>
					<a:midPointStop  offset="0.5" style="stop-color:#D5D5D5"/>
					<a:midPointStop  offset="1" style="stop-color:#FFFFFF"/>
				</linearGradient>
				<polygon style="fill:url(#XMLID_7_);" points="239.295,72.005 254.596,80.839 264.456,80.839 248.9,71.907 "/>
				<g>
					<polygon style="fill:#F0F0F0;" points="240.662,61.032 245.762,58.087 241.345,55.537 236.245,58.482 "/>
					<polygon style="fill:#F0F0F0;" points="245.079,63.582 250.179,60.637 245.762,58.087 240.662,61.032 "/>
					<polygon style="fill:#F0F0F0;" points="249.496,66.132 254.596,63.188 250.179,60.637 245.079,63.582 "/>
					<polygon style="fill:#F0F0F0;" points="235.562,63.976 240.662,61.032 236.245,58.482 231.145,61.426 "/>
					<polygon style="fill:#F0F0F0;" points="239.979,66.526 245.079,63.582 240.662,61.032 235.562,63.976 "/>
					<polygon style="fill:#F0F0F0;" points="244.396,69.076 249.496,66.132 245.079,63.582 239.979,66.526 "/>
					<polygon style="fill:#F0F0F0;" points="230.462,66.92 235.562,63.976 231.145,61.426 226.045,64.371 "/>
					<polygon style="fill:#F0F0F0;" points="234.879,69.471 239.979,66.526 235.562,63.976 230.462,66.92 "/>
					<polygon style="fill:#F0F0F0;" points="239.295,72.021 244.396,69.076 239.979,66.526 234.879,69.471 "/>
				</g>
				<g>
					<polygon style="fill:#DCDCDC;" points="230.462,78.699 226.045,76.148 226.045,82.038 230.462,84.588 "/>
					<polygon style="fill:#DCDCDC;" points="230.462,72.81 226.045,70.26 226.045,76.148 230.462,78.699 "/>
					<polygon style="fill:#DCDCDC;" points="230.462,66.92 226.045,64.371 226.045,70.26 230.462,72.81 "/>
					<polygon style="fill:#DCDCDC;" points="234.879,81.249 230.462,78.699 230.462,84.588 234.879,87.138 "/>
					<polygon style="fill:#DCDCDC;" points="234.879,75.36 230.462,72.81 230.462,78.699 234.879,81.249 "/>
					<polygon style="fill:#DCDCDC;" points="234.879,69.471 230.462,66.92 230.462,72.81 234.879,75.36 "/>
					<polygon style="fill:#DCDCDC;" points="239.295,83.799 234.879,81.249 234.879,87.138 239.295,89.688 "/>
					<polygon style="fill:#DCDCDC;" points="239.295,77.91 234.879,75.36 234.879,81.249 239.295,83.799 "/>
					<polygon style="fill:#DCDCDC;" points="239.295,72.021 234.879,69.471 234.879,75.36 239.295,77.91 "/>
				</g>
				<g>
					<polygon style="fill:#B4B4B4;" points="249.495,77.91 249.495,83.798 254.596,80.854 254.596,74.965 "/>
					<polygon style="fill:#B4B4B4;" points="244.396,80.854 244.396,86.743 249.495,83.798 249.495,77.91 "/>
					<polygon style="fill:#B4B4B4;" points="239.295,83.798 239.295,89.688 244.396,86.743 244.396,80.854 "/>
					<polygon style="fill:#B4B4B4;" points="249.495,72.021 249.495,77.91 254.596,74.965 254.596,69.076 "/>
					<polygon style="fill:#B4B4B4;" points="244.396,74.965 244.396,80.854 249.495,77.91 249.495,72.021 "/>
					<polygon style="fill:#B4B4B4;" points="239.295,77.91 239.295,83.798 244.396,80.854 244.396,74.965 "/>
					<polygon style="fill:#B4B4B4;" points="249.495,66.131 249.495,72.021 254.596,69.076 254.596,63.187 "/>
					<polygon style="fill:#B4B4B4;" points="244.396,69.076 244.396,74.965 249.495,72.021 249.495,66.131 "/>
					<polygon style="fill:#B4B4B4;" points="239.295,72.021 239.295,77.91 244.396,74.965 244.396,69.076 "/>
				</g>
				<polygon style="fill:none;stroke:#000000;stroke-linejoin:round;" points="226.045,64.371 226.045,82.038 239.295,89.688 
					239.295,72.021 "/>
				<polyline style="fill:none;stroke:#000000;stroke-linejoin:round;" points="226.045,64.371 241.345,55.537 254.596,63.187 
					254.596,80.854 239.295,89.688 "/>
				<line style="fill:none;stroke:#000000;stroke-linejoin:round;" x1="239.295" y1="72.021" x2="254.596" y2="63.187"/>
			</g>
			<g>
				<text transform="matrix(1 0 0 1 230.5288 98.9116)"><tspan x="0" y="0" style="font-family:Bitstream Vera Sans; font-size:8.500000;">1 ft</tspan></text>
				<text transform="matrix(1 0 0 1 244.4253 97.9116)"><tspan x="0" y="0" style="font-family:Bitstream Vera Sans; font-size:8.500000;">3</tspan></text>
			</g>
			<g>
				<text transform="matrix(1 0 0 1 292.6938 114.4453)"><tspan x="0" y="0" style="font-family:Bitstream Vera Sans; font-size:8.500000;">1 yd</tspan></text>
				<text transform="matrix(1 0 0 1 311.5952 113.4453)"><tspan x="0" y="0" style="font-family:Bitstream Vera Sans; font-size:8.500000;">3 = 27 ft</tspan></text>
				<text transform="matrix(1 0 0 1 348.0112 111.4453)"><tspan x="0" y="0" style="font-family:Bitstream Vera Sans; font-size:8.500000;">3</tspan></text>
			</g>
			
				<linearGradient id="XMLID_8_" gradientUnits="userSpaceOnUse" x1="118.8164" y1="50.7388" x2="242.7911" y2="265.4745" gradientTransform="matrix(1 0 0 1 136.655 -110.2988)">
				<stop  offset="0.01" style="stop-color:#D5D5D5"/>
				<stop  offset="1" style="stop-color:#FFFFFF"/>
				<a:midPointStop  offset="0.01" style="stop-color:#D5D5D5"/>
				<a:midPointStop  offset="0.5" style="stop-color:#D5D5D5"/>
				<a:midPointStop  offset="1" style="stop-color:#FFFFFF"/>
			</linearGradient>
			<polygon style="fill:url(#XMLID_8_);" points="367.936,76.451 361.256,76.451 315.355,102.953 344.17,103.247 367.936,89.601 "/>
		</g>
	</g>
</svg>
