<?xml version="1.0" encoding="UTF-8" standalone="no"?>
<!-- Created with Inkscape (http://www.inkscape.org/) -->

<svg
   xmlns:dc="http://purl.org/dc/elements/1.1/"
   xmlns:cc="http://creativecommons.org/ns#"
   xmlns:rdf="http://www.w3.org/1999/02/22-rdf-syntax-ns#"
   xmlns:svg="http://www.w3.org/2000/svg"
   xmlns="http://www.w3.org/2000/svg"
   xmlns:sodipodi="http://sodipodi.sourceforge.net/DTD/sodipodi-0.dtd"
   xmlns:inkscape="http://www.inkscape.org/namespaces/inkscape"
   inkscape:output_extension="org.inkscape.output.svg.inkscape"
   sodipodi:docname="a.svg"
   version="1.0"
   inkscape:version="0.48.1 r9760"
   sodipodi:version="0.32"
   id="svg2"
   height="189.99733"
   width="967.40192"
   style="display:inline;enable-background:new">
  <sodipodi:namedview
     id="base"
     pagecolor="#ffffff"
     bordercolor="#666666"
     borderopacity="1.0"
     inkscape:pageopacity="0.0"
     inkscape:pageshadow="2"
     inkscape:zoom="1.5997971"
     inkscape:cx="267.74512"
     inkscape:cy="-186.67217"
     inkscape:document-units="px"
     inkscape:current-layer="layer3"
     showgrid="false"
     inkscape:window-width="1280"
     inkscape:window-height="1024"
     inkscape:window-x="0"
     inkscape:window-y="0"
     showguides="true"
     inkscape:guide-bbox="true"
     inkscape:window-maximized="0" />
  <defs
     id="defs4">
    <inkscape:perspective
       id="perspective10"
       inkscape:persp3d-origin="372.04724 : 350.78739 : 1"
       inkscape:vp_z="744.09448 : 526.18109 : 1"
       inkscape:vp_y="0 : 1000 : 0"
       inkscape:vp_x="0 : 526.18109 : 1"
       sodipodi:type="inkscape:persp3d" />
    <inkscape:perspective
       sodipodi:type="inkscape:persp3d"
       inkscape:vp_x="0 : 0.5 : 1"
       inkscape:vp_y="0 : 1000 : 0"
       inkscape:vp_z="1 : 0.5 : 1"
       inkscape:persp3d-origin="0.5 : 0.33333333 : 1"
       id="perspective20" />
    <inkscape:perspective
       sodipodi:type="inkscape:persp3d"
       inkscape:vp_x="0 : 0.5 : 1"
       inkscape:vp_y="0 : 1000 : 0"
       inkscape:vp_z="1 : 0.5 : 1"
       inkscape:persp3d-origin="0.5 : 0.33333333 : 1"
       id="perspective73" />
    <inkscape:perspective
       id="perspective10397"
       inkscape:persp3d-origin="0.5 : 0.33333333 : 1"
       inkscape:vp_z="1 : 0.5 : 1"
       inkscape:vp_y="0 : 1000 : 0"
       inkscape:vp_x="0 : 0.5 : 1"
       sodipodi:type="inkscape:persp3d" />
    <clipPath
       clipPathUnits="userSpaceOnUse"
       id="clipPath11190">
      <rect
         style="fill:#000000;fill-opacity:1;stroke:none"
         id="rect11177"
         width="1003.7873"
         height="198.01393"
         x="7.331862"
         y="12.150417" />
    </clipPath>
    <inkscape:perspective
       id="perspective11217"
       inkscape:persp3d-origin="0.5 : 0.33333333 : 1"
       inkscape:vp_z="1 : 0.5 : 1"
       inkscape:vp_y="0 : 1000 : 0"
       inkscape:vp_x="0 : 0.5 : 1"
       sodipodi:type="inkscape:persp3d" />
    <inkscape:perspective
       id="perspective11217-0"
       inkscape:persp3d-origin="0.5 : 0.33333333 : 1"
       inkscape:vp_z="1 : 0.5 : 1"
       inkscape:vp_y="0 : 1000 : 0"
       inkscape:vp_x="0 : 0.5 : 1"
       sodipodi:type="inkscape:persp3d" />
    <inkscape:perspective
       id="perspective11217-9"
       inkscape:persp3d-origin="0.5 : 0.33333333 : 1"
       inkscape:vp_z="1 : 0.5 : 1"
       inkscape:vp_y="0 : 1000 : 0"
       inkscape:vp_x="0 : 0.5 : 1"
       sodipodi:type="inkscape:persp3d" />
    <inkscape:perspective
       id="perspective11217-07"
       inkscape:persp3d-origin="0.5 : 0.33333333 : 1"
       inkscape:vp_z="1 : 0.5 : 1"
       inkscape:vp_y="0 : 1000 : 0"
       inkscape:vp_x="0 : 0.5 : 1"
       sodipodi:type="inkscape:persp3d" />
    <inkscape:perspective
       id="perspective11333"
       inkscape:persp3d-origin="0.5 : 0.33333333 : 1"
       inkscape:vp_z="1 : 0.5 : 1"
       inkscape:vp_y="0 : 1000 : 0"
       inkscape:vp_x="0 : 0.5 : 1"
       sodipodi:type="inkscape:persp3d" />
    <inkscape:perspective
       id="perspective11333-1"
       inkscape:persp3d-origin="0.5 : 0.33333333 : 1"
       inkscape:vp_z="1 : 0.5 : 1"
       inkscape:vp_y="0 : 1000 : 0"
       inkscape:vp_x="0 : 0.5 : 1"
       sodipodi:type="inkscape:persp3d" />
    <inkscape:perspective
       id="perspective11333-8"
       inkscape:persp3d-origin="0.5 : 0.33333333 : 1"
       inkscape:vp_z="1 : 0.5 : 1"
       inkscape:vp_y="0 : 1000 : 0"
       inkscape:vp_x="0 : 0.5 : 1"
       sodipodi:type="inkscape:persp3d" />
    <filter
       inkscape:collect="always"
       id="filter11555"
       color-interpolation-filters="sRGB">
      <feBlend
         inkscape:collect="always"
         mode="multiply"
         in2="BackgroundImage"
         id="feBlend11557" />
    </filter>
  </defs>
  <metadata
     id="metadata7">
    <rdf:RDF>
      <cc:Work
         rdf:about="">
        <dc:format>image/svg+xml</dc:format>
        <dc:type
           rdf:resource="http://purl.org/dc/dcmitype/StillImage" />
        <dc:title></dc:title>
      </cc:Work>
    </rdf:RDF>
  </metadata>
  <g
     inkscape:groupmode="layer"
     id="layer2"
     inkscape:label="gabarit"
     style="display:inline"
     transform="translate(-28.1705, -482.6)" />
  <g
     inkscape:groupmode="layer"
     id="layer4"
     inkscape:label="tracé"
     transform="translate(-28.1705, -482.6)">
    <path
       style="fill:#808080"
       d="m 96.788278,802.15931 c -0.506635,-0.002 -0.985006,0.007 -1.442534,0.0134 -1.220074,0.0174 -2.256814,0.0687 -3.045349,0.14692 -0.885276,0.0878 -2.559589,0.2568 -3.726546,0.37399 -2.420627,0.2431 -3.126788,0.39763 -6.878749,1.53604 -4.057539,1.23112 -4.866867,1.72713 -6.077341,3.71318 -0.822048,1.34876 -1.242182,2.51093 -1.242182,3.4327 0,0.40537 -0.133157,0.93509 -0.320563,1.30897 -0.342099,0.68248 -0.516729,2.38879 -0.347277,3.31248 0.142726,0.778 0.420488,0.9884 1.308966,0.9884 0.913977,0 1.563009,-0.37663 3.045349,-1.77645 2.559697,-2.41719 5.816484,-4.51415 7.800368,-5.02215 4.469628,-1.14452 9.77519,-0.82998 18.51252,1.10861 0.76456,0.16963 3.66141,0.74713 6.43797,1.28225 9.01586,1.73762 16.25546,3.76684 25.89883,7.25274 2.53511,0.9164 6.68107,2.39182 9.21618,3.28577 2.53512,0.89395 5.45853,1.94313 6.50476,2.32408 1.04624,0.38096 4.20888,1.48252 7.02568,2.45765 11.59064,4.01251 17.33232,5.39491 23.90866,5.75678 1.37647,0.0757 1.76359,0.15599 2.23058,0.44078 0.31098,0.18963 0.53949,0.38111 0.4942,0.42741 -0.0168,0.0172 0.12638,0.0426 0.33392,0.0668 l 0,0.28049 c -0.0434,-0.003 -0.0906,-0.0102 -0.13356,-0.0134 l 0,1.44254 0.18699,1.21547 0.0801,1.33568 0.14693,0.0134 c 0.24966,1.53073 1.81321,5.13805 2.71143,6.1842 0.12628,0.14708 0.23195,0.27995 0.3072,0.38735 l 0.17364,0.10685 1.88331,5.48964 -0.0801,0.38735 c 0.0215,0.11755 0.0526,0.24558 0.0668,0.4007 0.0429,0.46865 0.30756,1.65704 0.5877,2.64465 0.69067,2.43488 0.71803,2.64838 0.53427,4.06046 -0.052,0.39964 -0.0905,0.70149 -0.0935,0.94834 l 0.14693,0.41406 -0.0935,-0.0134 0.34728,2.48436 c -0.0324,0.4837 -0.0606,1.31981 -0.0801,2.31073 -0.029,1.46889 -0.12157,3.03347 -0.21371,3.48612 -0.0921,0.45265 -0.21805,1.63033 -0.28049,2.61793 -0.10372,1.64035 -0.16651,1.9004 -0.65449,2.92514 -0.55405,1.16351 -0.69936,2.1647 -0.36063,2.51108 0.12333,0.12612 0.94808,0.17364 2.76486,0.17364 2.22933,0 2.61849,-0.0268 2.79157,-0.24042 0.14707,-0.18149 0.20524,-0.79436 0.21371,-2.28402 0.009,-1.55091 0.10269,-2.5242 0.4007,-4.10053 0.21497,-1.13711 0.38735,-2.42025 0.38735,-2.85836 0,-0.43811 0.13288,-1.45732 0.29385,-2.25729 0.16096,-0.79998 0.29384,-1.87407 0.29384,-2.39087 0,-0.5168 0.0996,-1.50325 0.22707,-2.19051 0.2615,-1.4097 0.2259,-3.48452 -0.0935,-5.47629 -0.18889,-1.17795 -0.17986,-1.26181 0.10686,-1.65624 0.48731,-0.6704 0.95375,-0.61156 1.81652,0.21371 1.31689,1.25965 1.48131,1.7118 1.60282,4.18067 0.0579,1.17588 0.14832,2.21128 0.20035,2.29737 0.052,0.0861 0.16416,0.66865 0.24042,1.30897 0.0763,0.64031 0.22616,1.79535 0.33392,2.5645 0.11921,0.85103 0.14847,1.6732 0.0801,2.09702 -0.21563,1.33753 -0.15065,2.33007 0.20035,3.03199 0.44094,0.88174 3.22462,4.22639 3.69984,4.44781 0.66662,0.31061 1.06544,0.21352 1.77645,-0.45413 0.7514,-0.70557 1.50917,-2.16214 1.50932,-2.89842 8e-5,-0.34149 -0.25304,-0.82276 -0.94834,-1.77646 l -0.94833,-1.30896 0,-4.50124 c 0,-2.72021 0.0673,-5.00516 0.17364,-5.75678 0.17513,-1.23865 0.1605,-1.35521 -0.28049,-3.27241 -0.0493,-0.21444 0.0883,-0.4888 0.41406,-0.8682 0.43344,-0.50485 0.53168,-0.55347 1.00176,-0.46748 0.28641,0.0524 0.88584,0.16147 1.33568,0.24042 0.0454,0.008 0.13699,0.0261 0.20035,0.0401 l 0.0134,-0.0401 3.95361,0.24042 1.41582,-0.21371 c 0,0 0.3202,-0.22706 0.4942,-0.22706 0.0372,-0.0702 0.23324,-0.13894 0.5877,-0.187 0.39197,-0.0531 1.36337,-0.25053 2.1638,-0.45413 0.66702,-0.16965 1.06594,-0.25935 1.34903,-0.28049 0.0944,-0.007 0.18134,-0.008 0.25378,0 0.0966,0.0112 0.1723,0.0456 0.25378,0.0801 0.54446,0.23062 0.81351,0.89251 0.90826,2.27065 0.0394,0.57282 0.0529,0.90755 -0.0401,1.05519 -0.002,0.003 0.002,0.0106 0,0.0134 l 0.46749,1.93673 c 0,0 -0.0132,0.0131 -0.0134,0.0134 0.0814,0.17414 0.14543,0.41431 0.18699,0.78805 0.0927,0.83402 0.26742,1.41436 1.46925,4.75502 0.72821,2.02419 0.81743,3.3768 0.38734,5.9972 -0.65736,4.00515 -0.8086,4.59527 -1.33567,5.20915 -0.5403,0.62929 -0.73463,1.14005 -0.73463,1.96345 0,1.03735 0.0737,1.11134 0.86819,1.01511 0.50318,-0.0609 0.82662,-0.005 1.18876,0.187 0.45286,0.23949 0.82238,0.25639 3.94025,0.16028 1.88864,-0.0582 3.49101,-0.15279 3.56627,-0.20035 0.0785,-0.0496 0.10303,-0.59963 0.0534,-1.29561 -0.081,-1.13584 -0.42377,-2.49078 -1.10861,-4.43446 -0.15949,-0.45265 -0.38214,-1.73394 -0.50756,-2.84499 -0.12542,-1.11105 -0.30505,-2.37498 -0.38735,-2.81829 -0.25092,-1.35173 -0.17616,-3.30426 0.21371,-5.46293 0.29494,-1.633 0.36679,-2.4917 0.36064,-4.39438 -0.004,-1.2984 -0.005,-2.74767 0,-3.23235 0.0149,-1.41694 0.4915,-2.09545 1.28225,-1.81652 0.55221,0.19478 0.69861,0.55391 2.23058,5.20915 1.3372,4.06336 1.62054,4.73922 2.89843,6.99896 1.00478,1.7768 1.64288,3.98983 1.64288,5.69 0,0.39874 0.0799,1.17728 0.17364,1.73638 0.0938,0.55909 0.13327,1.19931 0.0801,1.41582 -0.0531,0.2165 -0.65915,0.95613 -1.33568,1.64288 -1.294,1.31357 -1.62238,1.96651 -1.52267,3.01864 0.0412,0.43446 0.0893,0.47584 0.56098,0.48084 0.28394,0.003 0.72251,0.0858 0.96169,0.187 0.31796,0.13453 1.56254,0.17607 4.66152,0.14692 l 4.24746,-0.0401 0.12022,-0.65448 c 0.14546,-0.75254 0.10816,-0.96106 -0.81477,-3.65976 -0.36044,-1.054 -0.70794,-2.16705 -0.76134,-2.47101 -0.0534,-0.30395 -0.31298,-1.49244 -0.58769,-2.64464 -0.7174,-3.00884 -1.24216,-6.95 -1.24219,-9.37647 -1e-5,-1.93993 -0.0817,-2.59822 -0.72126,-5.66328 -0.24159,-1.15783 -0.30507,-1.9744 -0.30721,-4.43446 -0.001,-1.66122 0.0718,-3.19066 0.14692,-3.39262 0.19708,-0.53008 1.01886,-1.45524 1.4559,-1.62953 0.20618,-0.0822 1.19787,-0.19992 2.20387,-0.26714 2.06954,-0.13828 2.72703,-0.35644 3.56626,-1.1754 0.77016,-0.75155 1.1863,-1.67058 1.40246,-3.08542 0.24834,-1.62547 0.47462,-2.10958 1.42918,-3.09877 0.8649,-0.89627 2.22395,-1.65905 3.41934,-1.91002 0.35621,-0.0748 1.23913,-0.2663 1.96345,-0.44078 2.92092,-0.7036 6.28327,-1.34382 8.70863,-1.65624 1.4084,-0.18142 3.12917,-0.43215 3.8334,-0.54763 0.70424,-0.11548 2.09256,-0.20035 3.08542,-0.20035 0.99285,0 2.45609,-0.10586 3.2457,-0.22707 0.78962,-0.12121 2.76326,-0.25645 4.38103,-0.3072 1.61776,-0.0508 3.54396,-0.19113 4.28753,-0.30721 0.86201,-0.13457 2.61832,-0.20867 4.83516,-0.21371 2.46877,-0.006 3.81696,-0.0791 4.64816,-0.24042 0.92457,-0.17944 3.0883,-0.24989 10.31145,-0.33392 5.02999,-0.0585 9.24555,-0.16578 9.36311,-0.24042 0.11757,-0.0747 3.30676,-0.18083 7.09246,-0.24043 3.78572,-0.0596 7.47675,-0.19068 8.20107,-0.28049 0.72432,-0.0898 3.3554,-0.22895 5.85028,-0.3072 2.49487,-0.0783 4.80708,-0.20986 5.129,-0.29385 0.32192,-0.084 1.63746,-0.15687 2.92514,-0.16029 1.4397,-0.004 2.793,-0.0887 3.51284,-0.22706 0.92401,-0.17758 2.99833,-0.24457 9.87067,-0.30721 5.97065,-0.0544 9.28417,-0.13781 10.53851,-0.28049 1.33152,-0.15146 5.08952,-0.23982 13.82428,-0.30721 6.59935,-0.0509 12.5924,-0.15173 13.31673,-0.22706 0.7243,-0.0753 3.97995,-0.17856 7.23938,-0.22707 3.96717,-0.059 6.40398,-0.16368 7.34624,-0.3072 0.77416,-0.11792 2.27569,-0.21115 3.35255,-0.21371 1.07688,-0.003 2.76079,-0.10135 3.72655,-0.22707 0.96576,-0.12572 2.41419,-0.29112 3.21898,-0.36063 1.44456,-0.12476 3.36163,-0.46755 4.26082,-0.76134 0.67131,-0.21957 4.66009,-0.21802 6.78525,0 5.34649,0.54849 10.65668,1.40775 13.08966,2.12373 4.22095,1.24217 11.72345,5.30696 14.65241,7.93394 0.49258,0.44179 1.50582,1.33175 2.24394,1.99016 1.8082,1.61291 5.10263,5.63693 6.45133,7.86715 0.27664,0.45746 0.58175,0.96218 0.68119,1.12197 0.79772,1.28179 2.5378,4.94828 2.5378,5.35608 0,0.10716 0.0956,0.32109 0.2137,0.48084 0.11814,0.15976 0.20858,0.4231 0.21371,0.5877 0.005,0.1646 0.13832,0.57906 0.29385,0.90826 0.1555,0.3292 0.28872,0.73031 0.29385,0.89491 0.006,0.1646 0.11205,0.46208 0.22707,0.66784 0.11502,0.20575 0.20943,0.55841 0.21371,0.77469 0.003,0.21628 0.1064,0.62631 0.22706,0.92162 0.12066,0.29531 0.28701,0.99107 0.37399,1.54939 0.0869,0.5583 0.21995,1.41648 0.29385,1.89666 0.16776,1.091 0.31377,1.39817 0.53427,1.12197 0.17888,-0.22397 0.0342,-2.33549 -0.25378,-3.79333 -0.28555,-1.44585 -1.51169,-5.53437 -1.9768,-6.58489 -0.96237,-2.17366 -2.41535,-5.02309 -3.12549,-6.13077 -1.55878,-2.43144 -3.80095,-5.28258 -5.58314,-7.10582 -1.35538,-1.3866 -4.31781,-3.98332 -5.503,-4.8218 -0.61766,-0.43698 -1.23215,-0.86965 -1.36239,-0.96169 -1.38306,-0.97734 -4.21443,-2.5374 -6.51812,-3.57962 -0.48287,-0.21847 -1.08088,-0.47818 -1.32232,-0.5877 -2.19825,-0.99716 -3.43759,-1.42422 -5.26258,-1.80317 -0.56336,-0.11698 -1.29425,-0.28372 -1.61617,-0.36063 -2.52284,-0.60271 -6.2589,-1.11482 -10.39159,-1.44253 -3.22364,-0.25563 -7.85761,-0.23196 -13.67735,0.0801 -2.48977,0.13351 -20.90976,0.0881 -27.07423,-0.0668 -11.5011,-0.28895 -14.88429,-0.47216 -17.77789,-0.97504 -0.96576,-0.16784 -2.93239,-0.37432 -4.38103,-0.45413 -1.44863,-0.0798 -3.33564,-0.21505 -4.18067,-0.29385 -0.84504,-0.0788 -2.92437,-0.14308 -4.62145,-0.14693 -1.95122,-0.004 -3.61106,-0.0863 -4.52796,-0.22706 -0.85641,-0.13147 -3.13615,-0.25578 -5.55642,-0.30721 -2.32188,-0.0493 -4.70544,-0.18591 -5.503,-0.30721 -0.85694,-0.13032 -2.53982,-0.21371 -4.31425,-0.21371 -1.73566,0 -3.63255,-0.0921 -4.67488,-0.22706 -0.96269,-0.12468 -2.99883,-0.29417 -4.52795,-0.37399 -1.52912,-0.0798 -3.24332,-0.19964 -3.80669,-0.28049 -0.56335,-0.0809 -2.14468,-0.15563 -3.51283,-0.16029 -1.36817,-0.005 -2.75014,-0.0678 -3.07207,-0.14692 -0.32191,-0.0792 -1.73044,-0.22263 -3.13884,-0.30721 -3.36554,-0.2021 -7.37786,-0.65214 -9.06927,-1.02847 -0.36216,-0.0806 -1.65115,-0.15528 -2.85835,-0.16028 -1.2072,-0.005 -2.78852,-0.10537 -3.51284,-0.22707 -0.72431,-0.12169 -2.1137,-0.22676 -3.08542,-0.22706 -0.97169,-3.1e-4 -2.44667,-0.11091 -3.28577,-0.24042 -0.83908,-0.12952 -2.92337,-0.28356 -4.62145,-0.34728 -1.69808,-0.0637 -3.14908,-0.16109 -3.23234,-0.21371 -0.0833,-0.0526 -1.45989,-0.19445 -3.05871,-0.32056 -1.59881,-0.12612 -3.53633,-0.29554 -4.30089,-0.37399 -0.76456,-0.0784 -1.9472,-0.14436 -2.63128,-0.14693 -0.68409,-0.002 -1.80029,-0.10384 -2.48437,-0.22706 -0.68408,-0.12323 -1.80769,-0.22695 -2.48436,-0.22707 -0.67667,-1.1e-4 -1.92576,-0.12345 -2.77821,-0.28049 -0.85245,-0.15705 -2.33337,-0.40138 -3.29913,-0.53427 -0.96576,-0.1329 -2.65284,-0.37157 -3.75326,-0.53427 -1.10041,-0.16271 -2.42931,-0.29086 -2.9385,-0.29385 -0.50917,-0.003 -1.45317,-0.1087 -2.09701,-0.22707 -0.64384,-0.11837 -1.95938,-0.2566 -2.92514,-0.30721 -0.96576,-0.0506 -2.30785,-0.19127 -2.99192,-0.3072 -0.68408,-0.11595 -2.21263,-0.20006 -3.39263,-0.20035 -1.29763,-2.9e-4 -2.59209,-0.0913 -3.28577,-0.22707 -0.65109,-0.1274 -1.97884,-0.22664 -3.05871,-0.22707 -1.21599,-5.2e-4 -2.52402,-0.1047 -3.61969,-0.29384 -1.57628,-0.27211 -2.4372,-0.29969 -10.819,-0.30721 -8.25002,-0.007 -13.9586,0.14793 -14.35855,0.4007 -0.0827,0.0522 -1.04474,0.15334 -2.13709,0.21371 -1.09235,0.0604 -2.41538,0.17862 -2.9385,0.26714 -1.18423,0.20037 -6.9682,1.08877 -9.80388,1.50932 -1.16696,0.17306 -2.68365,0.41503 -3.37927,0.53427 -0.69562,0.11924 -1.5423,0.21371 -1.86995,0.21371 -0.32766,0 -1.26925,0.14286 -2.09702,0.3072 -1.31723,0.26153 -2.11095,0.29343 -6.34448,0.29385 -4.2099,4e-4 -5.03829,-0.0334 -6.42462,-0.29385 -0.87609,-0.1646 -1.88715,-0.3072 -2.24394,-0.3072 -0.35679,0 -1.28242,-0.1004 -2.05694,-0.22707 -0.77453,-0.12667 -2.26625,-0.36816 -3.31249,-0.53427 -3.75677,-0.59647 -5.59175,-0.90726 -7.31952,-1.2689 -0.96576,-0.20214 -2.08197,-0.43336 -2.48437,-0.50756 -0.4024,-0.0742 -1.6914,-0.34186 -2.85835,-0.58769 -1.16696,-0.24584 -2.84127,-0.5114 -3.72654,-0.60106 -4.04098,-0.40923 -6.94615,-0.9162 -12.07455,-2.08366 -1.08648,-0.24733 -3.51822,-0.78875 -5.4095,-1.20211 -3.14611,-0.68763 -4.16341,-0.88673 -8.12093,-1.60282 -0.72432,-0.13106 -1.90697,-0.35469 -2.63129,-0.50755 -1.23677,-0.26101 -2.28654,-0.4001 -5.63656,-0.74799 -0.76084,-0.079 -2.10292,-0.24979 -2.99193,-0.37399 -0.889,-0.1242 -2.47995,-0.2919 -3.52619,-0.37399 -1.04624,-0.0821 -2.68065,-0.2152 -3.64641,-0.29385 -4.706,-0.38318 -9.38293,-0.60217 -12.929372,-0.61441 z"
       id="path38"
       inkscape:connector-curvature="0" />
  </g>
  <g
     id="layer1"
     inkscape:groupmode="layer"
     inkscape:label="grid"
     style="display:inline"
     transform="translate(-28.1705, -482.6)" />
  <g
     inkscape:groupmode="layer"
     id="layer3"
     inkscape:label="légende"
     style="display:inline"
     transform="translate(-28.1705, -482.6)">
    <path
       style="color:#000000;fill:none;stroke:#000000;stroke-width:0.37399024;stroke-linecap:butt;stroke-linejoin:miter;stroke-miterlimit:4;stroke-opacity:1;stroke-dasharray:none;stroke-dashoffset:0;marker:none;visibility:visible;display:inline;overflow:visible;enable-background:accumulate"
       d="m 330.2931,870.02006 72.38565,0"
       id="path3321"
       inkscape:connector-curvature="0" />
    <text
       xml:space="preserve"
       style="font-size:10px;font-style:normal;font-variant:normal;font-weight:normal;font-stretch:normal;text-indent:0;text-align:start;text-decoration:none;line-height:125%;letter-spacing:0px;word-spacing:0px;text-transform:none;direction:ltr;block-progression:tb;writing-mode:lr-tb;text-anchor:start;baseline-shift:baseline;color:#000000;fill:#000000;fill-opacity:1;fill-rule:nonzero;stroke:none;stroke-width:1px;marker:none;visibility:visible;display:inline;overflow:visible;enable-background:accumulate;font-family:FreeSans;-inkscape-font-specification:FreeSans"
       x="356.29138"
       y="866.74194"
       id="text3323"
       sodipodi:linespacing="125%"><tspan
         sodipodi:role="line"
         id="tspan3325"
         x="356.29138"
         y="866.74194">10 m</tspan></text>
  </g>
</svg>
