<?xml version="1.0" encoding="iso-8859-1"?>
<!-- Generator: Adobe Illustrator 11 Build 196, SVG Export Plug-In . SVG Version: 6.0.0 Build 78)  -->
<!DOCTYPE svg PUBLIC "-//W3C//DTD SVG 1.0//EN"    "http://www.w3.org/TR/2001/REC-SVG-20010904/DTD/svg10.dtd" [
	<!ENTITY ns_flows "http://ns.adobe.com/Flows/1.0/">
	<!ENTITY ns_svg "http://www.w3.org/2000/svg">
	<!ENTITY ns_xlink "http://www.w3.org/1999/xlink">
]>
<svg  
	 width="133.275" height="89.141" viewBox="0 0 133.275 89.141" style="overflow:visible;enable-background:new 0 0 133.275 89.141"
	 xml:space="preserve">
	<g id="Layer_1">
		<g>
			<path style="fill:#B4B4B4;stroke:#000000;" d="M14.735,7.028c-0.082-0.261-0.324-0.44-0.597-0.44h-0.141
				c-1.008,0.024-2.015-0.03-3.022-0.056V4.403H3.113v10.858h7.862v-1.986c0.901-0.057,1.81-0.041,2.684-0.315l0.246-0.085
				c0.175-0.074,0.308-0.223,0.359-0.41l-0.043,0.082c0.062-0.121,0.117-0.25,0.113-0.382c-0.062-1.525,0.246-3.015,0.398-4.521
				L14.735,7.028z M10.976,7.781c0.83,0.021,1.659,0.06,2.488,0.06c-0.174,1.324-0.399,2.643-0.374,3.981
				c-0.694,0.158-1.4,0.154-2.114,0.192V7.781z M13.413,11.739c-0.002,0.001-0.005,0.001-0.008,0.002l0.02-0.018L13.413,11.739z"/>
			<path style="fill:#B4B4B4;stroke:#000000;" d="M4.174,5.526C5.047,6.088,5.11,5.713,5.11,7.086s0,3.994,0,4.431
				c0,0.437,0,1.623,0,1.623s-0.562,1.123-0.936,1.123"/>
			<path style="fill:#B4B4B4;stroke:#000000;" d="M6.108,5.558c0.874,0.562,0.936,0.188,0.936,1.56c0,1.373,0,3.994,0,4.431
				c0,0.437,0,1.622,0,1.622s-0.562,1.124-0.936,1.124"/>
			<path style="fill:#B4B4B4;stroke:#000000;" d="M8.167,5.496c0.874,0.562,0.936,0.187,0.936,1.56c0,1.373,0,3.994,0,4.431
				c0,0.437,0,1.623,0,1.623s-0.562,1.123-0.936,1.123"/>
			<path style="fill:#FFFFFF;stroke:#000000;" d="M5.859,4.403c1.311,0.312,3.557,0.999,4.493,1.123
				c0.936,0.125,2.309-0.499,1.685-1.56C11.413,2.906,9.104,0.16,7.044,0.535C4.985,0.909,4.299,1.595,3.363,2.219
				S0.118,4.091,0.555,5.526c0.437,1.436,1.311,3.12,1.81,2.684c0.5-0.437,0.749-3.807,0.749-3.807H5.859z"/>
		</g>
		<path style="fill:#DCDCDC;stroke:#000000;" d="M50.406,7.434c4.379,0.73,10.764,14.04,7.956,22.464s32.761,3.276,35.569,3.276
			s5.148,9.36-18.721,10.296c-23.868,0.936-16.848,4.68-17.784,7.956s-0.936,37.441-6.084,36.037
			C46.194,86.06,40.578,72.955,37.77,72.955s0,14.508-4.68,13.104c-4.68-1.404-0.936-35.101-3.744-36.973
			c-2.809-1.872-19.657-10.764-19.188-14.041c0.468-3.276,2.34-27.145,4.68-27.145c2.34,0,2.808,16.38,7.02,18.721
			C26.069,28.962,41.981,6.03,50.406,7.434z"/>
		<ellipse cx="35.956" cy="32.726" rx="3.64" ry="3.309"/> 
		<ellipse style="fill:#B4B4B4;" cx="47.233" cy="48.619" rx="3.64" ry="3.309"/> 
		<circle style="fill:#7F7F7F;" cx="50.562" cy="23.346" r="1.544"/> 
		<path style="fill:#7F7F7F;" d="M66.006,29.431c1.56-3.12,10.296-0.624,11.544-2.497c1.248-1.872-0.624-4.68-1.872-7.488
			s0.936-12.168,6.864-10.92c5.928,1.248,5.928,8.736,4.68,10.296c-1.248,1.56-5.304,7.176-3.12,7.8
			c2.184,0.624,10.92,0.624,12.168,1.248s13.728,6.24,14.664,5.304s6.24-9.048,5.928-10.92s1.248-4.68,1.248-3.12
			s0.624,2.184,0.624,2.184l1.872-1.872l-1.872,1.872c0,0,4.368-0.936,2.496,0s-2.496,2.808-2.496,2.808s3.12-0.624,1.56-0.312
			s-2.184,1.872-2.496,3.12c-0.312,1.249-4.68,10.92-5.616,11.232s-14.976-6.864-15.912-5.304s-2.184,5.304-3.432,7.176
			s-1.248,13.104-0.936,15.288c0.312,2.184,0,15.913,0,17.161c0,1.248,0,14.352,0,14.352l2.184,1.248c0,0-4.368,1.872-5.616,0.624
			s0.312-4.056,0.312-4.056l-5.304-24.96l-3.432,19.344l-0.936,5.304c0,0,2.496,2.184,2.184,3.12s-2.496,1.248-3.744,0.936
			s-3.744-1.56-3.12-3.12s0.936-26.833,0.936-26.833V38.479l-5.616-4.992l-5.304,0.624l-4.992-1.56L66.006,29.431z"/>
		<g>
			<path style="fill:#B4B4B4;stroke:#000000;" d="M118.544,19.618c0.152,1.505,0.46,2.995,0.397,4.52
				c-0.004,0.132,0.051,0.261,0.113,0.382l-0.043-0.082c0.051,0.187,0.184,0.335,0.359,0.41l0.246,0.085
				c0.873,0.274,1.783,0.258,2.684,0.315v1.986h7.862V16.376H122.3v2.128c-1.008,0.025-2.014,0.08-3.023,0.056h-0.14
				c-0.273,0-0.515,0.179-0.597,0.441L118.544,19.618z M122.3,23.988c-0.714-0.038-1.42-0.034-2.114-0.192
				c0.025-1.338-0.2-2.658-0.375-3.981c0.83,0,1.659-0.039,2.489-0.06V23.988z M119.851,23.697l0.02,0.018
				c-0.003-0.001-0.006-0.001-0.009-0.002L119.851,23.697z"/>
			<path style="fill:#B4B4B4;stroke:#000000;" d="M129.101,17.5c-0.874,0.562-0.936,0.188-0.936,1.56c0,1.373,0,3.994,0,4.431
				s0,1.623,0,1.623s0.562,1.123,0.936,1.123"/>
			<path style="fill:#B4B4B4;stroke:#000000;" d="M127.167,17.531c-0.874,0.562-0.936,0.188-0.936,1.56c0,1.373,0,3.994,0,4.431
				s0,1.623,0,1.623s0.562,1.123,0.936,1.123"/>
			<path style="fill:#B4B4B4;stroke:#000000;" d="M125.107,17.468c-0.874,0.562-0.936,0.188-0.936,1.561c0,1.373,0,3.993,0,4.43
				s0,1.623,0,1.623s0.562,1.123,0.936,1.123"/>
			<path style="fill:#FFFFFF;stroke:#000000;" d="M127.417,16.376c-1.311,0.312-3.557,0.999-4.493,1.123
				c-0.936,0.125-2.309-0.499-1.685-1.56c0.624-1.061,2.933-3.806,4.992-3.432c2.059,0.375,2.746,1.061,3.682,1.685
				s3.245,1.872,2.808,3.307c-0.437,1.436-1.311,3.12-1.81,2.684c-0.5-0.437-0.749-3.807-0.749-3.807H127.417z"/>
		</g>
		<path style="fill:#DCDCDC;stroke:#000000;" d="M92.059,72.643c0-1.248,0.312-14.976,0-17.16c-0.044-0.306-0.081-0.794-0.11-1.404
			H75.522v4.524c0,0-0.19,15.446-0.572,22.932h4.839l0.413-2.34l3.432-19.344l4.608,21.684h3.816
			C92.059,77.778,92.059,73.344,92.059,72.643z"/>
		<path style="fill:#FFFFFF;stroke:#000000;" d="M115.117,26.623c-1.556,2.874-3.765,6.135-4.338,6.708
			c-0.936,0.936-13.417-4.68-14.664-5.304c-1.249-0.624-9.984-0.624-12.168-1.248c-0.125-0.036-0.227-0.089-0.312-0.156h-6
			c-0.062,0.161-0.14,0.318-0.24,0.468c-1.248,1.872-9.984-0.624-11.544,2.496l-6.084,2.897v0.369l4.524,1.414l5.304-0.624
			l5.616,4.992v17.94h16.617c-0.02-0.479-0.047-0.854-0.081-1.092c-0.312-2.184-0.312-13.416,0.936-15.288s2.496-5.616,3.432-7.176
			s14.976,5.616,15.912,5.304s5.304-9.984,5.616-11.232c0.038-0.152,0.081-0.309,0.129-0.468H115.117z"/>
		<ellipse style="fill:#FFFFFF;stroke:#000000;" cx="78.486" cy="15.132" rx="1.103" ry="0.882"/> 
		<ellipse style="fill:#FFFFFF;stroke:#000000;" cx="83.167" cy="15.132" rx="1.103" ry="0.882"/> 
		<circle cx="78.155" cy="15.132" r="0.331"/> 
		<circle cx="82.75" cy="15.182" r="0.331"/> 
		<path style="fill:none;stroke:#000000;" d="M80.566,15.91c-0.208,0.624-1.04,4.108-0.468,3.744"/>
		<path style="fill:none;stroke:#000000;" d="M78.018,20.382c0.52,0.52,4.056,0.572,4.628,0.052"/>
		<path style="stroke:#000000;" d="M78.987,9.722c-1.476-0.11-3.341,0.143-4.004,1.674c-0.175,0.393,0,0.854,0.39,1.03
			c0.394,0.179,0.855,0.003,1.034-0.39c0.507-0.923,1.703-0.738,2.581-0.754c0.429,0,0.78-0.348,0.78-0.78
			S79.416,9.722,78.987,9.722L78.987,9.722z"/>
		<path style="stroke:#000000;" d="M80.742,11.49c0.66,0.022,1.336-0.114,1.966,0.104c0.367,0.127,0.65,0.419,0.995,0.604
			c0.364,0.23,0.848,0.12,1.076-0.244c0.231-0.364,0.12-0.845-0.244-1.076c-0.494-0.289-0.926-0.672-1.499-0.829
			c-0.764-0.205-1.527-0.104-2.294-0.12c-0.429,0-0.78,0.348-0.78,0.78S80.313,11.49,80.742,11.49L80.742,11.49z"/>
		<path style="stroke:#000000;" d="M81.899,9.689c1.092,0.062,1.846,0.985,2.512,1.749c0.279,0.325,0.773,0.364,1.099,0.084
			c0.328-0.279,0.367-0.77,0.087-1.098C84.681,9.326,83.518,8.182,82,8.133C81.57,8.104,81.2,8.432,81.171,8.861
			C81.145,9.29,81.47,9.66,81.899,9.689L81.899,9.689z"/>
		<path style="stroke:#000000;" d="M79.994,8.302c-0.166,0.003-0.332,0.023-0.497,0.013c-1.456-0.101-3.338-0.689-4.296,0.78
			c-0.264,0.338-0.205,0.829,0.136,1.095c0.341,0.264,0.829,0.205,1.095-0.136c0.146-0.205,0.332-0.406,0.602-0.4
			c1.144,0.02,2.297,0.371,3.438,0.137c0.409-0.133,0.637-0.572,0.503-0.981C80.846,8.396,80.404,8.172,79.994,8.302L79.994,8.302z"
			/>
		<path style="stroke:#000000;" d="M80.375,10.535c0.429-0.163,0.832-0.4,1.293-0.458c0.52-0.065,1.034,0.033,1.524,0.215
			c1.147,0.426,1.713,1.605,2.216,2.639c0.179,0.39,0.644,0.559,1.034,0.377c0.393-0.182,0.562-0.647,0.38-1.037
			c-0.621-1.329-1.43-2.71-2.831-3.341c-1.342-0.604-2.883-0.543-4.169,0.146c-0.403,0.153-0.605,0.604-0.452,1.008
			C79.523,10.486,79.972,10.688,80.375,10.535L80.375,10.535z"/>
		<path style="stroke:#000000;" d="M82.763,12.173c0.793,0.435,1.632,0.783,2.321,1.384c0.364,0.231,0.845,0.124,1.076-0.24
			c0.234-0.361,0.124-0.845-0.237-1.076c0.071,0.107,0.143,0.215,0.214,0.322c-0.601-0.89-1.7-1.212-2.587-1.735
			c-0.371-0.218-0.848-0.091-1.066,0.279S82.39,11.955,82.763,12.173L82.763,12.173z"/>
		<path style="stroke:#000000;" d="M83.352,9.846c0.985,0.059,2.057-0.02,2.87,0.646c0.669,1.147,0.602,2.539,0.436,3.809
			c-0.036,0.429,0.286,0.803,0.715,0.839c0.429,0.032,0.806-0.286,0.838-0.715c0.192-1.274,0.198-2.581-0.224-3.822
			c-0.182-0.53-0.416-1.027-0.897-1.407c-1.079-0.852-2.382-0.875-3.65-0.907c-0.429-0.026-0.8,0.305-0.822,0.734
			C82.591,9.452,82.922,9.823,83.352,9.846L83.352,9.846z"/>
		<path style="stroke:#000000;" d="M80.982,9.118c0.01-0.318-0.003-0.644-0.146-0.936c0.016,0.036,0.036,0.071,0.052,0.107
			c-0.176-0.368-0.465-0.663-0.771-0.926c-0.325-0.28-0.816-0.244-1.099,0.081s-0.247,0.819,0.082,1.102
			c0.13,0.114,0.247,0.241,0.364,0.364c-0.026-0.071-0.055-0.14-0.081-0.211c0.039,0.098,0.078,0.192,0.117,0.29
			c-0.023-0.042-0.049-0.082-0.072-0.124c-0.003,0.084-0.006,0.169-0.006,0.253c0,0.432,0.348,0.78,0.78,0.78
			C80.635,9.897,80.982,9.55,80.982,9.118L80.982,9.118z"/>
	</g>
</svg>
