<?xml version="1.0" encoding="UTF-8" standalone="no"?>
<!-- Generator: Adobe Illustrator 11 Build 196, SVG Export Plug-In . SVG Version: 6.0.0 Build 78)  -->
<svg
   xmlns:dc="http://purl.org/dc/elements/1.1/"
   xmlns:cc="http://creativecommons.org/ns#"
   xmlns:rdf="http://www.w3.org/1999/02/22-rdf-syntax-ns#"
   xmlns:svg="http://www.w3.org/2000/svg"
   xmlns="http://www.w3.org/2000/svg"
   xmlns:sodipodi="http://sodipodi.sourceforge.net/DTD/sodipodi-0.dtd"
   xmlns:inkscape="http://www.inkscape.org/namespaces/inkscape"
   width="100.467"
   height="100.843"
   viewBox="0 0 100.467 100.843"
   style="overflow:visible;enable-background:new 0 0 100.467 100.843"
   xml:space="preserve"
   id="svg2"
   sodipodi:version="0.32"
   inkscape:version="0.46"
   sodipodi:docname="france.svg"
   inkscape:output_extension="org.inkscape.output.svg.inkscape"><metadata
   id="metadata208"><rdf:RDF><cc:Work
       rdf:about=""><dc:format>image/svg+xml</dc:format><dc:type
         rdf:resource="http://purl.org/dc/dcmitype/StillImage" /></cc:Work></rdf:RDF></metadata><defs
   id="defs206"><inkscape:perspective
   sodipodi:type="inkscape:persp3d"
   inkscape:vp_x="0 : 50.421501 : 1"
   inkscape:vp_y="0 : 1000 : 0"
   inkscape:vp_z="100.467 : 50.421501 : 1"
   inkscape:persp3d-origin="50.233501 : 33.614334 : 1"
   id="perspective210" />
		
		
		
		
		
		
	</defs><sodipodi:namedview
   inkscape:cy="46.505246"
   inkscape:cx="52.293452"
   inkscape:zoom="6.2052781"
   inkscape:window-height="996"
   inkscape:window-width="1278"
   inkscape:pageshadow="2"
   inkscape:pageopacity="0.0"
   guidetolerance="10.0"
   gridtolerance="10.0"
   objecttolerance="10.0"
   borderopacity="1.0"
   bordercolor="#666666"
   pagecolor="#ffffff"
   id="base"
   showgrid="false"
   inkscape:window-x="1"
   inkscape:window-y="1"
   inkscape:current-layer="svg2" />
	<style
   type="text/css"
   id="style4">
	
	</style>
	<g
   id="g7">
			<g
   id="g9">
				<defs
   id="defs11">
					<path
   d="M 19.516,90.33 C 0.101,74.925 -2.3,52.71 1.543,38.367 C 8.084,13.959 27.502,2.986 43.493,0.856 C 52.92,-0.4 67.073,0.324 80.955,10.903 C 74.993,6.285 67.016,4.159 57.787,5.415 C 67.016,4.16 74.993,6.285 80.955,10.903 C 87.587,16.38 94.293,23.263 98.418,36.436 C 101.248,45.474 101.147,55.327 98.119,65.723 C 93.667,81.007 78.22,98.448 54.823,100.623 C 36.778,102.299 24.121,93.983 19.516,90.33 z"
   id="XMLID_3_" />
				</defs>
				<use
   height="100.843"
   width="100.467"
   y="0"
   x="0"
   id="use14"
   style="fill:#eeeeee"
   href="#XMLID_3_" />
				<clipPath
   id="XMLID_5_">
					<use
   height="100.843"
   width="100.467"
   y="0"
   x="0"
   id="use17"
   href="#XMLID_3_" />
				</clipPath>
				<g
   id="g19">
					<path
   id="path21"
   d="M 19.516,90.33 C 0.101,74.925 -2.3,52.71 1.543,38.367 C 8.084,13.959 27.502,2.986 43.493,0.856 C 52.92,-0.4 67.073,0.324 80.955,10.903 C 74.993,6.285 67.016,4.159 57.787,5.415 C 67.016,4.16 74.993,6.285 80.955,10.903 C 87.587,16.38 94.293,23.263 98.418,36.436 C 101.248,45.474 101.147,55.327 98.119,65.723 C 93.667,81.007 78.22,98.448 54.823,100.623 C 36.778,102.299 24.121,93.983 19.516,90.33"
   style="fill:#e5e5e5" />
					<g
   id="g23">
						<path
   id="path25"
   d="M 43.493,0.856 C 44.415,0.736 45.81,0.555 47.877,0.453 L 49.753,0.399 C 50.314,0.404 51.063,0.4 51.623,0.415 L 53.318,0.491 C 53.819,0.53 54.488,0.574 54.988,0.622 L 56.58,0.8 C 57.052,0.868 57.683,0.947 58.152,1.026 L 59.707,1.3 L 61.256,1.623 L 62.831,2.004 C 63.309,2.136 63.948,2.305 64.424,2.445 L 66.078,2.963 C 66.591,3.144 67.279,3.376 67.788,3.566 L 69.586,4.277 C 70.165,4.532 70.94,4.863 71.514,5.131 L 73.522,6.128 C 74.211,6.51 75.136,7.008 75.815,7.408 L 78.07,8.829 C 78.94,9.445 80.106,10.258 80.953,10.904 C 75.103,6.373 67.314,4.241 58.305,5.348 L 58.305,5.348 C 55.983,3.315 50.852,0.046 42.579,0.99 C 42.854,0.949 43.219,0.892 43.493,0.856"
   style="fill:#e5e5e5" />
						<path
   id="path27"
   d="M 80.956,10.904 C 82.839,12.459 85.418,14.589 87.981,17.508 L 90.201,20.221 C 91.176,21.599 92.459,23.45 93.355,24.881 L 95.136,28.124 C 95.775,29.523 96.634,31.388 97.2,32.819 L 98.418,36.436 C 98.78,37.867 99.283,39.772 99.574,41.219 L 100.153,45.09 C 100.255,46.548 100.417,48.492 100.447,49.954 L 100.334,53.967 C 100.173,55.441 99.989,57.411 99.757,58.876 L 98.924,62.867 L 98.118,65.723 L 96.773,69.474 C 96.176,70.797 95.405,72.574 94.745,73.867 L 92.818,77.234 C 91.996,78.443 90.917,80.068 90.037,81.236 L 87.629,84.131 C 86.577,85.22 85.179,86.68 84.073,87.715 L 81.33,90.04 C 80.009,91.008 78.237,92.288 76.865,93.183 L 74.016,94.838 C 72.304,95.689 69.986,96.755 68.224,97.496 L 65.644,98.406 C 62.649,99.282 60.842,99.811 56.976,100.377 L 54.823,100.623 C 54.154,100.671 53.263,100.747 52.593,100.779 L 50.716,100.833 C 50.155,100.829 49.407,100.832 48.847,100.817 L 47.152,100.741 C 46.651,100.702 45.982,100.658 45.482,100.61 L 43.89,100.432 C 43.418,100.364 42.788,100.282 42.318,100.206 L 40.763,99.932 C 40.298,99.835 39.678,99.712 39.214,99.609 L 37.639,99.228 C 37.161,99.096 36.522,98.928 36.046,98.787 L 34.392,98.269 C 33.879,98.088 33.191,97.856 32.682,97.666 L 30.885,96.956 C 30.306,96.701 29.53,96.37 28.957,96.102 L 26.949,95.106 C 26.26,94.724 25.334,94.225 24.655,93.825 L 22.401,92.405 C 21.531,91.789 20.365,90.975 19.518,90.33 L 17.089,88.324 C 14.011,85.439 13.891,85.327 12.318,83.527 L 10.108,80.796 C 9.144,79.418 7.874,77.567 6.988,76.136 L 5.22,72.882 C 4.59,71.481 3.741,69.615 3.183,68.184 L 1.982,64.559 C 1.627,63.127 1.134,61.221 0.85,59.773 L 0.29,55.897 C 0.195,54.438 0.042,52.493 0.019,51.03 L 0.04,51.644 C 1.682,65.513 17.719,69.064 22.594,69.822 C 55.545,74.946 65.49,76.491 74.347,63.197 C 86.866,44.406 64.668,9.898 58.305,5.347 C 67.315,4.24 75.105,6.372 80.956,10.904"
   style="fill:#e5e5e5" />
					</g>
					<g
   id="g29">
						<path
   id="path31"
   d="M 47.876,0.453 C 50.36,0.381 50.36,0.381 51.623,0.415 L 53.318,0.491 C 53.819,0.53 54.488,0.574 54.988,0.622 L 56.58,0.8 C 57.052,0.868 57.683,0.947 58.152,1.026 L 59.707,1.3 L 61.256,1.623 L 62.831,2.004 C 63.309,2.136 63.948,2.305 64.424,2.445 L 66.078,2.963 C 66.591,3.144 67.279,3.376 67.788,3.566 L 69.586,4.277 C 70.165,4.532 70.94,4.863 71.514,5.131 L 73.522,6.128 C 74.211,6.51 75.136,7.008 75.815,7.408 L 78.07,8.829 C 78.94,9.445 80.106,10.258 80.953,10.904 C 75.453,6.644 68.239,4.505 59.909,5.184 L 59.909,5.184 C 59.853,5.131 54.048,-0.123 45.281,0.646 L 47.371,0.481 L 47.876,0.453"
   style="fill:#e4e4e4" />
						<path
   id="path33"
   d="M 80.956,10.904 C 82.839,12.459 85.418,14.589 87.981,17.508 L 90.201,20.221 C 91.176,21.599 92.459,23.45 93.355,24.881 L 95.136,28.124 C 95.775,29.523 96.634,31.388 97.2,32.819 L 98.418,36.436 C 98.78,37.867 99.283,39.772 99.574,41.219 L 100.153,45.09 C 100.255,46.548 100.417,48.492 100.447,49.954 L 100.334,53.967 C 100.173,55.441 99.989,57.411 99.757,58.876 L 98.924,62.867 L 98.118,65.723 L 96.773,69.474 C 96.176,70.797 95.405,72.574 94.745,73.867 L 92.818,77.234 C 91.996,78.443 90.917,80.068 90.037,81.236 L 87.629,84.131 C 86.577,85.22 85.179,86.68 84.073,87.715 L 81.33,90.04 C 80.009,91.008 78.237,92.288 76.865,93.183 L 74.016,94.838 C 72.304,95.689 69.986,96.755 68.224,97.496 L 65.644,98.406 C 62.649,99.282 60.842,99.811 56.976,100.377 L 54.823,100.623 C 54.154,100.671 53.263,100.747 52.593,100.779 L 50.716,100.833 C 50.155,100.829 49.407,100.832 48.847,100.817 L 47.152,100.741 C 46.651,100.702 45.982,100.658 45.482,100.61 L 43.89,100.432 C 43.418,100.364 42.788,100.282 42.318,100.206 L 40.763,99.932 C 40.298,99.835 39.678,99.712 39.214,99.609 L 37.639,99.228 C 37.161,99.096 36.522,98.928 36.046,98.787 L 34.392,98.269 C 33.879,98.088 33.191,97.856 32.682,97.666 L 30.885,96.956 C 30.306,96.701 29.53,96.37 28.957,96.102 L 26.949,95.106 C 26.26,94.724 25.334,94.225 24.655,93.825 L 22.401,92.405 C 21.531,91.789 20.365,90.975 19.518,90.33 L 17.089,88.324 C 14.011,85.439 13.891,85.327 12.318,83.527 L 10.108,80.796 C 9.144,79.418 7.874,77.567 6.988,76.136 L 5.22,72.882 C 4.59,71.481 3.741,69.615 3.183,68.184 L 1.982,64.559 C 1.627,63.127 1.134,61.221 0.85,59.773 L 0.29,55.897 L 0.088,53.343 L 0.101,53.56 C 1.737,65.97 14.934,70.482 25.717,72.082 C 51.772,75.948 64.85,77.888 74.847,64.649 C 89.878,44.744 65.791,9.373 59.91,5.183 C 68.241,4.504 75.455,6.643 80.956,10.904"
   style="fill:#e4e4e4" />
					</g>
					<g
   id="g35">
						<path
   id="path37"
   d="M 51.623,0.415 C 53.877,0.516 53.877,0.516 54.988,0.622 L 56.58,0.8 C 57.052,0.868 57.683,0.947 58.152,1.026 L 59.707,1.3 L 61.256,1.623 L 62.831,2.004 C 63.309,2.136 63.948,2.305 64.424,2.445 L 66.078,2.963 C 66.591,3.144 67.279,3.376 67.788,3.566 L 69.586,4.277 C 70.165,4.532 70.94,4.863 71.514,5.131 L 73.522,6.128 C 74.211,6.51 75.136,7.008 75.815,7.408 L 78.07,8.829 C 78.94,9.445 80.106,10.258 80.953,10.904 C 75.803,6.915 69.149,4.786 61.484,5.089 L 61.484,5.089 C 61.433,5.039 55.944,0.146 48.03,0.447 L 49.902,0.399 L 51.623,0.415"
   style="fill:#e3e3e3" />
						<path
   id="path39"
   d="M 80.956,10.904 C 82.839,12.459 85.418,14.589 87.981,17.508 L 90.201,20.221 C 91.176,21.599 92.459,23.45 93.355,24.881 L 95.136,28.124 C 95.775,29.523 96.634,31.388 97.2,32.819 L 98.418,36.436 C 98.78,37.867 99.283,39.772 99.574,41.219 L 100.153,45.09 C 100.255,46.548 100.417,48.492 100.447,49.954 L 100.334,53.967 C 100.173,55.441 99.989,57.411 99.757,58.876 L 98.924,62.867 L 98.118,65.723 L 96.773,69.474 C 96.176,70.797 95.405,72.574 94.745,73.867 L 92.818,77.234 C 91.996,78.443 90.917,80.068 90.037,81.236 L 87.629,84.131 C 86.577,85.22 85.179,86.68 84.073,87.715 L 81.33,90.04 C 80.009,91.008 78.237,92.288 76.865,93.183 L 74.016,94.838 C 72.304,95.689 69.986,96.755 68.224,97.496 L 65.644,98.406 C 62.649,99.282 60.842,99.811 56.976,100.377 L 54.823,100.623 C 54.154,100.671 53.263,100.747 52.593,100.779 L 50.716,100.833 C 50.155,100.829 49.407,100.832 48.847,100.817 L 47.152,100.741 C 46.651,100.702 45.982,100.658 45.482,100.61 L 43.89,100.432 C 43.418,100.364 42.788,100.282 42.318,100.206 L 40.763,99.932 C 40.298,99.835 39.678,99.712 39.214,99.609 L 37.639,99.228 C 37.161,99.096 36.522,98.928 36.046,98.787 L 34.392,98.269 C 33.879,98.088 33.191,97.856 32.682,97.666 L 30.885,96.956 C 30.306,96.701 29.53,96.37 28.957,96.102 L 26.949,95.106 C 26.26,94.724 25.334,94.225 24.655,93.825 L 22.401,92.405 C 21.531,91.789 20.365,90.975 19.518,90.33 L 17.089,88.324 C 14.011,85.439 13.891,85.327 12.318,83.527 L 10.108,80.796 C 9.144,79.418 7.874,77.567 6.988,76.136 L 5.22,72.882 C 4.59,71.481 3.741,69.615 3.183,68.184 L 1.982,64.559 C 1.627,63.127 1.134,61.221 0.85,59.773 C 0.683,58.629 0.462,57.105 0.296,55.962 C 0.406,56.595 0.553,57.439 0.664,58.072 C 3.718,69.08 18.157,74.764 47.481,76.503 C 62.629,77.401 73.167,72.759 78.801,62.705 C 87.655,46.906 72.02,11.974 61.485,5.088 C 69.151,4.785 75.805,6.914 80.956,10.904"
   style="fill:#e3e3e3" />
					</g>
					<g
   id="g41">
						<path
   id="path43"
   d="M 51.623,0.415 C 52.249,0.435 53.415,0.472 54.988,0.622 L 56.58,0.8 C 57.052,0.868 57.683,0.947 58.152,1.026 L 59.707,1.3 L 61.256,1.623 L 62.831,2.004 C 63.309,2.136 63.948,2.305 64.424,2.445 L 66.078,2.963 C 66.591,3.144 67.279,3.376 67.788,3.566 L 69.586,4.277 C 70.165,4.532 70.94,4.863 71.514,5.131 L 73.522,6.128 C 74.211,6.51 75.136,7.008 75.815,7.408 L 78.07,8.829 C 78.94,9.445 80.106,10.258 80.953,10.904 C 76.176,7.204 70.106,5.104 63.135,5.061 L 63.135,5.061 C 63.087,5.016 58.111,0.518 50.709,0.4 C 50.984,0.403 51.35,0.407 51.623,0.415"
   style="fill:#e2e2e2" />
						<path
   id="path45"
   d="M 80.956,10.904 C 82.839,12.459 85.418,14.589 87.981,17.508 L 90.201,20.221 C 91.176,21.599 92.459,23.45 93.355,24.881 L 95.136,28.124 C 95.775,29.523 96.634,31.388 97.2,32.819 L 98.418,36.436 C 98.78,37.867 99.283,39.772 99.574,41.219 L 100.153,45.09 C 100.255,46.548 100.417,48.492 100.447,49.954 L 100.334,53.967 C 100.173,55.441 99.989,57.411 99.757,58.876 L 98.924,62.867 L 98.118,65.723 L 96.773,69.474 C 96.176,70.797 95.405,72.574 94.745,73.867 L 92.818,77.234 C 91.996,78.443 90.917,80.068 90.037,81.236 L 87.629,84.131 C 86.577,85.22 85.179,86.68 84.073,87.715 L 81.33,90.04 C 80.009,91.008 78.237,92.288 76.865,93.183 L 74.016,94.838 C 72.304,95.689 69.986,96.755 68.224,97.496 L 65.644,98.406 C 62.649,99.282 60.842,99.811 56.976,100.377 L 54.823,100.623 C 54.154,100.671 53.263,100.747 52.593,100.779 L 50.716,100.833 C 50.155,100.829 49.407,100.832 48.847,100.817 L 47.152,100.741 C 46.651,100.702 45.982,100.658 45.482,100.61 L 43.89,100.432 C 43.418,100.364 42.788,100.282 42.318,100.206 L 40.763,99.932 C 40.298,99.835 39.678,99.712 39.214,99.609 L 37.639,99.228 C 37.161,99.096 36.522,98.928 36.046,98.787 L 34.392,98.269 C 33.879,98.088 33.191,97.856 32.682,97.666 L 30.885,96.956 C 30.306,96.701 29.53,96.37 28.957,96.102 L 26.949,95.106 C 26.26,94.724 25.334,94.225 24.655,93.825 L 22.401,92.405 C 21.531,91.789 20.365,90.975 19.518,90.33 L 17.089,88.324 C 14.011,85.439 13.891,85.327 12.318,83.527 L 10.108,80.796 C 9.144,79.418 7.874,77.567 6.988,76.136 L 5.22,72.882 C 4.59,71.481 3.741,69.615 3.183,68.184 L 1.982,64.559 C 1.627,63.127 1.134,61.221 0.85,59.773 C 0.785,59.393 0.698,58.887 0.633,58.507 C 0.775,59.134 0.963,59.969 1.105,60.596 C 5.438,74.604 32.158,78.207 53.81,78.761 C 63.252,79.003 75.871,74.064 81.263,62.649 C 91.338,41.32 69.155,8.835 63.136,5.06 C 70.108,5.103 76.178,7.204 80.956,10.904"
   style="fill:#e2e2e2" />
					</g>
					<g
   id="g47">
						<path
   id="path49"
   d="M 54.988,0.622 C 56.743,0.79 58.096,1.017 58.153,1.026 L 59.708,1.3 L 61.257,1.623 L 62.832,2.004 C 63.31,2.136 63.949,2.305 64.425,2.445 L 66.079,2.963 C 66.592,3.144 67.28,3.376 67.789,3.566 L 69.587,4.277 C 70.166,4.532 70.941,4.863 71.515,5.131 L 73.523,6.128 C 74.212,6.51 75.137,7.008 75.816,7.408 L 78.071,8.829 C 78.941,9.445 80.107,10.258 80.954,10.904 C 76.555,7.497 71.059,5.446 64.774,5.11 L 64.774,5.11 C 64.728,5.068 59.959,0.924 53.451,0.501 C 53.913,0.536 54.528,0.578 54.988,0.622"
   style="fill:#e2e2e2" />
						<path
   id="path51"
   d="M 80.956,10.904 C 82.839,12.459 85.418,14.589 87.981,17.508 L 90.201,20.221 C 91.176,21.599 92.459,23.45 93.355,24.881 L 95.136,28.124 C 95.775,29.523 96.634,31.388 97.2,32.819 L 98.418,36.436 C 98.78,37.867 99.283,39.772 99.574,41.219 L 100.153,45.09 C 100.255,46.548 100.417,48.492 100.447,49.954 L 100.334,53.967 C 100.173,55.441 99.989,57.411 99.757,58.876 L 98.924,62.867 L 98.118,65.723 L 96.773,69.474 C 96.176,70.797 95.405,72.574 94.745,73.867 L 92.818,77.234 C 91.996,78.443 90.917,80.068 90.037,81.236 L 87.629,84.131 C 86.577,85.22 85.179,86.68 84.073,87.715 L 81.33,90.04 C 80.009,91.008 78.237,92.288 76.865,93.183 L 74.016,94.838 C 72.304,95.689 69.986,96.755 68.224,97.496 L 65.644,98.406 C 62.649,99.282 60.842,99.811 56.976,100.377 L 54.823,100.623 C 54.154,100.671 53.263,100.747 52.593,100.779 L 50.716,100.833 C 50.155,100.829 49.407,100.832 48.847,100.817 L 47.152,100.741 C 46.651,100.702 45.982,100.658 45.482,100.61 L 43.89,100.432 C 43.418,100.364 42.788,100.282 42.318,100.206 L 40.763,99.932 C 40.298,99.835 39.678,99.712 39.214,99.609 L 37.639,99.228 C 37.161,99.096 36.522,98.928 36.046,98.787 L 34.392,98.269 C 33.879,98.088 33.191,97.856 32.682,97.666 L 30.885,96.956 C 30.306,96.701 29.53,96.37 28.957,96.102 L 26.949,95.106 C 26.26,94.724 25.334,94.225 24.655,93.825 L 22.401,92.405 C 21.531,91.789 20.365,90.975 19.518,90.33 L 17.089,88.324 C 14.011,85.439 13.891,85.327 12.318,83.527 L 10.108,80.796 C 9.144,79.418 7.874,77.567 6.988,76.136 L 5.22,72.882 C 4.59,71.481 3.741,69.615 3.183,68.184 L 1.982,64.559 L 1.131,61.182 L 1.652,63.052 C 9.64,80.93 52.868,81.246 53.3,81.238 C 69.681,80.931 80.374,74.287 85.083,61.49 C 92.95,40.107 71.408,9.408 64.774,5.108 C 71.061,5.446 76.556,7.496 80.956,10.904"
   style="fill:#e2e2e2" />
					</g>
					<g
   id="g53">
						<path
   id="path55"
   d="M 58.153,1.025 C 59.087,1.19 60.329,1.429 61.257,1.622 L 62.832,2.003 C 63.31,2.135 63.949,2.304 64.425,2.444 L 66.079,2.962 C 66.592,3.143 67.28,3.375 67.789,3.565 L 69.587,4.276 C 70.166,4.531 70.941,4.862 71.515,5.13 L 73.523,6.127 C 74.212,6.509 75.137,7.007 75.816,7.407 L 78.071,8.828 C 78.941,9.444 80.107,10.257 80.954,10.903 C 76.959,7.809 72.061,5.834 66.487,5.245 C 66.487,5.245 66.487,5.245 66.487,5.245 C 65.31,4.2 61.177,1.358 56.272,0.761 L 57.848,0.978 L 58.153,1.025"
   style="fill:#e1e1e1" />
						<path
   id="path57"
   d="M 80.956,10.904 C 82.839,12.459 85.418,14.589 87.981,17.508 L 90.201,20.221 C 91.176,21.599 92.459,23.45 93.355,24.881 L 95.136,28.124 C 95.775,29.523 96.634,31.388 97.2,32.819 L 98.418,36.436 C 98.78,37.867 99.283,39.772 99.574,41.219 L 100.153,45.09 C 100.255,46.548 100.417,48.492 100.447,49.954 L 100.334,53.967 C 100.173,55.441 99.989,57.411 99.757,58.876 L 98.924,62.867 L 98.118,65.723 L 96.773,69.474 C 96.176,70.797 95.405,72.574 94.745,73.867 L 92.818,77.234 C 91.996,78.443 90.917,80.068 90.037,81.236 L 87.629,84.131 C 86.577,85.22 85.179,86.68 84.073,87.715 L 81.33,90.04 C 80.009,91.008 78.237,92.288 76.865,93.183 L 74.016,94.838 C 72.304,95.689 69.986,96.755 68.224,97.496 L 65.644,98.406 C 62.649,99.282 60.842,99.811 56.976,100.377 L 54.823,100.623 C 54.154,100.671 53.263,100.747 52.593,100.779 L 50.716,100.833 C 50.155,100.829 49.407,100.832 48.847,100.817 L 47.152,100.741 C 46.651,100.702 45.982,100.658 45.482,100.61 L 43.89,100.432 C 43.418,100.364 42.788,100.282 42.318,100.206 L 40.763,99.932 C 40.298,99.835 39.678,99.712 39.214,99.609 L 37.639,99.228 C 37.161,99.096 36.522,98.928 36.046,98.787 L 34.392,98.269 C 33.879,98.088 33.191,97.856 32.682,97.666 L 30.885,96.956 C 30.306,96.701 29.53,96.37 28.957,96.102 L 26.949,95.106 C 26.26,94.724 25.334,94.225 24.655,93.825 L 22.401,92.405 C 21.531,91.789 20.365,90.975 19.518,90.33 L 17.089,88.324 C 14.011,85.439 13.891,85.327 12.318,83.527 L 10.108,80.796 C 9.144,79.418 7.874,77.567 6.988,76.136 L 5.22,72.882 C 4.59,71.481 3.741,69.615 3.183,68.184 L 1.982,64.559 L 1.795,63.896 L 2.158,65.048 C 10.336,83.171 58.607,84.295 59.081,84.277 C 59.926,84.245 79.854,83.252 88.011,61.817 C 96.629,39.168 72.313,9.041 66.488,5.245 C 72.062,5.834 76.96,7.81 80.956,10.904"
   style="fill:#e1e1e1" />
					</g>
					<g
   id="g59">
						<path
   id="path61"
   d="M 61.257,1.623 C 63.349,2.129 63.349,2.129 64.425,2.445 L 66.079,2.963 C 66.592,3.144 67.28,3.376 67.789,3.566 L 69.587,4.277 C 70.166,4.532 70.941,4.863 71.515,5.131 L 73.523,6.128 C 74.212,6.51 75.137,7.008 75.816,7.408 L 78.071,8.829 C 78.941,9.445 80.107,10.258 80.954,10.904 C 77.388,8.142 73.1,6.271 68.256,5.483 L 68.256,5.483 C 67.86,5.145 64.235,2.157 59.213,1.208 L 60.765,1.516 L 61.257,1.623"
   style="fill:#e0e0e0" />
						<path
   id="path63"
   d="M 80.956,10.904 C 82.839,12.459 85.418,14.589 87.981,17.508 L 90.201,20.221 C 91.176,21.599 92.459,23.45 93.355,24.881 L 95.136,28.124 C 95.775,29.523 96.634,31.388 97.2,32.819 L 98.418,36.436 C 98.78,37.867 99.283,39.772 99.574,41.219 L 100.153,45.09 C 100.255,46.548 100.417,48.492 100.447,49.954 L 100.334,53.967 C 100.173,55.441 99.989,57.411 99.757,58.876 L 98.924,62.867 L 98.118,65.723 L 96.773,69.474 C 96.176,70.797 95.405,72.574 94.745,73.867 L 92.818,77.234 C 91.996,78.443 90.917,80.068 90.037,81.236 L 87.629,84.131 C 86.577,85.22 85.179,86.68 84.073,87.715 L 81.33,90.04 C 80.009,91.008 78.237,92.288 76.865,93.183 L 74.016,94.838 C 72.304,95.689 69.986,96.755 68.224,97.496 L 65.644,98.406 C 62.649,99.282 60.842,99.811 56.976,100.377 L 54.823,100.623 C 54.154,100.671 53.263,100.747 52.593,100.779 L 50.716,100.833 C 50.155,100.829 49.407,100.832 48.847,100.817 L 47.152,100.741 C 46.651,100.702 45.982,100.658 45.482,100.61 L 43.89,100.432 C 43.418,100.364 42.788,100.282 42.318,100.206 L 40.763,99.932 C 40.298,99.835 39.678,99.712 39.214,99.609 L 37.639,99.228 C 37.161,99.096 36.522,98.928 36.046,98.787 L 34.392,98.269 C 33.879,98.088 33.191,97.856 32.682,97.666 L 30.885,96.956 C 30.306,96.701 29.53,96.37 28.957,96.102 L 26.949,95.106 C 26.26,94.724 25.334,94.225 24.655,93.825 L 22.401,92.405 C 21.531,91.789 20.365,90.975 19.518,90.33 L 17.089,88.324 C 14.011,85.439 13.891,85.327 12.318,83.527 L 10.108,80.796 C 9.144,79.418 7.874,77.567 6.988,76.136 L 5.22,72.882 C 4.59,71.481 3.741,69.615 3.183,68.184 C 3.028,67.751 2.823,67.174 2.668,66.741 C 2.71,66.857 2.764,67.012 2.805,67.128 C 10.612,84.242 57.638,87.54 58.091,87.525 C 69.55,87.16 83.85,79.851 89.968,64.348 C 101.661,34.712 68.612,5.72 68.256,5.481 C 73.102,6.271 77.389,8.141 80.956,10.904"
   style="fill:#e0e0e0" />
					</g>
					<g
   id="g65">
						<path
   id="path67"
   d="M 64.425,2.445 C 66.615,3.131 66.657,3.144 67.789,3.566 L 69.587,4.277 C 70.166,4.532 70.941,4.863 71.515,5.131 L 73.523,6.128 C 74.212,6.51 75.137,7.008 75.816,7.408 L 78.071,8.829 C 78.941,9.445 80.107,10.258 80.954,10.904 C 77.858,8.506 74.218,6.78 70.142,5.85 L 70.142,5.85 C 68.935,4.836 66.315,2.972 62.332,1.878 L 63.914,2.298 L 64.425,2.445"
   style="fill:#e0e0e0" />
						<path
   id="path69"
   d="M 80.956,10.904 C 82.839,12.459 85.418,14.589 87.981,17.508 L 90.201,20.221 C 91.176,21.599 92.459,23.45 93.355,24.881 L 95.136,28.124 C 95.775,29.523 96.634,31.388 97.2,32.819 L 98.418,36.436 C 98.78,37.867 99.283,39.772 99.574,41.219 L 100.153,45.09 C 100.255,46.548 100.417,48.492 100.447,49.954 L 100.334,53.967 C 100.173,55.441 99.989,57.411 99.757,58.876 L 98.924,62.867 L 98.118,65.723 L 96.773,69.474 C 96.176,70.797 95.405,72.574 94.745,73.867 L 92.818,77.234 C 91.996,78.443 90.917,80.068 90.037,81.236 L 87.629,84.131 C 86.577,85.22 85.179,86.68 84.073,87.715 L 81.33,90.04 C 80.009,91.008 78.237,92.288 76.865,93.183 L 74.016,94.838 C 72.304,95.689 69.986,96.755 68.224,97.496 L 65.644,98.406 C 62.649,99.282 60.842,99.811 56.976,100.377 L 54.823,100.623 C 54.154,100.671 53.263,100.747 52.593,100.779 L 50.716,100.833 C 50.155,100.829 49.407,100.832 48.847,100.817 L 47.152,100.741 C 46.651,100.702 45.982,100.658 45.482,100.61 L 43.89,100.432 C 43.418,100.364 42.788,100.282 42.318,100.206 L 40.763,99.932 C 40.298,99.835 39.678,99.712 39.214,99.609 L 37.639,99.228 C 37.161,99.096 36.522,98.928 36.046,98.787 L 34.392,98.269 C 33.879,98.088 33.191,97.856 32.682,97.666 L 30.885,96.956 C 30.306,96.701 29.53,96.37 28.957,96.102 L 26.949,95.106 C 26.26,94.724 25.334,94.225 24.655,93.825 L 22.401,92.405 C 21.531,91.789 20.365,90.975 19.518,90.33 L 17.089,88.324 C 14.011,85.439 13.891,85.327 12.318,83.527 L 10.108,80.796 C 9.144,79.418 7.874,77.567 6.988,76.136 L 5.22,72.882 L 3.781,69.707 L 4.556,71.27 C 10.235,80.422 45.722,92.205 61.23,90.088 C 65.638,89.486 87.935,85.162 94.011,59.057 C 100.57,30.878 70.457,6.061 70.143,5.849 C 74.219,6.779 77.859,8.505 80.956,10.904"
   style="fill:#e0e0e0" />
					</g>
					<g
   id="g71">
						<path
   id="path73"
   d="M 67.789,3.565 C 70.145,4.497 70.237,4.533 71.515,5.129 L 73.523,6.126 C 74.212,6.508 75.137,7.006 75.816,7.406 L 78.071,8.827 C 78.941,9.443 80.107,10.256 80.954,10.902 C 78.371,8.901 75.409,7.368 72.131,6.375 L 72.131,6.375 C 70.169,4.796 68,3.604 65.684,2.833 L 67.355,3.406 L 67.789,3.565"
   style="fill:#dedede" />
						<path
   id="path75"
   d="M 80.956,10.904 C 82.839,12.459 85.418,14.589 87.981,17.508 L 90.201,20.221 C 91.176,21.599 92.459,23.45 93.355,24.881 L 95.136,28.124 C 95.775,29.523 96.634,31.388 97.2,32.819 L 98.418,36.436 C 98.78,37.867 99.283,39.772 99.574,41.219 L 100.153,45.09 C 100.255,46.548 100.417,48.492 100.447,49.954 L 100.334,53.967 C 100.173,55.441 99.989,57.411 99.757,58.876 L 98.924,62.867 L 98.118,65.723 L 96.773,69.474 C 96.176,70.797 95.405,72.574 94.745,73.867 L 92.818,77.234 C 91.996,78.443 90.917,80.068 90.037,81.236 L 87.629,84.131 C 86.577,85.22 85.179,86.68 84.073,87.715 L 81.33,90.04 C 80.009,91.008 78.237,92.288 76.865,93.183 L 74.016,94.838 C 72.304,95.689 69.986,96.755 68.224,97.496 L 65.644,98.406 C 62.649,99.282 60.842,99.811 56.976,100.377 L 54.823,100.623 C 54.154,100.671 53.263,100.747 52.593,100.779 L 50.716,100.833 C 50.155,100.829 49.407,100.832 48.847,100.817 L 47.152,100.741 C 46.651,100.702 45.982,100.658 45.482,100.61 L 43.89,100.432 C 43.418,100.364 42.788,100.282 42.318,100.206 L 40.763,99.932 C 40.298,99.835 39.678,99.712 39.214,99.609 L 37.639,99.228 C 37.161,99.096 36.522,98.928 36.046,98.787 L 34.392,98.269 C 33.879,98.088 33.191,97.856 32.682,97.666 L 30.885,96.956 C 30.306,96.701 29.53,96.37 28.957,96.102 L 26.949,95.106 C 26.26,94.724 25.334,94.225 24.655,93.825 L 22.401,92.405 C 21.531,91.789 20.365,90.975 19.518,90.33 L 17.089,88.324 C 14.011,85.439 13.891,85.327 12.318,83.527 L 10.108,80.796 C 9.144,79.418 7.874,77.567 6.988,76.136 L 5.22,72.882 L 5.137,72.714 L 5.294,73.021 C 9.777,80.522 41.924,95.378 61.61,92.815 C 75.173,91.049 91.228,79.641 95.667,61.254 C 103.412,29.175 72.447,6.596 72.132,6.377 C 75.41,7.369 78.372,8.902 80.956,10.904"
   style="fill:#dedede" />
					</g>
					<g
   id="g77">
						<path
   id="path79"
   d="M 71.515,5.13 C 74.129,6.427 74.286,6.505 75.816,7.407 L 78.071,8.828 C 78.941,9.444 80.107,10.257 80.954,10.903 C 79.004,9.392 76.838,8.148 74.483,7.202 L 74.483,7.202 C 73.507,6.435 72.171,5.384 69.449,4.219 L 71.274,5.018 L 71.515,5.13"
   style="fill:#dedede" />
						<path
   id="path81"
   d="M 80.956,10.904 C 82.839,12.459 85.418,14.589 87.981,17.508 L 90.201,20.221 C 91.176,21.599 92.459,23.45 93.355,24.881 L 95.136,28.124 C 95.775,29.523 96.634,31.388 97.2,32.819 L 98.418,36.436 C 98.78,37.867 99.283,39.772 99.574,41.219 L 100.153,45.09 C 100.255,46.548 100.417,48.492 100.447,49.954 L 100.334,53.967 C 100.173,55.441 99.989,57.411 99.757,58.876 L 98.924,62.867 L 98.118,65.723 L 96.773,69.474 C 96.176,70.797 95.405,72.574 94.745,73.867 L 92.818,77.234 C 91.996,78.443 90.917,80.068 90.037,81.236 L 87.629,84.131 C 86.577,85.22 85.179,86.68 84.073,87.715 L 81.33,90.04 C 80.009,91.008 78.237,92.288 76.865,93.183 L 74.016,94.838 C 72.304,95.689 69.986,96.755 68.224,97.496 L 65.644,98.406 C 62.649,99.282 60.842,99.811 56.976,100.377 L 54.823,100.623 C 54.154,100.671 53.263,100.747 52.593,100.779 L 50.716,100.833 C 50.155,100.829 49.407,100.832 48.847,100.817 L 47.152,100.741 C 46.651,100.702 45.982,100.658 45.482,100.61 L 43.89,100.432 C 43.418,100.364 42.788,100.282 42.318,100.206 L 40.763,99.932 C 40.298,99.835 39.678,99.712 39.214,99.609 L 37.639,99.228 C 37.161,99.096 36.522,98.928 36.046,98.787 L 34.392,98.269 C 33.879,98.088 33.191,97.856 32.682,97.666 L 30.885,96.956 C 30.306,96.701 29.53,96.37 28.957,96.102 L 26.949,95.106 C 26.26,94.724 25.334,94.225 24.655,93.825 L 22.401,92.405 C 21.531,91.789 20.365,90.975 19.518,90.33 L 17.089,88.324 C 14.011,85.439 13.891,85.327 12.318,83.527 L 10.109,80.797 C 9.176,79.463 7.942,77.675 7.082,76.293 L 7.494,76.942 C 7.702,77.206 35.716,101.606 65.436,94.504 C 76.326,91.902 95.548,80.694 98.512,55.193 C 101.795,26.925 75.6,7.994 74.483,7.202 C 76.839,8.149 79.005,9.393 80.956,10.904"
   style="fill:#dedede" />
					</g>
					<g
   id="g83">
						<path
   id="path85"
   d="M 75.816,7.407 C 77.774,8.585 79.07,9.467 80.954,10.903 C 79.817,10.022 78.607,9.232 77.329,8.539 L 77.329,8.539 C 76.031,7.555 76.006,7.536 74.573,6.693 C 74.946,6.907 75.448,7.185 75.816,7.407"
   style="fill:#dddddd" />
						<path
   id="path87"
   d="M 80.956,10.904 C 82.839,12.459 85.418,14.589 87.981,17.508 L 90.201,20.221 C 91.176,21.599 92.459,23.45 93.355,24.881 L 95.136,28.124 C 95.775,29.523 96.634,31.388 97.2,32.819 L 98.418,36.436 C 98.78,37.867 99.283,39.772 99.574,41.219 L 100.153,45.09 C 100.255,46.548 100.417,48.492 100.447,49.954 L 100.334,53.967 C 100.173,55.441 99.989,57.411 99.757,58.876 L 98.924,62.867 L 98.118,65.723 L 96.773,69.474 C 96.176,70.797 95.405,72.574 94.745,73.867 L 92.818,77.234 C 91.996,78.443 90.917,80.068 90.037,81.236 L 87.629,84.131 C 86.577,85.22 85.179,86.68 84.073,87.715 L 81.33,90.04 C 80.009,91.008 78.237,92.288 76.865,93.183 L 74.016,94.838 C 72.304,95.689 69.986,96.755 68.224,97.496 L 65.644,98.406 C 62.649,99.282 60.842,99.811 56.976,100.377 L 54.823,100.623 C 54.154,100.671 53.263,100.747 52.593,100.779 L 50.716,100.833 C 50.155,100.829 49.407,100.832 48.847,100.817 L 47.152,100.741 C 46.651,100.702 45.982,100.658 45.482,100.61 L 43.89,100.432 C 43.418,100.364 42.788,100.282 42.318,100.206 L 40.763,99.932 C 40.298,99.835 39.678,99.712 39.214,99.609 L 37.639,99.228 C 37.161,99.096 36.522,98.928 36.046,98.787 L 34.392,98.269 C 33.879,98.088 33.191,97.856 32.682,97.666 L 30.885,96.956 C 30.306,96.701 29.53,96.37 28.957,96.102 L 26.949,95.106 C 26.26,94.724 25.334,94.225 24.655,93.825 L 22.401,92.405 C 21.531,91.789 20.365,90.975 19.518,90.33 L 17.089,88.324 C 14.011,85.439 13.891,85.327 12.318,83.527 L 10.108,80.797 L 10.008,80.663 L 10.995,81.817 C 12.168,82.862 40.078,107.274 70.783,94.909 C 89.884,87.218 101.845,67.117 99.871,46.028 C 98.039,26.46 84.963,14.141 77.331,8.54 C 78.607,9.232 79.818,10.023 80.956,10.904"
   style="fill:#dddddd" />
					</g>
					<path
   id="path89"
   d="M 76.806,53.81 C 72.865,70.454 59.085,72.338 54.955,72.519 C 43.615,73.016 17.611,67.001 17.396,66.938 C 7.39,64.008 3.447,59.065 2.216,57.076 C 0.008,53.509 0.06,50.244 0.098,47.861 L 0.489,43.823 L 0.712,42.356 L 1.544,38.367 C 1.957,36.961 2.48,35.076 2.961,33.691 L 4.439,30.016 C 5.085,28.717 5.923,26.972 6.631,25.705 L 8.671,22.434 C 9.542,21.25 10.689,19.659 11.616,18.519 L 14.11,15.739 C 15.216,14.676 16.687,13.253 17.845,12.248 L 20.634,10.059 C 22.025,9.116 23.894,7.878 25.335,7.014 L 28.163,5.516 C 31.912,3.824 32.059,3.758 34.364,2.976 L 36.897,2.206 C 37.738,1.998 38.856,1.704 39.704,1.519 L 39.792,1.5 C 49.686,-0.062 56.591,3.356 63.626,13.297 C 63.796,13.54 79.664,41.738 76.806,53.81"
   style="fill:#e5e5e5" />
					<path
   id="path91"
   d="M 75.488,52.648 C 74.356,65.635 62.396,71.11 55.124,71.51 C 54.979,71.518 48.479,71.269 48.372,71.251 L 17.423,65.351 C 14.582,64.537 7.511,62.057 3.202,56.626 C 1.639,54.655 -0.36,51.307 0.341,45.009 C 0.622,43.004 1.132,40.349 1.545,38.367 C 1.958,36.961 2.481,35.076 2.962,33.691 L 4.44,30.016 C 5.086,28.717 5.924,26.972 6.632,25.705 L 8.672,22.434 C 9.543,21.25 10.69,19.659 11.617,18.519 L 14.111,15.739 C 15.217,14.676 16.688,13.253 17.846,12.248 L 20.635,10.059 C 22.026,9.116 23.895,7.878 25.336,7.014 L 28.164,5.516 C 31.913,3.824 32.06,3.758 34.365,2.976 L 36.898,2.206 L 36.983,2.183 L 38.305,1.851 C 50.12,-0.02 56.773,6.38 59.688,10.361 C 65.646,18.5 72.625,36.782 73.963,40.364 C 76.067,45.997 75.799,49.079 75.488,52.648"
   style="fill:#e6e6e6" />
					<path
   id="path93"
   d="M 74.714,54.016 C 73.024,64.11 62.055,70.674 55.246,70.758 C 53.222,70.783 50.495,70.823 48.503,70.458 L 17.61,63.856 C 9.651,61.425 5.447,57.643 3.322,54.898 C -0.129,50.44 0.2,45.485 0.748,42.146 L 1.596,38.163 C 1.997,36.819 2.498,35.016 2.961,33.691 L 4.439,30.016 C 5.085,28.717 5.923,26.972 6.631,25.705 L 8.671,22.434 C 9.542,21.25 10.689,19.659 11.616,18.519 L 14.11,15.739 C 15.216,14.676 16.687,13.253 17.845,12.248 L 20.634,10.059 C 22.025,9.116 23.894,7.878 25.335,7.014 L 28.163,5.516 C 31.912,3.824 32.059,3.758 34.364,2.976 L 36.923,2.262 C 46.609,0.746 53.072,3.84 59.976,13.295 C 61.811,15.809 73.055,40.256 73.121,40.437 C 75.279,46.402 74.987,52.389 74.714,54.016"
   style="fill:#e7e7e7" />
					<path
   id="path95"
   d="M 74.008,54.072 C 72.877,59.803 65.115,70.326 51.504,69.892 C 50.639,69.864 49.467,69.927 48.625,69.729 L 14.905,61.29 C 11.633,60.08 5.355,56.718 2.581,51.795 C -0.159,46.933 0.76,42.212 1.368,39.088 L 2.447,35.203 L 2.96,33.69 L 4.438,30.015 C 5.084,28.716 5.922,26.971 6.63,25.704 L 8.67,22.433 C 9.541,21.249 10.688,19.658 11.615,18.518 L 14.109,15.738 C 15.215,14.675 16.686,13.252 17.844,12.247 L 20.633,10.058 C 22.024,9.115 23.893,7.877 25.334,7.013 L 28.163,5.515 C 29.094,5.095 30.326,4.51 31.271,4.121 L 32.522,3.636 C 36.075,2.57 46.888,-0.673 55.907,10.291 C 57.769,12.554 58.641,13.976 60.009,16.501 C 61.978,20.136 63.021,24.169 64.898,27.844 C 67.123,32.198 70.387,35.946 72.27,40.499 C 74.528,45.964 74.416,52.003 74.008,54.072"
   style="fill:#e7e7e7" />
					<path
   id="path97"
   d="M 73.297,54.123 C 72.441,57.884 68.143,70.074 48.746,69 C 44.077,68.741 40.389,65.705 36.046,64.521 C 29.146,62.642 21.838,62.594 15.133,59.843 C 14.238,59.476 6.296,56.088 2.99,50.229 C 0.726,46.216 0.509,41.741 2.286,35.717 C 2.864,33.983 3.757,31.712 4.439,30.016 C 5.085,28.717 5.923,26.972 6.631,25.705 L 8.671,22.434 C 9.542,21.25 10.689,19.659 11.616,18.519 L 14.11,15.739 C 15.216,14.676 16.687,13.253 17.845,12.248 L 20.634,10.059 C 22.025,9.116 23.894,7.878 25.335,7.014 L 28.163,5.516 L 28.175,5.51 L 30.944,4.306 C 44.588,-0.753 52.692,8.78 55.355,11.912 C 56.063,12.745 56.063,12.745 62.71,26.695 C 65.073,31.653 69.252,35.469 71.413,40.553 C 74.56,47.956 73.436,53.514 73.297,54.123"
   style="fill:#e8e8e8" />
					<path
   id="path99"
   d="M 72.581,54.167 C 71.628,57.874 67.1,69.845 48.867,68.269 C 44.2,67.865 40.591,64.7 36.252,63.438 C 29.378,61.438 22.03,61.453 15.375,58.523 C 10.954,56.577 5.477,52.621 3.205,48.169 C 2.283,46.362 -0.166,41.563 3.597,32.004 L 5.198,28.403 L 6.631,25.706 L 8.671,22.435 C 9.542,21.251 10.689,19.66 11.616,18.52 L 14.11,15.74 C 15.216,14.677 16.687,13.254 17.845,12.249 L 20.634,10.06 C 21.907,9.197 23.608,8.05 24.923,7.253 L 26.932,6.161 C 30.632,4.539 41.89,-0.395 51.484,9.695 C 54.174,12.524 55.181,13.583 58.123,19.784 C 62.042,28.046 62.042,28.046 67.879,36.259 C 73.528,44.208 73.554,50.385 72.581,54.167"
   style="fill:#e9e9e9" />
					<path
   id="path101"
   d="M 71.863,54.206 C 69.079,63.88 60.528,68.863 48.988,67.535 C 44.346,67.001 40.755,63.845 36.436,62.507 C 29.595,60.387 22.241,60.283 15.645,57.203 C 10.51,54.805 5.569,50.343 3.631,46.354 C 0.048,38.979 3.809,31.276 5.616,27.574 C 6.472,25.998 7.721,23.956 8.67,22.434 C 9.541,21.25 10.688,19.659 11.615,18.519 L 14.109,15.739 C 15.215,14.676 16.686,13.253 17.844,12.248 C 19.217,11.166 21.075,9.758 22.511,8.762 C 26.838,6.227 38.332,-0.505 49.408,9.695 C 51.116,11.267 53.377,13.591 54.456,15.729 C 56.432,19.646 57.808,23.847 60.108,27.61 C 62.928,32.223 67.412,35.612 69.682,40.63 C 70.701,42.878 73.403,48.852 71.863,54.206"
   style="fill:#eaeaea" />
					<path
   id="path103"
   d="M 71.141,54.238 C 70.081,57.783 65.361,69.168 49.108,66.799 C 47.655,66.587 45.844,65.755 44.449,65.297 C 41.682,64.388 39.387,62.485 36.622,61.574 C 29.822,59.333 22.461,59.142 15.935,55.902 C 11.755,53.826 6.285,49.364 4.152,44.474 C 0.11,35.206 6.775,24.623 11.107,19.141 C 11.979,18.077 11.979,18.077 14.663,15.176 C 29.018,1.642 38.158,4.104 45.897,8.779 C 50.073,11.301 52.822,15.656 53.725,17.087 C 55.781,20.343 56.591,24.183 58.592,27.464 C 59.491,28.938 59.491,28.938 63.622,33.32 C 63.701,33.403 71.487,41.871 71.681,49.62 C 71.716,51.014 71.541,52.901 71.141,54.238"
   style="fill:#eaeaea" />
					<path
   id="path105"
   d="M 70.415,54.264 C 69.373,57.681 64.765,68.645 49.2,66.24 C 48.062,66.064 46.647,65.4 45.558,65.024 C 42.449,63.951 39.922,61.716 36.815,60.639 C 30.057,58.296 22.69,58.119 16.194,54.844 C 15.087,54.285 9.368,51.15 5.578,44.245 C -2.136,30.198 19.698,0.919 38.948,6.885 C 39.03,6.91 47.253,9.596 51.357,15.776 C 53.753,19.383 54.727,23.707 57.158,27.297 C 60.414,32.106 65.574,35.339 68.209,40.661 C 69.284,42.833 72.141,48.602 70.415,54.264"
   style="fill:#ebebeb" />
					<path
   id="path107"
   d="M 69.703,54.191 C 69.295,55.645 65.257,68.319 49.283,65.729 C 42.449,64.621 37.367,59.65 31.029,57.447 C 27.235,56.128 23.005,57.209 19.316,55.314 C 16.788,54.016 10.867,50.975 7.038,44.031 C -2.509,26.72 21.225,3.24 37.443,7.861 C 42.877,9.409 47.878,12.856 50.82,17.081 C 52.97,20.169 53.546,24.028 55.725,27.102 C 59.209,32.019 64.735,35.157 67.538,40.667 C 70.738,46.955 70.435,49.073 69.703,54.191"
   style="fill:#ececec" />
					<path
   id="path109"
   d="M 69.665,49.948 C 68.417,60.648 62.544,65.852 52.211,65.415 C 51.356,65.379 50.176,65.494 49.366,65.219 C 44.98,63.731 41.526,60.456 37.19,58.873 C 35.395,58.217 33.084,57.091 31.233,56.614 C 27.392,55.626 23.294,55.959 19.576,54.341 C 14.424,52.099 11.824,48.614 10.97,47.469 C -4.251,27.066 20.125,5.863 34.825,8.63 C 39.146,9.443 45.663,12.558 48.48,15.898 C 51.464,19.437 52.293,24.156 55.023,27.834 C 58.512,32.535 63.734,35.635 66.865,40.667 C 69.545,44.974 69.716,48.592 69.665,49.948"
   style="fill:#ececec" />
					<path
   id="path111"
   d="M 68.722,54.302 C 68.683,54.434 64.701,67.506 49.45,64.707 C 44.69,63.833 41.694,59.741 37.364,58.082 C 36.336,57.689 34.959,57.184 33.928,56.799 C 29.371,55.097 24.246,55.727 19.848,53.371 C 17.188,51.946 13.167,49.792 9.865,43.501 C 0.638,25.925 18.631,4.901 37.767,10.897 C 45.35,13.273 47.482,16.263 49.74,19.428 C 51.869,22.413 52.591,26.124 54.731,29.104 C 55.145,29.68 55.145,29.68 61.249,35.452 C 64.026,38.08 71.407,45.059 68.722,54.302"
   style="fill:#ededed" />
					<path
   id="path113"
   d="M 68.234,54.307 C 67.845,55.574 64.019,66.611 49.533,64.195 C 44.677,63.385 41.875,59.007 37.539,57.292 C 36.519,56.889 35.15,56.377 34.126,55.986 C 29.591,54.25 24.494,54.811 20.086,52.553 C 16.157,50.54 14.32,48.826 11.897,44.912 C 1.959,28.865 15.566,6.592 37.45,12.162 C 44.426,13.938 46.768,17.144 49.248,20.538 C 51.631,23.801 52.512,27.871 54.942,31.108 C 56.53,33.224 58.974,34.31 60.883,36.039 C 63.657,38.55 71.022,45.221 68.234,54.307"
   style="fill:#eeeeee" />
					<path
   id="path115"
   d="M 67.747,54.309 C 66.644,57.72 61.237,66.054 49.616,63.681 C 44.799,62.698 42.064,58.265 37.718,56.502 C 36.706,56.091 35.347,55.571 34.331,55.171 C 29.815,53.398 24.68,54.202 20.317,51.795 C 15.428,49.097 13.101,45.484 12.009,42.929 C 4.515,25.386 22.106,7.395 40.103,14.197 C 43.923,15.641 46.72,18.567 46.738,18.593 C 49.418,22.481 50.594,27.21 53.628,30.9 C 56.814,34.775 62.186,36.134 64.832,40.632 C 66.717,43.838 69.566,48.682 67.747,54.309"
   style="fill:#eeeeee" />
					<path
   id="path117"
   d="M 67.257,54.309 C 67.218,54.423 63.23,65.708 49.699,63.167 C 44.779,62.243 42.258,57.524 37.9,55.711 C 36.897,55.294 35.548,54.765 34.54,54.359 C 30.044,52.551 24.932,53.342 20.554,51.039 C 19.826,50.656 16.075,48.528 13.777,44.268 C 5.206,28.38 23.98,10.411 39.191,14.913 C 42.339,15.845 45.496,18.374 46.236,19.413 C 48.735,22.92 49.544,27.346 52.361,30.68 C 55.725,34.661 61.349,35.961 64.15,40.611 C 66.475,44.469 69.109,48.842 67.257,54.309"
   style="fill:#e9e9e9" />
					<path
   id="path119"
   d="M 66.768,54.307 C 64.844,59.724 57.803,64.455 49.783,62.653 C 49.747,62.645 45.833,61.563 40.7,57.168 C 39.925,56.504 39.055,55.356 38.117,54.956 C 37.111,54.527 35.75,54.003 34.735,53.595 C 30.256,51.792 25.126,52.731 20.799,50.286 C 16.535,47.877 15.439,45.489 14.052,42.466 C 8.207,29.725 25.606,9.516 41.109,16.596 C 44.483,18.137 44.483,18.137 50.387,29.21 C 53.411,34.881 60.43,36.026 63.926,41.164 C 65.146,42.957 68.86,48.416 66.768,54.307"
   style="fill:#eaeaea" />
					<path
   id="path121"
   d="M 66.276,54.301 C 64.69,58.573 59.038,64.188 49.971,62.145 C 49.322,61.999 42.523,58.974 39.288,55.263 C 38.985,54.916 38.702,54.291 38.28,54.107 C 37.295,53.677 35.937,53.212 34.933,52.828 C 30.451,51.116 25.368,51.937 21.05,49.532 C 17.382,47.488 16.054,44.557 15.261,42.806 C 8.686,28.288 28.124,12.09 40.446,17.266 C 42.542,18.146 43.013,18.643 45.279,21.031 C 47.815,23.703 47.64,27.749 50.065,30.477 C 54.107,35.024 60.369,36.905 63.937,42.021 C 65.05,43.619 68.438,48.477 66.276,54.301"
   style="fill:#eaeaea" />
					<path
   id="path123"
   d="M 65.783,54.293 C 64.923,56.568 61.24,63.822 49.942,61.665 C 49.106,61.505 42.677,58.076 40.466,55.56 C 38.049,52.81 37.547,52.239 32.722,51.092 C 28.943,50.195 24.979,50.214 21.308,48.782 C 19.724,48.164 18.07,46.384 17.089,44.994 C 8.889,33.38 23.33,16.087 36.534,17.161 C 39.36,17.39 43.02,19.407 44.867,21.751 C 46.108,23.326 47.48,26.675 48.139,28.285 C 48.877,30.086 50.251,33.437 56.574,36.749 C 62.674,39.943 68.746,46.455 65.783,54.293"
   style="fill:#ebebeb" />
					<path
   id="path125"
   d="M 65.29,54.283 C 64.691,55.849 61.141,63.542 50.017,61.191 C 49.969,61.181 44.762,59.645 39.157,53.05 C 39.013,52.88 38.873,52.587 38.676,52.484 C 31.896,48.942 22.605,51.813 17.431,44.168 C 10.739,34.281 22.532,17.343 35.719,17.902 C 36.251,17.924 41.016,18.244 44.458,22.479 C 44.793,22.892 45.674,24.332 47.802,29.337 C 48.96,32.06 49.658,33.703 53.865,35.989 C 57.637,38.039 69.117,44.276 65.29,54.283"
   style="fill:#ebebeb" />
					<path
   id="path127"
   d="M 64.795,54.271 C 64.438,55.198 60.994,63.253 50.092,60.719 C 50.049,60.709 45.457,59.343 40.316,53.35 C 39.884,52.847 39.462,51.987 38.878,51.674 C 32.173,48.068 22.839,51.124 17.782,43.345 C 11.668,33.94 25.048,14.934 38.653,19.179 C 39.586,19.47 40.868,19.959 41.557,20.652 C 44.239,23.35 44.239,23.35 45.893,26.977 L 49.247,33.77 C 50.631,35.251 56.222,37.942 56.459,38.056 C 58.166,38.874 60.503,39.995 63.945,44.616 C 63.976,44.656 66.761,49.165 64.795,54.271"
   style="fill:#ebebeb" />
					<path
   id="path129"
   d="M 64.301,54.255 C 64.267,54.344 60.731,63.133 50.169,60.244 C 50.13,60.233 46.23,59.118 41.484,53.637 C 38.281,49.937 38.219,49.866 33.371,48.921 C 29.594,48.185 25.62,48.517 22.022,46.817 C 21.99,46.801 18.174,43.212 17.686,41.506 C 13.277,26.108 33.074,15.245 41.122,21.256 C 45.679,24.658 45.299,30.923 48.99,34.827 C 49.174,35.022 54.646,37.891 56.401,38.714 C 57.531,39.244 60.534,40.651 63.643,45.078 C 64.978,46.977 65.588,50.929 64.301,54.255"
   style="fill:#ebebeb" />
					<path
   id="path131"
   d="M 63.805,54.238 C 63.791,54.274 61.998,57.97 56.772,60.103 C 54.957,60.844 52.134,60.295 50.244,59.771 C 47.479,59.004 40.999,52.926 39.716,50.612 C 38.842,49.037 33.656,48.174 33.605,48.166 C 31.592,47.876 29.557,48.33 27.546,47.975 C 25.899,47.684 23.807,46.828 22.27,46.167 C 22.245,46.156 18.841,42.529 18.527,41.683 C 13.756,28.846 29.392,18.298 37.586,20.386 C 40.482,21.124 41.644,22.625 43.253,24.702 C 45.837,28.038 45.896,32.622 48.751,35.824 C 49.807,37.009 52.135,37.327 53.572,38.001 C 54.412,38.395 55.504,38.978 56.34,39.38 C 57.481,39.929 67.394,45.014 63.805,54.238"
   style="fill:#ebebeb" />
					<path
   id="path133"
   d="M 63.787,51.575 C 62.418,58.929 51.141,65.658 40.758,50.881 C 40.353,50.304 40.176,49.252 39.613,48.827 C 39.143,48.473 37.096,47.328 30.468,47.475 C 24.811,47.6 19.966,44.788 18.949,40.787 C 16.346,30.546 25.263,22.243 32.546,21.026 C 36.417,20.379 39.333,21.578 40.261,22.486 C 44.183,26.32 44.938,31.952 48.066,36.237 C 48.711,37.12 50.274,37.544 51.305,37.909 C 58.694,40.522 58.763,40.606 62.326,45.012 C 62.415,45.122 64.499,47.753 63.787,51.575"
   style="fill:#ececec" />
					<path
   id="path135"
   d="M 62.625,54.186 C 62.605,54.222 59.142,58.294 56.889,59.148 C 55.065,59.839 52.275,59.343 50.394,58.823 C 47.399,57.993 41.963,51.421 41.806,51.142 C 41.262,50.175 40.884,48.58 39.993,47.918 C 39.804,47.777 37.931,46.545 30.728,46.717 C 24.67,46.863 20.853,44.568 19.382,39.898 C 17.199,32.969 23.918,23.183 31.778,21.844 C 37.257,20.911 39.335,22.571 39.841,23.101 C 42.783,26.185 42.898,26.306 44.356,31.441 C 45.163,34.281 48.245,37.818 48.272,37.837 C 49.575,38.759 51.87,38.814 53.372,39.356 C 54.452,39.745 55.795,40.497 56.857,40.931 C 58.72,41.692 59.49,42.007 61.664,44.973 C 64.778,49.219 63.374,52.83 62.625,54.186"
   style="fill:#ececec" />
					<path
   id="path137"
   d="M 62.018,54.154 C 61.999,54.188 57.78,58.367 56.948,58.669 C 55.119,59.333 52.311,58.979 50.471,58.347 C 50.422,58.33 44.922,55.491 41.011,48.184 C 40.767,47.728 40.625,46.957 40.199,46.665 C 40.185,46.655 38.442,45.703 30.991,46.013 C 22.641,46.36 21.017,42.113 19.831,39.012 C 18.123,34.548 23.556,24.134 31.024,22.676 C 32.562,22.376 37.242,21.462 39.444,23.698 C 42.906,27.214 43.154,32.377 45.889,36.265 C 46.473,37.096 47.114,38.447 48.027,38.892 C 50.608,40.153 53.537,40.225 56.176,41.289 C 57.81,41.948 59.833,43.384 60.882,44.799 C 63.896,48.867 63.163,52.132 62.018,54.154"
   style="fill:#ececec" />
					<path
   id="path139"
   d="M 61.409,54.118 C 57.772,60.405 51.407,58.16 50.693,57.884 C 50.631,57.86 43.987,54.07 40.944,46.185 C 40.818,45.858 40.949,45.233 40.647,45.058 C 40.128,44.756 39.293,45.417 38.713,45.571 L 28.473,45.403 C 26.847,45.187 24.859,44.141 23.338,43.528 C 21.614,42.832 21.026,39.84 20.285,38.135 C 18.812,34.744 23.746,24.78 31.204,23.322 C 32.783,23.013 36.975,22.193 39.045,24.302 C 41.57,26.877 41.59,26.952 42.619,30.881 C 44.466,37.934 44.963,39.829 50.862,40.461 C 63.237,41.783 63.418,50.646 61.409,54.118"
   style="fill:#ececec" />
					<path
   id="path141"
   d="M 60.799,54.079 C 60.041,55.374 58.523,56.983 57.093,57.439 C 55.246,58.029 52.315,58.287 50.632,57.325 C 44.05,53.559 42.187,46.143 41.392,42.977 C 41.371,42.895 41.4,42.746 41.327,42.703 C 40.446,42.177 39.015,43.325 38.024,43.591 C 32.201,45.156 28.742,44.758 28.719,44.751 C 23.438,43.086 23.438,43.086 21.063,38.243 C 19.755,35.576 22.463,25.803 32.066,23.819 C 36.368,22.93 38.194,24.431 38.65,24.913 C 40.953,27.338 41.123,27.968 42.066,31.458 C 42.59,33.398 41.939,35.517 42.965,37.381 C 43.828,38.948 45.799,40.657 47.476,41.282 C 48.374,41.617 49.713,41.357 50.672,41.351 C 56.046,41.318 58.399,43.433 58.421,43.455 C 59.341,44.335 63.775,48.998 60.799,54.079"
   style="fill:#ececec" />
					<path
   id="path143"
   d="M 35.234,43.258 C 33.997,43.644 31.693,44.363 28.969,44.099 C 27.356,43.943 24.991,43.385 23.927,42.163 C 19.745,37.357 22.243,32.778 23.736,30.042 C 26.266,25.403 32.558,24.172 34.563,24.107 C 35.751,24.068 37.361,24.749 38.26,25.525 C 39.326,26.446 40.244,28.185 40.788,29.485 C 43.411,35.753 41.08,41.114 40.789,41.427 C 39.592,42.711 36.909,42.735 35.234,43.258"
   style="fill:#ececec" />
					<path
   id="path145"
   d="M 39.272,40.991 C 39.184,41.073 32.124,43.289 31.866,43.316 C 30.181,43.493 27.88,42.972 26.303,42.355 C 24.179,41.524 22.174,40.74 22.397,34.39 C 22.468,32.37 25.405,27.99 28.054,26.579 C 28.086,26.562 33.872,24.757 34.079,24.748 C 35.29,24.695 36.896,25.426 37.871,26.147 C 38.253,26.43 40.683,30.518 40.841,32.189 C 40.972,33.576 41.254,35.458 41.009,36.83 C 40.772,38.161 40.263,40.069 39.272,40.991"
   style="fill:#ededed" />
					<path
   id="path147"
   d="M 37.777,40.532 C 37.75,40.554 31.856,42.756 29.48,42.806 C 27.882,42.84 26.005,41.448 24.54,40.81 C 23.539,40.375 23.114,34.212 23.123,34.156 C 23.276,33.169 24.676,29.057 28.737,26.983 C 30.078,26.298 32.025,25.517 33.53,25.491 C 34.773,25.47 36.511,26.019 37.448,26.836 C 37.473,26.858 40.033,31.715 40.038,31.928 C 40.071,33.311 40.396,35.201 40.044,36.539 C 39.694,37.872 38.845,39.663 37.777,40.532"
   style="fill:#ededed" />
					<path
   id="path149"
   d="M 36.47,39.869 C 36.082,40.38 29.903,42.029 29.852,42.029 C 28.251,42.059 25.902,41.316 24.881,40.081 C 23.81,38.785 23.699,36.251 23.833,34.575 C 23.942,33.207 24.96,31.563 25.653,30.379 C 26.184,29.473 30.515,26.236 32.973,26.262 C 34.242,26.275 36.023,26.778 36.983,27.607 C 38.001,28.485 38.717,30.284 39.035,31.59 C 39.366,32.945 39.146,34.847 39.088,36.241 C 39.032,37.582 37.281,38.799 36.47,39.869"
   style="fill:#ededed" />
					<path
   id="path151"
   d="M 60.19,54.036 C 59.567,55.087 58.347,56.44 57.17,56.767 C 55.31,57.284 52.506,57.434 50.735,56.663 C 48.913,55.87 47.121,53.684 45.966,52.068 C 45.665,51.647 45.685,50.888 45.482,50.413 C 45.017,49.328 43.867,48.055 43.746,46.881 C 43.606,45.524 43.704,43.291 44.781,42.453 L 52.981,41.996 C 54.702,42.2 56.782,43.383 58.375,44.066 C 59.248,44.441 61.209,49.459 61.215,49.503 C 61.373,50.888 60.901,52.836 60.19,54.036"
   style="fill:#ececec" />
					<path
   id="path153"
   d="M 37.875,36.292 C 37.076,37.319 36.233,38.959 35.132,39.652 C 33.815,40.48 31.683,40.8 30.166,41.141 C 28.635,41.484 26.332,40.325 25.353,39.099 C 24.568,38.117 24.418,36.234 24.56,34.986 C 24.714,33.623 25.604,31.94 26.298,30.756 C 26.601,30.238 30.433,27.021 32.423,27.042 C 33.718,27.056 35.536,27.549 36.524,28.387 C 37.247,29 37.79,30.272 37.95,31.206 C 37.956,31.246 38.542,35.434 37.875,36.292"
   style="fill:#ededed" />
					<path
   id="path155"
   d="M 59.58,53.99 C 59.098,54.8 58.166,55.884 57.247,56.095 C 55.374,56.526 52.58,56.82 50.841,56.001 C 49.372,55.31 47.812,53.624 46.932,52.261 C 46.061,50.91 45.052,48.807 45.164,47.204 C 45.271,45.675 46.872,43.519 48.377,43.23 C 49.716,42.974 51.535,42.462 52.884,42.659 C 54.608,42.91 57.034,43.515 58.329,44.681 C 59.511,45.745 60.412,47.885 60.624,49.461 C 60.81,50.843 60.292,52.792 59.58,53.99"
   style="fill:#ededed" />
					<path
   id="path157"
   d="M 33.963,39.231 C 33.068,39.813 31.608,40.381 30.55,40.237 C 29.014,40.028 26.785,39.349 25.834,38.124 C 24.488,36.391 25.979,32.789 26.955,31.126 C 26.975,31.093 30.673,27.822 31.88,27.828 C 33.2,27.834 35.06,28.32 36.068,29.171 C 36.486,29.524 36.794,30.265 36.879,30.806 C 37.102,32.219 37.373,34.17 37.08,35.57 C 36.785,36.983 35.172,38.445 33.963,39.231"
   style="fill:#ededed" />
					<path
   id="path159"
   d="M 58.968,53.939 C 58.626,54.51 57.976,55.309 57.322,55.423 C 55.437,55.752 52.644,56.218 50.945,55.34 C 49.825,54.761 48.522,53.541 47.9,52.444 C 47.136,51.099 46.062,48.973 46.486,47.486 C 46.945,45.874 48.875,43.887 50.531,43.632 C 51.206,43.528 52.125,43.15 52.785,43.324 C 54.511,43.78 56.99,44.409 58.252,45.672 C 59.131,46.552 59.926,48.178 60.034,49.418 C 60.153,50.806 59.684,52.744 58.968,53.939"
   style="fill:#ededed" />
					<path
   id="path161"
   d="M 32.812,38.798 C 32.318,39.11 31.509,39.483 30.942,39.34 C 29.458,38.964 27.256,38.375 26.328,37.156 C 25.342,35.862 27.602,31.533 27.626,31.492 C 28.308,30.33 29.909,29.096 31.225,28.805 C 31.492,28.746 35.392,29.776 35.619,29.965 C 35.729,30.057 35.818,30.252 35.828,30.396 C 35.937,31.832 36.479,33.829 36.017,35.193 C 35.554,36.564 34.035,38.024 32.812,38.798"
   style="fill:#ededed" />
					<path
   id="path163"
   d="M 58.357,53.886 C 58.157,54.219 57.78,54.708 57.395,54.75 C 55.501,54.955 52.768,55.494 51.047,54.677 C 49.267,53.831 48.376,50.824 47.892,48.914 C 47.801,48.554 47.469,48.059 47.599,47.71 C 48.259,45.94 50.801,44.163 52.683,43.993 C 54.508,43.828 57.256,45.09 58.167,46.68 C 58.611,47.454 59.417,48.477 59.44,49.369 C 59.478,50.762 59.076,52.693 58.357,53.886"
   style="fill:#ededed" />
					<path
   id="path165"
   d="M 57.745,53.829 C 57.328,54.518 51.211,54.023 51.151,54.016 C 50.617,53.945 50.111,53.254 49.842,52.787 C 49.093,51.491 48.185,49.323 48.718,47.924 C 49.221,46.603 51.107,45.279 52.513,45.132 C 54.342,44.941 57.135,46.116 58.082,47.692 C 58.36,48.154 58.877,48.78 58.848,49.319 C 58.771,50.709 58.466,52.637 57.745,53.829"
   style="fill:#ededed" />
					<path
   id="path167"
   d="M 31.679,38.351 C 31.04,38.744 26.848,36.236 26.832,36.195 C 26.319,34.918 27.621,33.042 28.311,31.852 C 28.663,31.245 29.488,30.585 30.174,30.434 C 31.568,30.126 33.903,30.308 34.836,31.389 C 35.506,32.165 35.305,33.835 34.971,34.805 C 34.497,36.176 32.916,37.591 31.679,38.351"
   style="fill:#ededed" />
					<path
   id="path169"
   d="M 57.743,51.371 C 57.716,51.407 54.067,54.51 51.254,53.355 C 51.087,53.287 50.863,53.12 50.816,52.946 C 50.431,51.522 49.302,49.5 49.839,48.126 C 50.179,47.257 51.412,46.376 52.339,46.275 C 54.174,46.074 56.649,47.438 57.992,48.704 C 58.578,49.255 58.226,50.728 57.743,51.371"
   style="fill:#ededed" />
					<path
   id="path171"
   d="M 32.555,35.848 C 31.075,35.919 29.222,33.984 28.886,32.541 C 28.851,32.389 29,32.126 29.153,32.094 C 30.578,31.788 32.948,32.066 33.889,33.178 C 34.126,33.458 34.069,34.058 33.939,34.401 C 33.726,34.964 33.155,35.82 32.555,35.848"
   style="fill:#ededed" />
					<path
   id="path173"
   d="M 51.553,51.427 C 50.698,51.015 50.62,49.201 50.965,48.317 C 51.128,47.899 51.72,47.475 52.167,47.422 C 53.381,47.278 54.785,48.555 55.918,49.014 C 54.613,49.747 52.901,52.076 51.553,51.427"
   style="fill:#ededed" />
				</g>
				<path
   id="path175"
   d="M 80.351,74.831 C 77.432,78.817 75.967,80.819 71.381,85.37 C 71.61,89.577 71.536,90.46 70.73,93.245 C 66.588,95.038 64.697,95.857 59.148,97.499 C 58.94,98.097 58.584,98.874 58.234,99.401 C 55.561,100.282 54.843,100.519 51.877,100.808 C 50.968,100.821 49.755,100.831 48.846,100.817 C 46.591,100.716 46.591,100.716 45.481,100.61 C 44.81,100.535 43.914,100.436 43.244,100.346 C 42.968,100.204 42.64,99.939 42.414,99.724 C 41.849,98.975 41.315,98.268 40.286,96.321 C 41.316,94.247 42.363,92.182 43.4,90.113 C 43.653,88.553 43.937,86.824 44.247,84.934 C 42.424,81.603 41.99,80.812 40.543,77.894 C 37.108,77.17 33.739,76.302 30.499,75.306 C 24.89,73.843 23.205,73.345 18.09,71.392 C 16.328,67.116 15.854,65.967 14.416,61.046 C 14.463,60.732 14.514,60.417 14.567,60.1 C 15.36,55.353 16.702,50.623 18.491,46.04 C 23.034,44.53 28.184,42.818 34.381,40.255 C 34.854,39.443 35.3,38.677 43.17,38.901 C 43.041,41.086 42.909,44.003 42.847,46.191 C 46.597,47.161 49.076,47.801 54.158,48.66 C 55.602,47.272 57.5,45.39 58.888,43.946 C 64.097,44.902 65.713,45.148 70.994,45.581 C 72.209,50.309 72.336,50.803 73.059,54.033 C 77.873,60.83 78.162,61.237 79.499,63.2 C 83.558,62.275 83.889,62.2 85.701,61.599 C 83.735,67.823 81.935,72.275 80.351,74.831"
   style="fill:#595959" />
				<path
   id="path177"
   d="M 71.04,6.48 C 69.44,6.147 67.297,5.748 65.677,5.53 C 66.203,5.763 66.898,6.09 67.411,6.351 C 68.527,6.526 70.016,6.76 71.128,6.963 C 73.713,7.765 76.644,8.673 79.837,10.523 C 80.398,11.02 81.153,11.674 81.694,12.193 C 80.866,11.708 79.78,11.028 78.932,10.58 C 77.826,10.162 76.344,9.622 75.223,9.248 C 75.539,9.642 75.951,10.176 76.233,10.594 C 80.542,13.057 80.542,13.057 82.613,14.604 C 81.928,13.933 81.028,13.025 80.312,12.387 C 83.845,14.056 85.607,15.042 87.376,16.831 L 87.98,17.507 C 90.647,20.767 91.203,21.445 93.355,24.881 L 93.804,25.647 C 94.556,27.081 95.51,29.019 96.156,30.503 C 96.656,31.655 97.334,33.188 97.76,34.369 C 98.371,36.405 99.109,39.144 99.574,41.218 L 99.67,41.74 C 99.65,41.907 99.646,42.143 99.566,42.292 C 99.553,42.715 99.507,43.133 99.428,43.545 C 100.201,50.043 100.28,51.929 99.442,58.966 C 99.089,60.054 98.635,61.512 98.213,62.575 C 98.508,58.238 98.525,57.978 98.277,55.042 C 97.795,50.596 97.744,50.131 96.89,46.705 C 96.07,45.193 94.911,43.212 93.997,41.756 C 91.99,42.336 91.732,42.41 90.472,42.61 C 87.742,42.203 87.518,42.17 85.718,41.813 C 84.306,41.818 82.425,41.791 81.014,41.742 L 81.893,43.557 C 82.858,44.018 84.144,44.635 85.113,45.088 C 85.714,46.127 86.527,47.506 87.108,48.557 C 88.001,47.921 89.191,47.07 90.04,46.376 C 90.164,47.57 90.366,49.158 90.447,50.355 C 89.923,51.798 89.22,53.723 88.613,55.133 C 87.604,56.056 86.254,57.284 85.193,58.148 C 83.847,59.052 82.037,60.237 80.644,61.066 C 80.151,58.967 79.448,56.179 78.88,54.099 C 77.99,53.016 76.804,51.573 75.917,50.488 C 74.84,49.195 73.407,47.468 72.342,46.165 L 74.691,44.018 C 74.937,42.819 75.292,41.226 75.492,40.018 C 73.624,40.24 71.695,40.381 69.724,40.446 L 68.394,37.301 C 68.191,35.626 67.956,33.975 67.69,32.357 C 66.641,32.176 65.242,31.937 64.197,31.732 C 63.907,33.384 63.502,35.585 63.145,37.223 C 62.426,36.434 61.453,35.395 60.753,34.589 C 60.238,33.1 59.555,31.112 59.071,29.612 C 58.092,29.323 56.785,28.941 55.814,28.63 C 56.31,33.093 56.34,33.361 56.825,36.688 C 57.152,38.256 57.589,40.346 57.937,41.91 L 55.798,39.412 C 54.196,40.059 52.05,40.895 50.427,41.486 C 51.243,40.465 52.34,39.11 53.132,38.07 C 52.936,36.53 52.674,34.478 52.512,32.935 C 52.644,31.505 52.817,29.598 52.964,28.169 C 51.482,28.422 49.499,28.726 48.008,28.927 C 45.169,32.125 44.804,32.536 41.859,35.566 C 38.318,35.34 37.477,35.286 33.745,34.821 C 33.764,33.589 33.765,31.945 33.839,30.715 C 35.527,27.763 37.33,24.957 39.217,22.346 C 42.044,22.673 42.407,22.715 44.657,22.845 C 45.47,21.968 46.557,20.802 47.361,19.916 C 47.294,20.03 47.204,20.181 47.137,20.294 C 47.957,20.883 50.594,20.249 51.382,20.041 C 51.924,19.26 52.662,18.227 53.185,17.433 L 54.239,17.149 C 53.811,18.234 53.243,19.683 52.803,20.763 C 53.436,20.645 54.283,20.499 54.913,20.366 L 56.514,19.32 C 56.713,18.165 56.982,16.626 57.161,15.468 C 56.33,12.86 56.28,12.704 56.116,11.292 C 56.033,12.343 55.927,13.745 55.898,14.799 L 55.194,17.083 C 55.009,16.326 54.738,15.32 54.605,14.551 L 53.326,16.208 C 54.102,12.921 54.183,12.577 54.689,11.193 C 55.16,10.399 55.791,9.343 56.243,8.538 L 56.936,7.252 C 57.45,6.968 57.492,6.944 57.71,6.729 C 57.807,7.206 57.922,7.847 58.074,8.31 C 58.155,9.061 58.26,10.062 58.344,10.812 C 58.007,10.893 57.559,11.002 57.219,11.069 C 58.011,12.995 58.155,13.342 59.383,15.258 C 60.737,14.344 60.879,14.249 61.59,13.549 C 61.09,12.525 60.424,11.159 59.933,10.131 C 59.929,8.627 59.866,8.243 59.086,6.794 C 58.857,6.317 58.81,6.218 58.35,5.801 C 58.79,6.07 59.374,6.431 59.825,6.682 C 60.869,7.147 61.117,7.257 62.448,7.703 C 61.488,7.147 60.195,6.424 59.188,5.957 C 59.029,5.866 58.821,5.737 58.653,5.663 C 59.364,5.809 59.895,5.904 60.753,5.906 C 61.613,5.896 61.883,5.877 62.563,5.709 C 62.133,5.546 61.598,5.342 60.919,5.193 C 63.771,5.261 67.006,5.338 71.04,6.48"
   style="fill:#595959" />
				<path
   id="path179"
   d="M 47.146,18.725 C 46.387,18.549 45.375,18.314 44.621,18.119 L 44.905,17.074 C 45.804,16.095 47.001,14.787 47.922,13.828 C 48.732,12.921 49.807,11.705 50.657,10.835 L 52.446,9.424 L 52.54,9.907 C 51.989,10.624 51.231,11.564 50.719,12.31 C 50.155,13.256 49.392,14.513 48.883,15.489 L 48.655,17.011 L 47.146,18.725"
   style="fill:#bfbfbf" />
				<path
   id="path181"
   d="M 44.245,15.352 C 43.863,15.182 43.489,15.006 43.123,14.826 L 44.972,12.797 L 47.23,11.657 L 47.598,12.365 L 46.338,13.995 L 44.245,15.352"
   style="fill:#bfbfbf" />
			</g>
		</g><path
   id="path183"
   d="M 2.9956212,66.793906 C 10.701924,80.629085 88.803211,88.433909 95.326231,72.915262"
   style="fill:none;stroke:#000000;stroke-width:0.48295489"
   sodipodi:nodetypes="cc" /><path
   id="path185"
   style="fill:none;stroke:#000000"
   d="" /><path
   id="path187"
   d="M 43.33,54.26 C 46.344,34.166 48.027,9.64 58.118,1.384"
   style="fill:none" /><path
   id="path189"
   d="M 36.400415,79.399888 C 42.590396,30.280793 50.81636,12.422072 58.81636,1.4220719"
   style="fill:none;stroke:#000000"
   sodipodi:nodetypes="cc" /><g
   id="g191">
			<text
   id="text193"
   transform="translate(14.8301,13.2603)"><tspan
     id="tspan195"
     style="font-size:10px;font-family:Geneva"
     y="0"
     x="0">10</tspan></text>

			<text
   id="text197"
   transform="translate(28.1602,9.2603)"><tspan
     id="tspan199"
     style="font-size:8px;font-family:Geneva"
     y="0"
     x="0">7</tspan></text>

			<text
   id="text201"
   transform="translate(33.4922,13.2603)"><tspan
     id="tspan203"
     style="font-size:10px;font-family:Geneva"
     y="0"
     x="0"> m</tspan></text>

		</g>
</svg>